<svg width="1000" height="1000" viewBox="0 0 1000 1000" fill="none" xmlns="http://www.w3.org/2000/svg">
<g clip-path="url(#clip0)">
<path d="M327.71 445.83C327.71 445.2 327.61 444.57 327.57 443.93L326.7 438.84C326.7 436.5 326.7 434.15 326.7 431.84C328.15 429.28 328.89 426.84 325.93 424.73C325.21 417.51 324.21 410.31 323.84 403.08C323.17 390.08 327.47 378.72 335.57 368.63C336.69 367.22 337.87 364.95 337.57 363.42C335.28 353.62 339.71 346.24 345.89 339.62C348.44 336.9 349.04 335.15 346.95 331.62C342.52 324.19 344.35 315.16 350.39 308.71C352.57 306.38 354.15 303.49 356.01 300.86C357.25 303.23 358.37 305.68 359.75 307.97C361.61 311.06 363.35 314.33 365.75 316.92C366.67 317.92 369.36 317.2 371.25 317.27C370.925 315.653 370.46 314.067 369.86 312.53C368.22 309.12 365.54 306.01 364.72 302.45C362.37 292.32 360.58 282.06 358.86 271.8C356.51 257.8 354.86 243.66 352.11 229.74C349.33 215.66 343.11 202.22 344.73 187.36C344.83 186.54 344.01 185.62 343.62 184.75C348.56 176.3 359.1 174.49 368.84 180.75C379.44 187.52 387.14 197.27 393.45 207.75C406.09 228.78 417.99 250.29 430.09 271.7C431.39 273.99 432.41 275.38 435.44 274.27C442.27 271.78 448.88 272.89 455.05 276.54C457.6 278.04 459.62 278.06 462.32 276.34C467.71 272.9 473.76 272.83 479.49 275.5C482.31 276.81 483.76 276.08 485.96 274.32C496.02 266.32 507.13 261.32 520.45 263.91C526.691 265.143 532.33 268.453 536.45 273.3C538.5 275.61 540.04 276.14 543.16 274.46C553.73 268.77 563.62 270.46 572.33 278.75C579.04 274.52 585.94 275.5 593.04 277.03C595.61 277.58 598.97 277.71 601.04 276.49C608.17 272.37 615.71 271.44 623.64 272C623.24 273.42 622.49 274.85 622.53 276.26C622.751 277.998 623.157 279.708 623.74 281.36C625.21 280.5 627.23 280 628.07 278.73C633.74 270.17 638.7 261.11 644.75 252.84C657.48 235.41 670.64 218.21 690.31 207.84C699.21 203.14 708.12 198.17 718.62 197.94C724.4 202.04 722.69 207.94 722.16 213.44C721.84 215.249 721.178 216.98 720.21 218.54C707.42 242.94 701.85 269.73 694.61 295.97C693.82 298.85 693.48 301.86 692.61 304.7C689.18 315.7 693.55 326.64 693.04 337.62C692.98 339.08 693.59 340.62 693.53 342.05C693.11 353.33 692.53 364.61 692.19 375.9C692.194 377.525 692.648 379.117 693.5 380.5C697.22 386.65 698.57 393.26 698.84 400.43C699.03 405.43 700.84 410.36 701.9 415.33C702.14 416.45 702.75 417.8 702.38 418.72C699.66 425.46 702.07 431.35 704.32 437.72C707.01 445.36 706 453.41 703.51 461.22C702.769 463.746 702.561 466.399 702.9 469.01C704.693 482.552 702.972 496.327 697.9 509.01C697.42 510.23 697.01 512.01 697.56 513.01C703.17 522.86 702.2 533.13 699.8 543.51C699.24 545.94 698.54 548.34 697.75 550.7C696.47 554.54 697.57 557.84 698.75 561.63C700.906 568.361 702.124 575.357 702.37 582.42C702.5 588.2 704.21 593.16 707.67 596.97C716.12 606.27 715.67 616.25 711.98 627.13C711.099 629.889 710.961 632.831 711.58 635.66C713.75 645.27 712.37 654.06 706.91 662.26C702.91 668.26 702.49 674.77 702.97 681.79C703.37 687.79 702.57 693.93 701.97 699.98C701.38 706.22 701.14 712.62 699.49 718.6C696.49 729.45 702.4 739.74 700.68 750.41C700.53 751.36 701.68 752.92 702.58 753.57C710.63 759.09 713.87 767.41 715.34 776.42C716.15 781.42 715.17 786.64 715.72 791.68C716.32 797.12 718.3 802.43 718.72 807.87C719.21 814.42 718.72 821.05 718.55 827.64C718.46 830.64 717.35 833.64 717.74 836.48C719.45 848.78 715.94 860.48 714.47 872.48C713.671 880.34 714.328 888.279 716.41 895.9C719.22 906.71 719.86 917.05 716.24 927.67C715.581 929.984 715.444 932.416 715.84 934.79C716.92 942.97 719.07 951.09 719.24 959.27C719.33 963.84 716.35 968.49 714.66 973.07C714.11 974.56 712.55 976.01 712.66 977.37C713.424 985.015 712.013 992.721 708.59 999.6H0C0 954.493 0 909.383 0 864.27C0 857.75 0.539996 857.27 6.84 858.43C7.51358 858.434 8.18452 858.515 8.84 858.67C14.84 861.26 20.39 861.02 26.84 859.08C30.3067 858.012 34.0085 857.972 37.4976 858.964C40.9867 859.956 44.1136 861.938 46.5 864.67C48.43 866.77 50.06 866.57 52.04 864.98C58.83 859.54 66.65 857.52 75.27 857.47C78.1459 857.345 80.9417 856.484 83.39 854.97C91.088 850.164 100.325 848.462 109.23 850.21C111.667 850.655 114.163 850.655 116.6 850.21C124.9 848.67 132.36 849.6 138.84 855.72C140.07 856.87 142.92 856.85 144.84 856.55C149.52 855.84 154.14 853.76 158.76 853.81C169.54 854.114 180.276 852.303 190.36 848.48C198.36 845.35 206.85 843.75 215.64 846.25C217.37 846.75 219.82 845.64 221.64 844.71C232.51 839.14 243.51 837.71 255.27 842.05C258.51 843.26 262.51 842.35 266.14 842.62C270.92 842.96 275.71 844.05 280.44 843.81C284.25 843.61 287.94 841.42 291.78 840.98C297.37 840.36 296.64 836.2 298.07 832.56C301.14 824.75 305.45 817.43 309.07 809.84C310.23 807.4 311.5 804.75 311.65 802.13C312.15 793.24 311.2 784.28 315.4 775.8C316.6 773.37 315.91 769.89 315.73 766.92C315.11 756.24 317.43 746.45 323.96 737.83C326.52 734.52 323.81 732.65 321.96 730.55C321.96 728.65 321.96 726.75 321.96 724.85C324.49 723.38 324.54 721.96 321.87 720.61C321.42 719.35 320.97 718.09 320.53 716.83L319.63 714.71V708.71C320.41 706.38 323.53 704.14 319.94 701.61L316.88 692.74V688.74C318.72 684.74 320.73 680.81 322.35 676.74C323.318 673.987 324.11 671.174 324.72 668.32C324.88 667.69 324.52 666.83 324.83 666.32C332.67 653.97 324.12 642.32 323.43 630.32C323.43 629.84 322.94 629.32 323.07 628.89C325.73 620.72 320.43 614.26 318.38 607.12C314.58 593.89 317.61 581.51 323.01 569.45C325.18 564.61 327.01 560.39 324.16 554.62C320.73 547.75 323.16 540.27 327.34 534.35C333.97 525.04 332.86 514.85 330.75 505.19C328.32 494.08 328.25 483.96 334.14 474.03C336.61 469.86 336.25 465.68 333.92 461.29C331.69 457.09 330.28 452.46 328.51 448.02C328.28 447.29 327.99 446.54 327.71 445.83ZM655.71 450.52C655.71 440.03 656.17 429.52 655.58 419.06C655.02 409.25 655.29 399.21 650.66 389.97C648.59 385.85 645.96 384.82 641.66 386.26C637.582 387.579 633.363 388.412 629.09 388.74C624.99 389.11 621.03 388.67 617.43 391.74C615.66 393.26 612.53 393.28 609.98 393.8C608.37 394.13 606.57 393.8 605.08 394.34C599.28 396.52 593.65 399.18 587.8 401.18C584.73 402.24 581.33 402.38 578.06 402.79C574.23 403.28 570.37 403.48 566.55 404.06C564.44 404.38 562.43 405.68 560.35 405.73C547.946 406.02 535.616 407.727 523.6 410.82C511.11 414.03 498.99 409.07 486.6 409.21C485.095 409.259 483.612 408.836 482.36 408C478.8 405.27 475.01 405.71 470.8 405.52C463.02 405.18 454.88 404.15 447.73 401.29C441.963 398.952 435.909 397.395 429.73 396.66C423.86 395.97 417.91 394.81 413.41 390.15C412.58 389.29 410.68 389.01 409.36 389.15C398.85 390.47 388.56 389.86 378.71 385.71C375.31 384.28 373.3 385.37 372.93 388.61C371.72 399.29 369.93 410 369.99 420.69C370.11 446.43 370.777 472.16 371.99 497.88C372.624 509.595 374.129 521.248 376.49 532.74C380.83 554.74 386.49 576.3 395.88 596.82C405.88 618.66 419.7 637.72 438.03 652.95C457.28 668.95 479.27 680.15 504.56 683.36C510.56 684.12 516.99 685.1 522.77 683.87C532.913 681.548 542.876 678.497 552.58 674.74C575.51 666.24 593.71 650.85 608.99 632.41C622.62 615.96 631.99 596.74 638.91 576.46C650.1 543.88 654.36 510.16 655.65 475.96C655.95 467.52 655.68 459.02 655.68 450.52H655.71ZM366.47 200.01C358.01 200.09 353.69 206.18 355.29 213.31C360.49 236.59 365.803 259.843 371.23 283.07C373.03 290.79 378.3 293.23 385.38 289.96C389.91 287.87 394.69 286.06 398.72 283.22C403.11 280.13 406.85 276.08 410.72 272.27C412.82 270.19 412.92 267.78 411.43 265.01C403.5 250.23 395.98 235.22 387.73 220.62C384.496 215.212 380.528 210.279 375.94 205.96C372.89 202.98 368.58 201.29 366.47 200.01ZM701.66 231.29C701.81 218.7 695.43 214.77 687.53 219.13C685.795 220.117 684.158 221.265 682.64 222.56C667.74 235.04 655.43 249.88 644.08 265.56C639.42 271.99 639.73 278.04 645.53 284.03C650.085 288.624 655.113 292.723 660.53 296.26C670.15 302.73 674.94 300.08 679.75 289.64C680.652 287.85 681.192 285.899 681.34 283.9C681.72 270.54 688.12 259.49 694.28 248.21C697.71 241.86 700.09 234.95 701.66 231.29ZM700.57 607.62C700.68 600.17 698.33 595.76 693.52 594.99C692.14 594.77 690.52 595.75 689.07 596.19C689.77 597.46 690.17 599.41 691.23 599.87C695.07 601.56 695.52 604.87 695.23 608.12C694.859 610.912 693.909 613.597 692.44 616C690.62 619.2 690.55 621.46 693.39 624.27C694.77 625.65 695.19 628.67 694.94 630.81C694.69 632.95 692.68 634.87 692.11 637.05C691.47 639.47 686.5 640.78 690.01 643.85C690.49 644.27 694.92 641.56 696.12 639.49C698.42 635.49 702.12 630.03 700.9 626.78C698.8 621.12 697.9 616.46 700.5 611.07C700.96 610.12 700.57 608.77 700.57 607.61V607.62ZM708.66 948.15L709.55 947.76C708.508 944.947 707.265 942.214 705.83 939.58C705.4 938.88 703.11 938.93 701.89 939.32C701.41 939.47 700.95 941.99 701.46 942.57C704.46 946 703.54 949.63 702.55 953.36C702.18 954.78 701.25 956.66 701.8 957.62C704.47 962.26 702.8 966.01 700.21 969.88C699.79 970.49 700.51 971.88 700.69 972.88C701.57 972.69 702.69 972.79 703.29 972.28C706.54 969.57 709.08 966.54 708.73 961.77C708.41 957.29 708.66 952.69 708.66 948.14V948.15Z" fill="#F1DCA7"/>
<path d="M343.63 184.74C344.02 185.61 344.84 186.53 344.74 187.35C343.08 202.21 349.34 215.65 352.12 229.73C354.87 243.65 356.52 257.78 358.87 271.79C360.59 282.05 362.38 292.31 364.73 302.44C365.55 306 368.23 309.11 369.87 312.52C370.47 314.057 370.935 315.643 371.26 317.26C369.37 317.19 366.68 317.89 365.76 316.91C363.34 314.32 361.6 311.05 359.76 307.96C358.38 305.67 357.26 303.22 356.02 300.85C354.36 288.59 352.84 276.32 351.02 264.09C349.12 251.48 347.19 238.87 344.73 226.37C343.08 217.92 339.96 209.75 338.5 201.29C337.43 195.29 337.83 188.97 343.63 184.74Z" fill="#E2CD96"/>
<path d="M718.71 197.92C708.21 198.15 699.3 203.12 690.4 207.82C670.73 218.21 657.57 235.41 644.84 252.82C638.84 261.09 633.84 270.15 628.16 278.71C627.32 279.98 625.3 280.48 623.83 281.34C623.247 279.688 622.841 277.978 622.62 276.24C622.62 274.83 623.33 273.4 623.73 271.98C625.117 269.64 626.5 267.307 627.88 264.98L629.58 262.74C629.609 262.469 629.683 262.206 629.8 261.96L631.53 259.7C631.56 259.434 631.631 259.174 631.74 258.93C632.765 258.201 633.716 257.374 634.58 256.46C641.35 247.74 648.01 238.94 654.81 230.24C658.33 225.74 662.07 221.41 665.71 217C677.43 206.31 690.53 197.91 705.9 193.53C711.63 191.89 716.21 193.75 718.71 197.92Z" fill="#E2CD95"/>
<path d="M665.71 217C662.07 221.41 658.33 225.74 654.81 230.24C648.01 238.94 641.35 247.74 634.58 256.46C633.716 257.374 632.765 258.201 631.74 258.93C637.19 250.68 642.32 242.19 648.2 234.25C652.13 228.96 657.07 224.41 661.69 219.65C662.925 218.617 664.274 217.728 665.71 217V217Z" fill="#F0DEAF"/>
<path d="M325.97 424.7C328.97 426.78 328.19 429.25 326.74 431.81C326.48 429.463 326.223 427.093 325.97 424.7Z" fill="#F8EFD9"/>
<path d="M319.99 701.57C323.58 704.1 320.46 706.34 319.68 708.67C319.78 706.31 319.883 703.943 319.99 701.57Z" fill="#F7EDD4"/>
<path d="M322.03 730.53C323.86 732.63 326.57 734.53 324.03 737.81L322.03 730.53Z" fill="#F7EDD4"/>
<path d="M326.7 438.84L327.57 443.93L326.7 438.84Z" fill="#F8EFD9"/>
<path d="M321.95 720.59C324.62 721.94 324.57 723.36 322.04 724.83L321.95 720.59Z" fill="#F7EDD4"/>
<path d="M631.53 259.7L629.8 261.96L631.53 259.7Z" fill="#F0DEAF"/>
<path d="M629.58 262.74L627.88 264.98L629.58 262.74Z" fill="#F0DEAF"/>
<path d="M327.71 445.83C327.99 446.54 328.28 447.24 328.56 447.94C328.27 447.29 327.99 446.54 327.71 445.83Z" fill="#F8EFD9"/>
<path d="M319.71 714.69L320.61 716.81L319.71 714.69Z" fill="#F7EDD4"/>
<path d="M655.68 450.52C655.68 459.02 655.95 467.52 655.63 476C654.34 510.2 650.08 543.92 638.89 576.5C631.89 596.78 622.6 616 608.97 632.45C593.69 650.89 575.49 666.29 552.56 674.78C542.856 678.537 532.893 681.588 522.75 683.91C516.97 685.14 510.56 684.16 504.54 683.4C479.25 680.19 457.26 668.99 438.01 652.99C419.68 637.76 405.87 618.7 395.86 596.86C386.47 576.34 380.86 554.74 376.47 532.78C374.109 521.287 372.604 509.635 371.97 497.92C370.783 472.213 370.117 446.483 369.97 420.73C369.97 410.04 371.7 399.33 372.91 388.65C373.28 385.41 375.29 384.32 378.69 385.75C388.54 389.9 398.83 390.51 409.34 389.19C410.66 389.02 412.56 389.3 413.39 390.19C417.89 394.85 423.84 396.01 429.71 396.7C435.889 397.435 441.943 398.992 447.71 401.33C454.86 404.19 463 405.22 470.78 405.56C474.99 405.75 478.78 405.31 482.34 408.04C483.592 408.876 485.075 409.299 486.58 409.25C498.93 409.11 511.05 414.07 523.58 410.86C535.596 407.767 547.926 406.06 560.33 405.77C562.41 405.72 564.42 404.42 566.53 404.1C570.35 403.52 574.21 403.32 578.04 402.83C581.31 402.42 584.71 402.28 587.78 401.22C593.63 399.22 599.26 396.56 605.06 394.38C606.55 393.82 608.35 394.17 609.96 393.84C612.51 393.32 615.64 393.3 617.41 391.78C621.01 388.7 624.97 389.14 629.07 388.78C633.33 388.445 637.536 387.609 641.6 386.29C645.91 384.85 648.54 385.88 650.6 390C655.23 399.24 654.96 409.28 655.52 419.09C656.11 429.54 655.65 440.09 655.65 450.55L655.68 450.52ZM378.81 441.82V454.82C379.13 463.82 379.23 472.75 379.81 481.69C380.58 492.9 381.25 504.15 382.9 515.24C386.55 539.87 391.82 564.1 401.66 587.19C410.17 607.19 421.66 625.19 437.1 640.33C450.275 653.371 466.269 663.211 483.85 669.09C499.73 674.37 515.68 678.61 532.85 673.09C553.29 666.5 571.59 656.58 587.5 642.32C613.9 618.65 627.62 587.68 636.42 554.32C644.36 524.22 646.42 493.21 647.31 462.26C647.88 442.26 646.25 422.13 645.49 402.06C645.201 399.068 644.734 396.096 644.09 393.16C634.56 397.43 623.41 393.84 614.82 400.64C614.71 400.74 614.5 400.72 614.34 400.76C607.24 402.76 600.05 404.49 593.06 406.83C586.86 408.9 580.83 411.02 574.15 409.27C573.15 409.01 571.95 409.63 570.84 409.82C565.01 410.82 559.19 411.91 553.35 412.82C551.23 413.16 549.02 412.93 546.93 413.33C539.5 414.76 532.02 416.01 524.72 417.95C512.24 421.27 500.22 416.54 487.95 416.21C480.46 416.01 473.48 411.13 465.4 412.66C463.4 413.05 460.98 411.51 458.75 410.91C457.32 410.53 455.84 410.36 454.43 409.91C449.91 408.53 445.43 407.09 440.92 405.62C439.52 405.16 438.14 403.94 436.82 404.03C422.44 405.03 410.19 394.75 395.71 396.36C394.721 396.292 393.74 396.135 392.78 395.89C379.71 394.89 379.71 394.89 379.78 408.38C379.78 408.88 379.78 409.38 379.78 409.87L379.73 411.87L378.81 441.82Z" fill="#E1CD95"/>
<path d="M366.47 200.01C368.58 201.3 372.89 203.01 375.92 205.96C380.508 210.279 384.476 215.212 387.71 220.62C395.96 235.22 403.48 250.23 411.41 265.01C412.9 267.78 412.8 270.19 410.7 272.27C406.85 276.08 403.11 280.13 398.7 283.22C394.7 286.06 389.89 287.87 385.36 289.96C378.28 293.23 373.01 290.79 371.21 283.07C365.797 259.843 360.49 236.583 355.29 213.29C353.69 206.18 358.01 200.09 366.47 200.01Z" fill="#D58572"/>
<path d="M701.66 231.29C700.08 234.96 697.66 241.87 694.25 248.19C688.09 259.47 681.69 270.52 681.31 283.88C681.162 285.879 680.622 287.83 679.72 289.62C674.91 300.06 670.12 302.71 660.5 296.24C655.083 292.703 650.055 288.604 645.5 284.01C639.7 278.01 639.39 272.01 644.05 265.54C655.4 249.88 667.71 235.04 682.61 222.54C684.128 221.245 685.765 220.097 687.5 219.11C695.43 214.76 701.81 218.69 701.66 231.29Z" fill="#D58572"/>
<path d="M700.57 607.61C700.57 608.77 700.96 610.12 700.51 611.06C697.93 616.45 698.81 621.11 700.91 626.77C702.11 630.02 698.43 635.48 696.13 639.48C694.93 641.55 690.5 644.26 690.02 643.84C686.51 640.77 691.48 639.46 692.12 637.04C692.69 634.86 694.69 632.96 694.95 630.8C695.21 628.64 694.78 625.64 693.4 624.26C690.56 621.45 690.63 619.19 692.45 615.99C693.919 613.586 694.869 610.902 695.24 608.11C695.52 604.9 695.07 601.55 691.24 599.86C690.18 599.4 689.78 597.45 689.08 596.18C690.57 595.74 692.15 594.76 693.53 594.98C698.33 595.75 700.68 600.16 700.57 607.61Z" fill="#FFF0CA"/>
<path d="M708.66 948.14C708.66 952.69 708.41 957.26 708.73 961.79C709.08 966.56 706.54 969.59 703.29 972.3C702.68 972.81 701.57 972.71 700.69 972.9C700.51 971.9 699.79 970.48 700.21 969.9C702.84 966.03 704.47 962.28 701.8 957.64C701.25 956.64 702.18 954.8 702.55 953.38C703.55 949.65 704.45 946.02 701.46 942.59C700.95 942.01 701.46 939.49 701.89 939.34C703.11 938.95 705.4 938.9 705.83 939.6C707.265 942.234 708.508 944.967 709.55 947.78L708.66 948.14Z" fill="#FFF0CB"/>
<path d="M379.82 409.83C379.82 409.33 379.82 408.83 379.82 408.34C379.82 394.89 379.82 394.88 392.82 395.85C393.78 396.095 394.761 396.252 395.75 396.32C410.23 394.71 422.48 405.01 436.86 403.99C438.18 403.9 439.56 405.12 440.96 405.58C445.45 407.05 449.96 408.49 454.47 409.87C455.88 410.31 457.36 410.48 458.79 410.87C461.02 411.47 463.41 413.01 465.44 412.62C473.52 411.09 480.5 415.97 487.99 416.17C500.26 416.5 512.28 421.23 524.76 417.91C532.06 415.97 539.54 414.72 546.97 413.29C549.06 412.89 551.27 413.12 553.39 412.78C559.23 411.85 565.05 410.78 570.88 409.78C571.99 409.59 573.2 408.97 574.19 409.23C580.87 410.98 586.9 408.86 593.1 406.79C600.1 404.45 607.28 402.72 614.38 400.72C614.54 400.72 614.75 400.72 614.86 400.6C623.45 393.8 634.6 397.39 644.13 393.12C644.774 396.056 645.241 399.028 645.53 402.02C646.29 422.09 647.92 442.19 647.35 462.22C646.46 493.22 644.4 524.22 636.46 554.28C627.66 587.67 613.94 618.64 587.54 642.28C571.63 656.54 553.33 666.46 532.89 673.05C515.69 678.6 499.74 674.36 483.89 669.05C466.309 663.171 450.314 653.331 437.14 640.29C421.66 625.13 410.21 607.13 401.7 587.15C391.86 564.06 386.59 539.83 382.94 515.2C381.29 504.11 380.62 492.86 379.85 481.65C379.24 472.71 379.14 463.74 378.85 454.78C378.85 450.447 378.85 446.113 378.85 441.78L379.85 411.78C379.79 411.17 379.8 410.5 379.82 409.83ZM577.98 473.83L578.64 491.83C578.71 492.49 578.79 493.16 578.86 493.83C579.51 500 586.13 507.43 592.72 509.37C598.29 511.01 605.99 508.16 610.09 502.62C619.02 490.55 615.76 476.85 614.71 463.62C614.46 460.45 613.77 458.54 617.28 456.62C620.79 454.7 624.81 452.54 623.14 446.29C620.83 447.018 618.566 447.882 616.36 448.88C613.19 450.55 610.6 451.36 606.8 449.44C599.93 445.96 592.37 444.58 586.33 451.17C583.24 454.54 581.23 458.92 578.74 462.84C578.74 463.51 578.66 464.18 578.63 464.84L578.11 468.45L577.98 473.83ZM408.61 464.12L408.04 467.86C408.04 469.51 408.04 471.17 407.99 472.86C408.17 478.34 408.25 483.86 408.53 489.3C409.07 499.72 415.32 505.89 424.25 509.97C425.089 510.425 426.018 510.688 426.97 510.74C435.59 510.41 444.57 504.13 445.41 495.85C446.48 485.31 447.14 474.34 445.41 463.98C442.78 448.28 429.18 442.67 416.33 449.32C413.41 450.83 410.39 451.42 407.21 449.08C405.32 447.68 402.71 447.24 400.11 446.25C398.75 453.06 403.49 454.61 406.73 457.06C408.47 458.37 410.5 459.23 408.8 461.88C408.74 462.57 408.67 463.29 408.61 464.08V464.12ZM466.61 555.33C467.1 561 467.54 570.45 468.8 579.79C471.49 599.79 476.96 618.79 489.8 634.87C505.03 653.87 523.93 654.75 540.68 636.99C550.74 626.33 555.74 612.62 559.38 598.87C564.6 579.15 565.76 558.97 563.96 538.42C562.736 523.036 559.084 507.942 553.14 493.7C549.223 484.733 543.813 476.496 537.14 469.34C528.54 460.03 517.32 456.16 504.69 461.74C491.79 467.43 485.03 478.74 479.35 490.74C470.33 509.86 467.01 530.4 466.64 555.29L466.61 555.33Z" fill="#FFF1CD"/>
<path d="M378.81 441.82C378.81 446.153 378.81 450.487 378.81 454.82C378.817 450.467 378.817 446.133 378.81 441.82Z" fill="#F0DFB2"/>
<path d="M379.82 409.83C379.82 410.5 379.82 411.17 379.77 411.83C379.78 411.17 379.8 410.5 379.82 409.83Z" fill="#F0DFB2"/>
<path d="M466.64 555.29C467.01 530.4 470.33 509.86 479.45 490.67C485.13 478.74 491.89 467.39 504.79 461.67C517.42 456.09 528.64 459.96 537.24 469.27C543.913 476.426 549.323 484.663 553.24 493.63C559.197 507.88 562.859 522.984 564.09 538.38C565.89 558.93 564.73 579.11 559.51 598.83C555.87 612.58 550.87 626.29 540.81 636.95C524.06 654.71 505.16 653.79 489.93 634.83C477.04 618.83 471.57 599.72 468.93 579.75C467.57 570.41 467.09 560.96 466.64 555.29ZM520.93 525.29C528.36 523.35 534.93 520.16 538.88 513.08C541.99 507.54 539.61 500.55 534.11 499.91C531.16 499.57 527.51 498.85 525.25 500.16C518.48 504.05 512.04 503.71 505.25 500.83C504.233 500.313 503.126 499.994 501.99 499.89C498.13 499.8 494.43 500.33 491.93 503.82C489.65 507.02 490.61 509.9 492.52 512.93C497.22 520.42 504.27 524.19 512.59 526.09C512.34 531.09 511.92 536.03 511.89 541C511.81 556.75 511.98 572.51 511.89 588.27C511.8 600.32 505.16 605.38 494.32 602.46C492.56 601.99 490.19 603.83 488.1 604.59C489.21 606.39 489.9 608.93 491.51 609.85C494.812 611.639 498.602 612.32 502.321 611.79C506.039 611.261 509.488 609.55 512.16 606.91C513.78 605.34 515.27 603.64 516.85 601.97C524.64 612.18 532.42 612.4 540.62 609.36C542.39 608.7 544.62 605.17 544.2 603.54C543.44 600.36 540.42 600.7 537.63 601.94C533.06 603.94 528.49 603.71 525.71 599.25C523.54 595.76 521.36 591.6 521.19 587.65C520.75 577.39 521.41 567.08 521.63 556.8V548.8C521.57 541.467 521.517 534.16 521.47 526.88C521.4 526.47 521.32 526.06 521.25 525.65V525.34L520.93 525.29Z" fill="#F0DBA7"/>
<path d="M408.8 461.81C410.5 459.16 408.47 458.3 406.73 456.99C403.49 454.54 398.73 452.99 400.11 446.18C402.71 447.18 405.32 447.61 407.21 449.01C410.39 451.35 413.41 450.76 416.33 449.25C429.18 442.6 442.78 448.25 445.41 463.91C447.14 474.27 446.48 485.24 445.41 495.78C444.57 504.06 435.59 510.34 426.97 510.67C426.018 510.618 425.089 510.355 424.25 509.9C415.32 505.82 409.07 499.65 408.53 489.23C408.25 483.75 408.17 478.23 407.99 472.79C407.99 471.13 407.99 469.47 408.04 467.79L408.61 464.05C408.67 463.29 408.74 462.57 408.8 461.81Z" fill="#252320"/>
<path d="M578.74 462.81C581.23 458.89 583.24 454.51 586.33 451.14C592.33 444.55 599.93 445.93 606.8 449.41C610.6 451.33 613.19 450.52 616.36 448.85C618.566 447.852 620.83 446.988 623.14 446.26C624.81 452.51 620.65 454.78 617.28 456.59C613.91 458.4 614.46 460.38 614.71 463.59C615.71 476.85 619.02 490.59 610.09 502.59C605.99 508.13 598.29 510.98 592.72 509.34C586.13 507.4 579.51 499.97 578.86 493.8C578.78 493.13 578.71 492.46 578.64 491.8L577.98 473.8L578.11 468.44C578.28 467.24 578.45 466.03 578.63 464.83C578.66 464.15 578.7 463.48 578.74 462.81Z" fill="#262421"/>
<path d="M408.09 467.82C408.09 469.47 408.09 471.13 408.04 472.82C408.01 471.13 408.03 469.47 408.09 467.82Z" fill="#7F7767"/>
<path d="M578.09 468.43L577.96 473.79C578.02 472 578.09 470.22 578.09 468.43Z" fill="#857D6C"/>
<path d="M408.8 461.81C408.74 462.57 408.67 463.32 408.61 464.08C408.67 463.29 408.74 462.57 408.8 461.81Z" fill="#7F7767"/>
<path d="M578.74 462.81C578.74 463.48 578.66 464.15 578.63 464.81C578.66 464.15 578.7 463.48 578.74 462.81Z" fill="#857D6C"/>
<path d="M578.64 491.79C578.71 492.45 578.78 493.12 578.86 493.79C578.79 493.12 578.71 492.45 578.64 491.79Z" fill="#857D6C"/>
<path d="M521.48 526.86C521.533 534.16 521.587 541.467 521.64 548.78V556.78C521.42 567.06 520.76 577.37 521.2 587.63C521.37 591.63 523.55 595.74 525.72 599.23C528.5 603.69 533.07 603.96 537.64 601.92C540.43 600.68 543.45 600.34 544.21 603.52C544.6 605.15 542.4 608.68 540.63 609.34C532.43 612.34 524.63 612.16 516.86 601.95C515.28 603.62 513.79 605.32 512.17 606.89C509.498 609.53 506.049 611.241 502.331 611.77C498.612 612.3 494.822 611.619 491.52 609.83C489.91 608.91 489.22 606.37 488.11 604.57C490.2 603.81 492.57 601.97 494.33 602.44C505.17 605.36 511.81 600.3 511.9 588.25C512.02 572.49 511.9 556.73 511.9 540.98C511.9 535.98 512.35 531.04 512.6 526.07L520.93 525.27L521.23 525.35V525.66C521.14 525.8 520.97 525.97 521 526.07C521.137 526.346 521.298 526.611 521.48 526.86Z" fill="#B38162"/>
<path d="M520.93 525.29L512.6 526.09C504.28 524.19 497.23 520.42 492.53 512.93C490.62 509.93 489.66 507.02 491.94 503.82C494.44 500.33 498.14 499.82 502 499.89C503.136 499.994 504.243 500.313 505.26 500.83C512.04 503.71 518.48 504.05 525.26 500.16C527.52 498.85 531.17 499.57 534.12 499.91C539.62 500.55 542 507.54 538.89 513.08C534.91 520.11 528.36 523.29 520.93 525.29Z" fill="#262421"/>
<path d="M521.48 526.86C521.307 526.6 521.156 526.326 521.03 526.04C521.03 525.94 521.17 525.77 521.26 525.63C521.33 526.04 521.41 526.45 521.48 526.86Z" fill="#CAA47C"/>
</g>
<defs>
<clipPath id="clip0">
<rect width="722.9" height="822.54" fill="white" transform="translate(0 177)"/>
</clipPath>
</defs>
</svg>
