<svg width="1000" height="1000" viewBox="0 0 1000 1000" fill="none" xmlns="http://www.w3.org/2000/svg">
<g clip-path="url(#clip0)">
<path d="M1000 0H0V1000H1000V0Z" fill="#997B66"/>
<g clip-path="url(#clip1)">
<path d="M227 928.17C238.42 920.17 251.31 915.37 264.46 911.17C284.67 904.77 305.46 901.71 326.53 899.89C334.06 899.24 341.48 897.34 348.95 896.01C350.81 898.47 352.66 900.94 354.55 903.39C365.92 918.12 379.85 930.21 394 942.12C406.55 952.72 419 963.43 431.51 974.12C433.51 975.79 435.51 977.36 437.59 979.03C443.19 971.3 448.3 963.94 453.72 956.83C459.33 949.46 465.25 942.32 471.03 935.09C475.58 943.09 480.03 951.24 484.74 959.18C486.46 962.06 488.86 964.53 490.95 967.18C489.617 978.173 488.313 989.173 487.04 1000.18H229C228.67 994.41 228.19 988.64 228.05 982.87C227.64 964.6 227.36 946.39 227 928.17Z" fill="#7A7E64"/>
<path d="M631.41 903.8C656.41 905.6 681.5 907.13 706.5 909.3C720.23 910.49 732.87 915.75 745 922.13C743.51 937.13 742 952.13 740.52 967.06C739.39 978.06 738.18 989.06 737 1000.12H517L520.06 965.18C522.73 969.93 525.41 974.68 528.58 980.33C531.58 978.18 535.02 976.05 538.07 973.45C548.02 964.96 557.52 955.93 567.76 947.81C579.3 938.65 591.27 930.02 603.37 921.62C612.45 915.3 622 909.71 631.41 903.8Z" fill="#7A7E64"/>
<path d="M737 1000.12C738.18 989.12 739.39 978.12 740.52 967.06C742.05 952.06 743.52 937.06 745 922.13C756.94 927.86 765.09 937.3 768.68 949.72C773.48 966.32 776.96 983.3 781 1000.12H737Z" fill="#9B9B7B"/>
<path d="M227 928.17C227.33 946.39 227.61 964.6 228 982.81C228.14 988.58 228.62 994.35 228.95 1000.12H196C199.11 984.72 201.38 969.12 205.62 954.01C208.78 942.8 216.6 934.12 227 928.17Z" fill="#9B9B7B"/>
<path d="M520.06 965.18L517 1000.12H487C488.333 989.127 489.637 978.127 490.91 967.12C490.97 962.093 491.027 957.067 491.08 952.04C491.469 951.544 491.773 950.986 491.98 950.39C494.027 937.29 496.05 924.187 498.05 911.08C503.05 922.08 508.17 933.08 512.81 944.18C515.64 951.03 517.67 958.18 520.06 965.18ZM503.16 982.18C498.85 982.12 496.67 984.25 496.47 987.8C496.27 991.35 498.47 993.72 502.18 993.9C505.89 994.08 508.18 991.56 508.4 988.18C508.67 984.55 506.44 982.37 503.16 982.12V982.18ZM506.07 950.18C502.07 950.32 499.65 952.29 499.69 955.96C499.73 959.63 501.93 961.96 505.69 961.96C509.16 961.96 511.45 959.87 511.54 956.42C511.63 952.97 509.66 950.41 506.07 950.12V950.18Z" fill="#A8A78D"/>
<path d="M237.42 519.28C228.56 494.72 219.55 470.22 210.92 445.58C206.97 434.28 203.66 422.75 200.25 411.27C195.17 394.17 197.25 377.56 204.72 361.65C221.8 325.41 246.79 295.65 278.35 270.99C294.98 257.99 312.69 255.16 332.35 261.99C335.35 262.99 338.35 263.94 342.25 265.19C341.56 262.11 340.94 259.49 340.38 256.85C336.95 240.79 343.15 227.23 358.48 221.14C372.68 215.434 387.258 210.72 402.11 207.03C426.82 201.03 451.67 195.13 476.77 191.18C513.5 185.39 549.09 191.18 583.22 206.01C601.54 213.95 619.81 222.01 638.31 229.59C663.18 239.72 683.31 256.13 700.02 276.59C715.31 295.3 733.41 309.78 755.72 319.28C764.592 323.099 773.08 327.753 781.07 333.18C796.58 343.64 805.13 358.58 804.77 377.47C804.41 395.93 804.29 414.56 801.65 432.77C796.921 464.584 788.024 495.638 775.19 525.13C773.09 530.01 771.39 535.07 769.51 540.04C765.18 537.71 761.1 534.5 756.51 533.22C739.17 528.39 725.7 536.81 712.96 547.06C702.96 553.94 698.87 565.06 692.77 576.4C691.84 574.77 691.21 574.1 691.05 573.32C689.73 567.02 687.84 560.74 687.36 554.32C686.48 542.54 686.95 530.65 685.85 518.9C685.17 511.58 682.85 504.37 680.75 497.26C680.22 495.46 677.86 493.85 675.98 492.86C667.6 488.43 658.8 484.76 650.7 479.86C636.9 471.58 625.46 460.86 618.99 445.58C618.199 443.972 616.804 442.742 615.11 442.16C605.52 439.41 595.87 436.65 585.68 438.25C576.32 439.71 566.96 441.2 557.59 442.62C532.38 446.44 507.2 447.62 482.27 440.8C456.57 433.95 435 421.12 421.57 397.12C420.958 396.323 420.163 395.686 419.253 395.261C418.343 394.837 417.344 394.637 416.34 394.68C402.18 397.41 388.12 400.61 375.64 408.34C360.09 417.99 350.04 432.19 341.89 448.23C336.1 459.61 329.02 470.33 323.05 481.63C318.96 489.38 314.99 497.37 312.41 505.7C307.89 520.28 307.65 535.49 308.12 550.7C308.21 553.7 307.87 556.7 307.74 559.7L293.38 534.99C286.76 524.34 278.18 515.99 264.92 516.08C255.74 516.12 246.58 518.12 237.42 519.28ZM634 457.12C633.973 456.995 633.922 456.876 633.85 456.77C633.85 456.71 633.68 456.71 633.59 456.68L634 457.12L634.94 458.17L635.88 459.22L636.88 460.22L637.88 461.22L638.88 462.22L639.88 463.22L640.77 463.43L640.26 462.84C639.92 462.52 639.57 462.19 639.26 461.84L638.26 460.84L637.26 459.84C636.93 459.51 636.59 459.19 636.26 458.84L635.21 457.9L634 457.12ZM643.08 465.03L642.47 464.65L642.86 465.24L643.86 466.24L645.91 469L646.91 467.8L644.02 466.08L643.08 465.03ZM649 470.12C648.962 469.995 648.904 469.877 648.83 469.77C648.77 469.71 648.64 469.77 648.55 469.71L649 470.12L650.21 471.66L650.54 471.34C650 470.93 649.52 470.52 649 470.12ZM504.09 436.78C481.7 430.51 460.8 420.85 440.51 409.78C452.26 424.05 489.56 440.12 504.09 436.78ZM352.83 254.01L357.08 258.93C358.69 257.5 360.91 256.37 361.78 254.58C363.632 250.699 365.112 246.651 366.2 242.49C366.419 241.594 366.457 240.664 366.311 239.754C366.165 238.844 365.838 237.972 365.35 237.19C364.57 236.19 361.92 235.4 360.78 235.95C358.84 236.89 356.66 238.66 355.96 240.58C354.51 244.54 354 248.84 352.83 254.01ZM793 363.46L793.59 363.3C792.69 359.98 792.2 356.46 790.72 353.42C790 351.95 787.42 350.69 785.72 350.7C784.81 350.7 782.96 353.78 783.18 355.22C783.887 359.45 785.03 363.595 786.59 367.59C786.984 368.256 787.54 368.811 788.206 369.204C788.872 369.598 789.627 369.816 790.4 369.84C791.4 369.75 792.35 367.74 792.96 366.41C793.3 365.59 793 364.46 793 363.46ZM366.48 255.38L369.28 259.95C370.49 258.59 372.21 257.42 372.81 255.82C373.882 252.893 374.581 249.842 374.89 246.74C375.01 245.67 373.6 243.48 372.89 243.49C371.6 243.49 369.64 244.49 369.19 245.55C368 248.4 367.49 251.52 366.48 255.38ZM774.13 371.38C776.54 374.19 778.13 376.05 779.71 377.91C781.15 375.38 783.31 372.97 783.71 370.28C783.95 368.81 781.28 366.87 779.93 365.14L774.13 371.38ZM776.87 378.21C774.33 376.27 772.96 374.35 771.44 374.21C767.94 373.91 766.84 376.95 767.26 379.6C767.55 381.45 769.59 383.03 770.84 384.73L776.87 378.21Z" fill="#454443"/>
<path d="M712.91 547.12C725.65 536.87 739.12 528.45 756.46 533.28C761.08 534.56 765.16 537.77 769.46 540.1C772.1 543.71 775.07 547.1 777.31 550.97C785.06 564.3 784.31 578.41 780.2 592.56C774.97 610.68 764.85 626.08 752.41 639.96C742.83 650.65 732.58 660.88 719.61 667.34C712.93 670.67 705.16 671.78 697.99 674.18C695.51 675.01 692.45 676.18 691.15 678.11C673.15 705.35 651.47 728.92 625.02 748.11C604.29 763.17 581.6 774.7 558.53 785.46C549.79 789.54 545.93 795.06 545.89 804.52C545.78 825.19 551.52 844.19 561.05 862.25L550 876.04C546 867.74 542 859.433 538 851.12C532.81 834.72 532.48 817.84 533 800.87C532.919 799.556 532.742 798.249 532.47 796.96C530.28 797.39 528.37 797.68 526.47 798.14C515.07 800.99 503.84 804.74 491.84 804.14C483.84 803.74 475.92 803.54 467.98 803.07C466.23 802.96 464.52 802.07 462.81 801.52C456.46 799.37 450.13 797.19 442.99 794.74V803.12C442.66 810.37 441.99 817.63 442.07 824.88C442.14 839.45 436.64 852.25 430.13 864.8C428.71 867.53 427.35 870.3 425.96 873.05C421.08 869.05 416.48 864.92 414.75 858.53C426.32 839.63 427.55 819.01 426.7 797.44C426.3 787.21 420.49 784.11 413.7 780.59C386.82 766.68 361.1 750.97 339.94 729.05C322.84 711.33 306.14 693.13 293.63 671.62C292.82 670.235 291.528 669.199 290 668.71C271.14 664.35 256.38 652.92 242.15 640.79C225.87 626.91 215.89 609.12 211.78 588.17C206.57 561.55 213.71 539.17 235.07 521.78C235.903 520.998 236.685 520.163 237.41 519.28C246.57 518.14 255.73 516.11 264.91 516.06C278.17 515.98 286.75 524.32 293.37 534.97C290.75 533.69 288.11 532.43 285.51 531.11C283.62 530.11 281.88 528.68 279.89 528.11C258.32 522.49 236.74 534.57 229 556.51C223.33 572.59 226.92 587.86 233.37 602.79C240.21 618.61 252.45 629.66 266.28 639.18C275.84 645.78 285.28 652.5 297.55 653.54C299.658 653.661 301.673 654.452 303.3 655.797C304.928 657.143 306.084 658.972 306.6 661.02C307.34 663.51 308.97 665.77 310.37 668.02C321.61 686.02 335.89 701.58 350.48 716.72C365.07 731.86 382.38 743.99 400.69 754.77C421.07 766.77 441.12 778.99 464.59 784.13C479.89 787.49 495.24 790.01 510.59 785.25C523.7 781.19 536.81 776.98 549.59 771.93C570.901 763.39 591.079 752.26 609.67 738.79C620.55 730.97 630.76 722.2 641.05 713.59C654.61 702.24 667.32 689.89 675.7 674.16C680.33 665.47 687.33 661.76 696 658.91C703.64 656.4 711.45 653.48 718 649.05C725.495 643.822 732.349 637.73 738.42 630.9C752.25 615.84 763.42 599.25 766.81 578.33C769.59 561.33 755.72 543.82 738.41 544.2C729.92 544.44 721.42 546.12 712.91 547.12Z" fill="#F1AF7F"/>
<path d="M414.76 858.53C416.49 864.92 421.09 869.09 425.97 873.05C440.75 886.35 456.87 897.59 475.28 905.35C478.61 906.75 481.78 908.54 485.02 910.15C484.24 911.77 483.57 913.44 482.68 914.99C478.82 921.7 474.89 928.36 470.99 935.05C465.21 942.28 459.29 949.42 453.68 956.79C448.26 963.9 443.15 971.26 437.55 978.99C435.48 977.32 433.43 975.75 431.47 974.08C418.96 963.43 406.47 952.72 393.96 942.08C379.85 930.17 365.96 918.08 354.58 903.39C352.69 900.94 350.84 898.47 348.98 896.01C354.53 891.61 359.98 887.01 365.67 882.84C377.67 874.04 389.93 865.5 402.01 856.76C407 853.19 408.62 853.32 414.76 858.53Z" fill="#9A9B7A"/>
<path d="M550 876.04L561.07 862.27C567.38 855.61 568.54 855.66 576.16 861.63C590.9 873.17 605.693 884.647 620.54 896.06C624.06 898.77 627.77 901.22 631.4 903.8C622.03 909.71 612.4 915.3 603.4 921.62C591.3 930.02 579.33 938.62 567.79 947.81C557.55 955.93 548.05 964.96 538.1 973.45C535.05 976.05 531.61 978.18 528.61 980.33C525.44 974.68 522.76 969.93 520.09 965.18C517.7 958.18 515.67 951.03 512.84 944.18C508.17 933.06 503 922.12 498.05 911.12C499.18 910.12 500.14 908.67 501.47 908.12C519.54 900.26 535.46 889.2 550 876.04Z" fill="#9A9B7A"/>
<path d="M471 935.05C474.9 928.36 478.83 921.7 482.69 914.99C483.58 913.44 484.25 911.77 485.03 910.15C485.7 911.29 486.83 912.38 486.97 913.58C488.44 926.4 489.74 939.24 491.09 952.07C491.043 957.09 490.987 962.117 490.92 967.15C488.83 964.49 486.43 962.02 484.71 959.15C480 951.2 475.54 943.12 471 935.05Z" fill="#88886B"/>
<path d="M491.08 952.12C489.73 939.29 488.43 926.45 486.96 913.63C486.82 912.43 485.69 911.34 485.02 910.2C481.78 908.59 478.61 906.8 475.28 905.4C456.87 897.64 440.75 886.4 425.97 873.1C427.36 870.35 428.72 867.58 430.14 864.85C436.65 852.3 442.14 839.5 442.08 824.93C442.08 817.68 442.67 810.42 443 803.17C443.63 803.36 444.51 803.35 444.84 803.77C450.84 811.37 458.41 817.13 466.06 823.04C482.52 835.74 499.89 846.38 520.43 850.65C526.08 851.83 532.13 851.05 538 851.17C542 859.477 546 867.783 550 876.09C535.45 889.25 519.53 900.31 501.46 908.09C500.13 908.67 499.17 910.09 498.04 911.09C496.04 924.19 494.017 937.293 491.97 950.4C491.773 951.02 491.472 951.601 491.08 952.12V952.12Z" fill="#F8C098"/>
<path d="M503.16 982.12C506.44 982.36 508.67 984.54 508.4 988.12C508.14 991.5 505.97 994.02 502.18 993.84C498.39 993.66 496.26 991.4 496.47 987.74C496.68 984.08 498.85 982.12 503.16 982.12Z" fill="#494640"/>
<path d="M506.07 950.12C509.66 950.42 511.66 952.71 511.55 956.31C511.44 959.91 509.17 961.83 505.7 961.85C501.93 961.85 499.7 959.42 499.7 955.85C499.7 952.28 502.08 950.25 506.07 950.12Z" fill="#494640"/>
<path d="M712.91 547.12C721.42 546.12 729.91 544.45 738.46 544.26C755.77 543.88 769.64 561.43 766.86 578.39C763.44 599.31 752.3 615.9 738.47 630.96C732.399 637.794 725.546 643.889 718.05 649.12C711.45 653.55 703.64 656.47 696.05 658.98C687.38 661.83 680.38 665.54 675.75 674.23C667.37 689.96 654.66 702.31 641.1 713.66C630.81 722.27 620.6 731.04 609.72 738.86C591.129 752.33 570.951 763.46 549.64 772C536.9 777 523.79 781.26 510.64 785.32C495.26 790.08 479.91 787.56 464.64 784.2C441.17 779.06 421.12 766.84 400.74 754.84C382.43 744.06 365.19 731.99 350.53 716.79C335.87 701.59 321.66 686.07 310.42 668.09C309.02 665.84 307.42 663.58 306.65 661.09C306.134 659.042 304.978 657.213 303.35 655.867C301.723 654.522 299.708 653.731 297.6 653.61C285.35 652.61 275.89 645.85 266.33 639.25C252.5 629.73 240.26 618.68 233.42 602.86C226.97 587.93 223.42 572.66 229.05 556.58C236.79 534.64 258.37 522.58 279.94 528.18C281.94 528.7 283.67 530.18 285.56 531.18C288.16 532.5 290.8 533.76 293.42 535.04L307.78 559.75C307.91 556.81 308.25 553.75 308.16 550.75C307.69 535.56 307.93 520.35 312.45 505.75C315.03 497.42 319 489.43 323.09 481.68C329.09 470.38 336.14 459.68 341.93 448.28C350.08 432.28 360.13 418.04 375.68 408.39C388.16 400.66 402.22 397.46 416.38 394.73C417.384 394.687 418.383 394.887 419.293 395.311C420.203 395.736 420.998 396.374 421.61 397.17C435.08 421.17 456.61 433.96 482.26 440.93C507.19 447.71 532.37 446.57 557.58 442.75C566.95 441.33 576.31 439.84 585.67 438.38C595.86 436.78 605.51 439.54 615.1 442.29C616.794 442.873 618.189 444.102 618.98 445.71C625.45 460.97 636.89 471.71 650.69 479.99C658.79 484.86 667.59 488.53 675.97 492.99C677.85 493.99 680.21 495.59 680.74 497.39C682.85 504.5 685.16 511.71 685.84 519.03C686.94 530.78 686.47 542.67 687.35 554.45C687.83 560.83 689.72 567.11 691.04 573.45C691.2 574.23 691.83 574.9 692.76 576.53C698.82 565.12 702.9 553.99 712.91 547.12ZM725 592.12C727.22 588.12 729 583.66 731.78 580.12C735.43 575.46 739.92 571.45 744.04 567.12C744.783 567.457 745.556 567.722 746.35 567.91C747.65 568.08 748.98 568.05 750.35 568.11C750.25 566.6 750.61 564.81 749.93 563.65C748.944 562.318 747.613 561.28 746.08 560.65C731.08 553.35 723.08 557.03 712.98 567.11C701.48 578.54 698.08 593.39 699.25 609.25C699.39 611.17 701.17 613.44 702.84 614.57C703.55 615.04 706.32 613.33 707.53 612.03C710.53 608.76 712.96 604.89 716.13 601.78C717.79 600.15 720.54 599.62 722.8 598.6C723.52 601.36 724.42 604.09 724.87 606.9C725.02 607.9 724.06 609.02 723.63 610.1C722.003 614.1 720.38 618.12 718.76 622.16C726.3 620.41 729.43 615.38 730.64 608.9C731.85 602.42 731 596.34 725 592.12ZM251 581.12L266 584.12C265.34 588.5 264 592.89 264.16 597.24C264.4 607.02 274.52 614.95 282 612.24C279.35 609.38 276.72 606.17 273.71 603.36C269.79 599.7 269.6 595.12 270.2 590.46C270.66 586.95 273.62 585.8 276.84 587.52C278.89 588.62 280.73 590.08 282.76 591.21C286.95 593.53 291.76 591.27 291.94 586.62C292.36 576.4 291.11 566.32 286.46 557.09C278.54 541.39 261.16 539.39 250.86 552.84C245.26 560.14 244.64 568.7 245.01 577.46C245.19 582.12 246.12 582.69 251 581.12ZM441 713.12C439.616 712.804 438.273 712.328 437 711.7C434.51 710.09 432.19 708.22 429.81 706.44C426.81 704.22 423.58 703.53 420.87 706.37C417.87 709.55 419.1 712.96 422 715.49C424.056 717.366 426.476 718.8 429.11 719.7C431.89 720.54 435 720.3 437.96 720.53C442.36 736.31 453.37 745.9 468.55 749.53C487.3 754.03 505.93 752.79 523.55 743.53C533.59 738.12 539.42 730.3 541 719.12C543.074 718.696 545.176 718.428 547.29 718.32C549.375 718.379 551.435 717.854 553.237 716.804C555.039 715.755 556.512 714.222 557.49 712.38C558.49 710.74 558.6 707.45 557.57 706.12C556.36 704.55 553.06 703.12 551.37 703.74C548.29 704.8 545.7 707.35 542.95 709.32C541.58 710.32 540.29 711.39 538.95 712.43C531.69 708.99 524.76 704.16 517.13 702.43C498.92 698.22 480.25 698.72 461.89 701.56C454 702.79 446.39 706.39 441 713.12ZM463 538.12L456 524C457.73 523 459.54 522.17 461.19 521.07C465.65 518.07 468.71 511.15 467.37 506.75C465.68 501.17 460.82 500.75 456.1 500.35C454.78 500.23 453.44 500.26 452.1 500.2C439.48 499.65 426.85 498.82 414.22 498.65C403.96 498.5 393.42 497.81 383.47 499.75C368.16 502.75 355.56 512.01 343.61 521.64C339.49 524.97 336.38 529.64 333.29 534.09C332.29 535.57 332.71 538.09 332.49 540.14C334.61 539.97 336.93 540.29 338.84 539.56C345.63 536.95 352.29 533.99 359 531.16C360.87 531.7 363.14 533.22 364.56 532.64C374.1 528.77 384.11 528.38 393.96 529.37C403.81 530.36 413.56 532.49 422.15 538.17C431.008 544.144 438.214 552.258 443.1 561.76C450.63 575.94 457.1 590.66 464.17 605.11C464.75 606.31 466.03 607.17 466.98 608.19C467.2 622.38 465.78 636.26 460.12 649.52C457.45 655.78 458.94 659.78 464.43 663.81C467.64 666.16 470.9 668.43 474.19 670.66C478.85 673.83 484.29 673.25 489.07 668.84C487.831 667.571 486.519 666.376 485.14 665.26C480.97 662.26 476.62 659.5 472.57 656.34C471.47 655.48 470.26 653.12 470.69 652.17C477.89 636.25 477.74 619.29 477.94 602.41C478 597.13 477.14 591.85 477.06 586.56C476.81 571.3 473.35 556.71 467.84 542.56C467.12 540.72 464.68 539.56 463 538.12ZM519.87 508.05C519.87 516.64 526.87 523.51 536.59 523.76C542.39 523.91 548.21 523.29 554.02 523.03C574.41 522.11 594.74 522.92 614.23 529.33C625.67 533.09 636.42 538.9 647.59 543.55C649.42 544.32 651.77 543.83 653.88 543.92C653.854 542.131 653.653 540.349 653.28 538.6C650.61 530.09 643.57 525.25 637.06 520.17C623.72 509.76 609.88 500.06 592.06 499.42C580.26 499 568.44 499.33 556.63 499.34C547.31 499.34 537.99 499.15 528.63 499.46C522.69 499.62 519.92 502.68 519.9 508.01L519.87 508.05ZM385.65 570.7C386.45 577.13 386.89 583.63 388.14 589.97C390.33 601.11 399.55 608.72 409.83 608.48C420.97 608.23 430.49 600.48 431.83 589.14C433.25 577.51 432.27 565.85 427.47 554.92C423.98 546.98 415.84 542.65 407.23 543.21C393.14 544.12 383.5 558.71 385.65 570.7ZM576.81 544.05C567.81 543.94 558.81 548.89 556.62 557.52C553.934 567.947 552.48 578.654 552.29 589.42C552.19 599.62 561.62 607.89 571.76 609.04C581.66 610.16 591.82 604.65 594.31 594.75C596.8 584.85 598.42 574.43 598.05 564.32C597.59 551.9 588.27 544.2 576.81 544.05V544.05ZM495.35 667.9C499.19 669.62 509.61 668.29 511.02 666.21C511.369 665.609 511.574 664.934 511.619 664.241C511.664 663.547 511.548 662.852 511.28 662.21C509.43 658.98 506.55 658.04 503.44 660.48C500.75 662.6 498.37 665.12 495.35 667.9Z" fill="#F8BF97"/>
<path d="M504.09 436.78C489.56 440.16 452.26 424.05 440.51 409.78C460.8 420.85 481.7 430.51 504.09 436.78Z" fill="#E5B28E"/>
<path d="M352.83 254.01C353.97 248.84 354.51 244.54 355.96 240.58C356.66 238.66 358.84 236.89 360.78 235.95C361.92 235.4 364.57 236.14 365.35 237.19C365.838 237.972 366.165 238.844 366.311 239.754C366.457 240.664 366.419 241.594 366.2 242.49C365.112 246.651 363.632 250.699 361.78 254.58C360.91 256.37 358.69 257.5 357.08 258.93L352.83 254.01Z" fill="#79746F"/>
<path d="M793 363.46C793 364.46 793.31 365.59 792.93 366.46C792.32 367.79 791.35 369.8 790.37 369.89C789.597 369.866 788.842 369.648 788.176 369.254C787.51 368.861 786.954 368.306 786.56 367.64C785 363.645 783.857 359.5 783.15 355.27C782.93 353.83 784.78 350.75 785.69 350.75C787.42 350.75 790 352 790.69 353.47C792.17 356.47 792.69 360.03 793.56 363.35L793 363.46Z" fill="#78736E"/>
<path d="M366.48 255.38C367.48 251.52 368.02 248.38 369.21 245.55C369.66 244.47 371.62 243.5 372.91 243.49C373.6 243.49 375.01 245.67 374.91 246.74C374.601 249.842 373.902 252.893 372.83 255.82C372.23 257.42 370.51 258.59 369.3 259.95L366.48 255.38Z" fill="#76716C"/>
<path d="M774.13 371.41L779.97 365.17C781.32 366.9 783.97 368.84 783.75 370.31C783.31 373 781.15 375.41 779.75 377.94C778.13 376.12 776.54 374.22 774.13 371.41Z" fill="#77726D"/>
<path d="M776.87 378.24L770.87 384.77C769.62 383.07 767.58 381.49 767.29 379.64C766.87 376.99 767.97 373.95 771.47 374.25C773 374.38 774.33 376.3 776.87 378.24Z" fill="#76716C"/>
<path d="M644.06 466.05L646.95 467.77L645.95 468.97L643.9 466.21L644.06 466.05Z" fill="#746459"/>
<path d="M649 470.12L650.54 471.34L650.21 471.66C649.81 471.15 649.4 470.66 649 470.12V470.12Z" fill="#746459"/>
<path d="M649 470.12L648.55 469.71C648.64 469.71 648.77 469.71 648.83 469.77C648.904 469.877 648.962 469.995 649 470.12V470.12Z" fill="#746459"/>
<path d="M643.08 465.03L644.08 466.03L643.92 466.19L642.92 465.19L643.08 465.03Z" fill="#746459"/>
<path d="M642.86 465.24L642.47 464.65L643.08 465.03L642.86 465.24Z" fill="#746459"/>
<path d="M640.21 462.9L640.71 463.5L639.82 463.29L640.21 462.9Z" fill="#746459"/>
<path d="M639.82 463.29L638.82 462.29L639.14 461.96L640.14 462.96L639.82 463.29Z" fill="#746459"/>
<path d="M638.84 462.27L637.84 461.27L638.14 460.97L639.14 461.97L638.84 462.27Z" fill="#746459"/>
<path d="M637.85 461.26L636.85 460.26L637.13 459.99L638.13 460.99L637.85 461.26Z" fill="#746459"/>
<path d="M636.12 458.99L637.12 459.99L636.84 460.26L635.84 459.26L636.12 458.99Z" fill="#746459"/>
<path d="M635.88 459.22L634.94 458.17L635.06 458.04C635.41 458.36 635.76 458.68 636.12 458.99L635.88 459.22Z" fill="#746459"/>
<path d="M634.94 458.17L634 457.12L635.06 458.05L634.94 458.17Z" fill="#746459"/>
<path d="M634 457.12L633.59 456.68C633.68 456.68 633.81 456.68 633.85 456.77C633.922 456.876 633.973 456.995 634 457.12V457.12Z" fill="#746459"/>
<path d="M538 851.12C532.13 851 526.08 851.78 520.43 850.6C499.89 846.33 482.52 835.69 466.06 822.99C458.41 817.08 450.86 811.32 444.84 803.72C444.51 803.3 443.63 803.31 443 803.12V794.73C450.14 797.18 456.47 799.36 462.82 801.51C464.53 802.09 466.24 802.95 467.99 803.06C475.93 803.53 483.9 803.73 491.85 804.13C503.85 804.74 515.08 800.99 526.48 798.13C528.34 797.67 530.25 797.38 532.48 796.95C532.752 798.239 532.929 799.545 533.01 800.86C532.48 817.84 532.81 834.72 538 851.12Z" fill="#F3B68B"/>
<path d="M519.9 508.01C519.9 502.68 522.69 499.62 528.76 499.42C538.07 499.11 547.39 499.3 556.76 499.3C568.57 499.3 580.39 498.96 592.19 499.38C609.96 500.02 623.8 509.72 637.19 520.13C643.7 525.21 650.74 530.05 653.41 538.56C653.783 540.31 653.984 542.091 654.01 543.88C651.9 543.79 649.55 544.28 647.72 543.51C636.55 538.86 625.8 533.05 614.36 529.29C594.87 522.88 574.54 522.07 554.15 522.99C548.34 523.25 542.52 523.87 536.72 523.72C526.92 523.47 519.87 516.6 519.9 508.01Z" fill="#292522"/>
<path d="M359 531.12C352.29 533.95 345.63 536.91 338.84 539.52C336.93 540.25 334.61 539.93 332.49 540.1C332.71 538.05 332.25 535.53 333.29 534.05C336.38 529.64 339.49 524.93 343.61 521.6C355.56 511.97 368.16 502.68 383.47 499.71C393.47 497.77 403.96 498.46 414.22 498.61C426.85 498.78 439.48 499.61 452.1 500.16C453.43 500.22 454.77 500.16 456.1 500.31C460.82 500.73 465.68 501.13 467.37 506.71C468.71 511.11 465.65 518.01 461.19 521.03C459.54 522.13 457.73 523.03 456 523.96C451.7 524.08 447.32 524.76 443.11 524.21C425.927 521.936 408.54 521.644 391.29 523.34C380.16 524.44 369.25 526.47 359 531.12Z" fill="#292522"/>
<path d="M385.65 570.7C383.5 558.7 393.14 544.12 407.26 543.21C415.87 542.65 424.01 546.98 427.5 554.92C432.3 565.85 433.28 577.51 431.86 589.14C430.49 600.46 420.97 608.23 409.86 608.48C399.58 608.72 390.36 601.11 388.17 589.97C386.89 583.63 386.45 577.12 385.65 570.7Z" fill="#272421"/>
<path d="M576.81 544.05C588.27 544.2 597.59 551.9 598.05 564.32C598.42 574.43 596.79 584.88 594.31 594.75C591.83 604.62 581.66 610.12 571.76 609.04C561.62 607.89 552.19 599.62 552.29 589.42C552.48 578.654 553.934 567.947 556.62 557.52C558.8 548.89 567.81 543.94 576.81 544.05Z" fill="#272421"/>
<path d="M541 719.12C539.38 730.27 533.55 738.12 523.47 743.45C505.83 752.76 487.2 754 468.47 749.45C453.29 745.8 442.28 736.21 437.88 720.45C440.32 720.64 442.77 720.68 445.18 721.04C456.13 722.65 467.02 725.04 478.03 725.88C499.38 727.49 520.39 724.68 541 719.12Z" fill="#DD9887"/>
<path d="M359 531.12C369.26 526.47 380.17 524.44 391.28 523.34C408.53 521.644 425.917 521.936 443.1 524.21C447.31 524.76 451.69 524.08 455.99 523.96L463 538.12C457.24 539.38 455.86 541.94 458 547.29C459.06 549.9 460.22 552.48 461.05 555.17C466.38 572.46 467.15 590.27 466.92 608.17C465.92 607.17 464.69 606.29 464.11 605.09C457.11 590.64 450.57 575.92 443.04 561.74C438.172 552.233 430.984 544.109 422.14 538.12C413.55 532.44 403.78 530.3 393.95 529.32C384.12 528.34 374.09 528.72 364.55 532.59C363.13 533.18 360.86 531.66 359 531.12Z" fill="#F0B58A"/>
<path d="M467 608.12C467.23 590.2 466.46 572.39 461.13 555.12C460.3 552.43 459.13 549.85 458.08 547.24C455.92 541.89 457.3 539.33 463.08 538.07C464.73 539.55 467.17 540.71 467.88 542.55C473.39 556.66 476.88 571.25 477.1 586.55C477.18 591.84 478.04 597.12 477.98 602.4C477.78 619.28 477.93 636.24 470.73 652.16C470.3 653.16 471.51 655.47 472.61 656.33C476.66 659.49 481.01 662.24 485.18 665.25C486.559 666.366 487.871 667.561 489.11 668.83C484.33 673.24 478.89 673.83 474.23 670.65C470.94 668.42 467.68 666.15 464.47 663.8C458.98 659.8 457.47 655.8 460.16 649.51C465.77 636.22 467.19 622.34 467 608.12Z" fill="#F1AF7F"/>
<path d="M441 713.12C446.41 706.41 454.06 702.81 462 701.58C480.36 698.74 499 698.24 517.24 702.45C524.87 704.21 531.8 709.04 539.06 712.45C536.4 713.33 533.78 714.36 531.06 715.07C509.28 720.76 487.13 721.16 464.96 718.83C456.83 717.98 449 715.12 441 713.12Z" fill="#DD9887"/>
<path d="M441 713.12C449 715.12 456.85 718 464.95 718.85C487.1 721.12 509.25 720.76 531 715.12C533.7 714.41 536.32 713.38 539 712.5C540.32 711.5 541.61 710.38 543 709.4C545.75 707.4 548.34 704.88 551.42 703.82C553.11 703.24 556.42 704.63 557.62 706.2C558.62 707.53 558.5 710.82 557.54 712.46C556.562 714.302 555.089 715.835 553.287 716.884C551.485 717.934 549.425 718.459 547.34 718.4C545.226 718.508 543.124 718.776 541.05 719.2C520.4 724.73 499.39 727.54 478.05 725.98C467.05 725.17 456.15 722.75 445.2 721.14C442.79 720.78 440.34 720.74 437.9 720.55C434.9 720.33 431.83 720.55 429.05 719.73C426.416 718.829 423.996 717.396 421.94 715.52C419.04 712.99 417.77 709.58 420.81 706.4C423.52 703.56 426.81 704.25 429.75 706.47C432.13 708.25 434.45 710.12 436.94 711.73C438.234 712.352 439.597 712.818 441 713.12V713.12Z" fill="#B86A57"/>
<path d="M251 581.12C246.13 582.7 245.2 582.12 245 577.52C244.63 568.76 245.25 560.2 250.85 552.9C261.15 539.45 278.53 541.45 286.45 557.15C291.1 566.38 292.35 576.46 291.93 586.68C291.74 591.33 286.93 593.59 282.75 591.27C280.75 590.14 278.88 588.68 276.83 587.58C273.61 585.86 270.65 587.01 270.19 590.52C269.59 595.18 269.78 599.76 273.7 603.42C276.7 606.23 279.34 609.42 281.99 612.3C274.51 614.96 264.39 607.03 264.15 597.3C264.04 592.95 265.33 588.56 265.99 584.18C272.63 576.4 278.99 581.73 285.29 585.18C286.7 577.61 283.29 562.41 279.29 557.03C274.01 550.03 266.29 548.03 260.21 552.72C256 555.96 252.21 559.88 251.91 565.72C251.61 570.853 251.307 575.987 251 581.12Z" fill="#F1AF7F"/>
<path d="M251 581.12C251.313 576 251.62 570.877 251.92 565.75C252.26 559.87 256.01 555.95 260.22 552.75C266.33 548.05 274.02 550.01 279.3 557.06C283.3 562.44 286.7 577.64 285.3 585.21C279 581.72 272.64 576.39 266 584.21L251 581.12Z" fill="#F3B68B"/>
<path d="M725 592.12C731.07 596.31 731.82 602.31 730.59 608.89C729.36 615.47 726.25 620.4 718.71 622.15C720.33 618.15 721.953 614.13 723.58 610.09C724.01 609.01 724.97 607.87 724.82 606.89C724.37 604.08 723.47 601.35 722.75 598.59C720.49 599.59 717.75 600.14 716.08 601.77C712.91 604.88 710.5 608.77 707.48 612.02C706.27 613.32 703.48 615.02 702.79 614.56C701.12 613.43 699.34 611.16 699.2 609.24C698.03 593.38 701.43 578.53 712.93 567.1C723 557.05 731 553.37 746 560.67C747.533 561.3 748.864 562.338 749.85 563.67C750.53 564.83 750.17 566.67 750.27 568.13C748.95 568.07 747.62 568.13 746.27 567.93C745.489 567.733 744.729 567.462 744 567.12C739.82 563.68 735.12 562.06 729.81 563.72C717.05 567.72 710.81 577.63 707.17 589.53C705.88 593.7 705.65 598.2 704.94 602.53L706.4 603.16C711.2 597.06 715.9 590.71 725 592.12Z" fill="#F1AF7F"/>
<path d="M725 592.12C715.94 590.68 711.24 597.03 706.44 603.19L704.98 602.56C705.69 598.2 705.92 593.7 707.21 589.56C710.87 577.66 717.09 567.73 729.85 563.75C735.16 562.09 739.85 563.75 744.04 567.15C739.92 571.43 735.43 575.44 731.78 580.15C728.93 583.69 727.18 588.12 725 592.12Z" fill="#F3B68B"/>
<path d="M495.35 667.9C498.35 665.1 500.75 662.6 503.44 660.5C506.55 658.06 509.44 659 511.28 662.23C511.548 662.872 511.664 663.567 511.619 664.26C511.574 664.954 511.369 665.628 511.02 666.23C509.61 668.29 499.19 669.62 495.35 667.9Z" fill="#F1AF7F"/>
</g>
</g>
<defs>
<clipPath id="clip0">
<rect width="1000" height="1000" fill="white"/>
</clipPath>
<clipPath id="clip1">
<rect width="608.76" height="811.12" fill="white" transform="translate(196 189)"/>
</clipPath>
</defs>
</svg>
