<svg width="1000" height="1000" viewBox="0 0 1000 1000" fill="none" xmlns="http://www.w3.org/2000/svg">
<g clip-path="url(#clip0)">
<path d="M453 1000C325 1000 197 1000 69 1000C74.95 990.88 79.99 980.99 87.02 972.8C107.25 949.22 132.87 932.9 161.76 922.08C191.61 910.9 221.75 900.51 251.93 890.25C269.21 884.38 286.79 879.41 304.26 874.12C325.03 867.83 345.23 860.43 362.33 846.43C367.32 842.35 372.34 838.19 377.85 834.89C384.46 830.93 388.58 825.23 392.16 818.73C403.17 798.73 405.19 776.65 405.76 754.65C406.45 727.89 405.33 701.08 405 674.3C404.99 673.8 404.99 673.3 404.95 672.8C403.64 653.81 402.55 634.79 400.92 615.83C399.83 603.16 398.12 590.54 396.42 577.93C395.17 568.6 393.49 559.33 392.01 550.03C393.13 550.32 394.23 550.75 395.37 550.89C413.9 553.08 430.99 559.76 447.57 567.86C468.96 578.31 488.33 592.01 507.43 606.07C514.2 611.05 520.5 616.66 527.01 621.99C527.85 625.35 528.34 628.86 529.59 632.06C540 658.79 551.04 685.29 560.91 712.22C568 731.58 578.05 750.21 579.12 771.34C579.69 782.52 579.52 793.86 578.27 804.97C577.26 813.92 574.38 822.7 571.9 831.44C567.22 847.93 561.2 864 552.44 878.74C536.21 906.04 516.05 930.49 495.11 954.23C483.14 967.8 470.25 980.55 457.85 993.73C456.67 994.98 455.98 996.7 455.07 998.2C454.78 998.48 454.5 998.76 454.21 999.05C453.8 999.36 453.4 999.68 453 1000ZM544.98 785.99C544.22 784.37 543.47 782.74 542.71 781.12C541.18 782.33 538.93 783.24 538.25 784.82C535.16 791.94 529.93 796.64 522.53 798.11C516.83 799.24 511.62 800.32 508.52 805.86C508.1 806.62 506.95 807.23 506.04 807.4C499.57 808.61 493.03 810.57 486.62 807.25C483.45 805.61 481.9 806.28 482.02 809.98C482.78 811.52 483.19 813.43 484.36 814.53C491.74 821.45 509.25 820.12 514.72 815.38C518.62 812 522.09 809.82 527.64 809.32C536.32 808.54 545.72 797.17 546.67 788.28C546.75 787.59 545.58 786.76 544.98 785.99ZM187.98 948.99C187.42 949.29 186.45 949.5 186.37 949.9C184.76 957.77 195.2 968.1 203.2 966.35C207.32 965.45 211.28 963.82 215.4 962.5C223.16 972.68 233.95 976.79 246.45 976.87C248.31 976.88 250.17 975.06 252.03 974.09C254.44 973.73 258.23 974.98 257.82 970.71C257.43 966.71 253.83 968.33 251.39 968.13C249 967.94 246.46 968.23 244.23 967.53C234.65 964.55 227.67 957.86 221.36 950.49C217.53 946.01 215.86 945.45 211.86 949.74C204.66 957.45 196.74 953.65 192.46 946.97C191.69 945.77 190.49 944.83 189.49 943.78C189.08 943.95 188.66 944.13 188.25 944.3C188.15 945.85 188.06 947.42 187.98 948.99Z" fill="#B56754"/>
<path d="M742.84 262.94C742.65 262.02 742.47 261.1 742.15 259.54C758.89 259.6 774.65 263.63 790.1 269.48C796.73 271.99 801.43 276.03 805.45 282.07C821.37 306.01 830.49 332.97 840.9 359.38C843.38 365.68 845.68 372.06 848.06 378.4C848.25 379.7 848.32 381.04 848.66 382.3C857.56 415.78 867.03 449.12 875.26 482.76C885.37 524.07 893.06 565.89 898.01 608.16C900.53 629.67 903.23 651.19 904.81 672.78C906.26 692.64 906.41 712.59 906.96 732.51C907.2 741.33 906.94 750.17 907.06 759C907.08 760.7 907.8 762.4 908.19 764.1C907.07 786.7 906.85 809.39 904.61 831.88C901.5 863.16 897.47 894.39 892.7 925.46C889.03 949.35 881.12 972.24 872.46 994.8C871.82 996.47 871.48 998.26 871 999.99C867 999.99 863 999.99 859 999.99C860.37 995.92 861.52 991.76 863.14 987.79C876.13 955.82 882.45 922.39 884.92 888.16C886.21 870.3 887.11 852.41 887.9 834.53C888.76 815.12 890.01 795.69 889.79 776.29C889.45 746.74 888.08 717.21 886.94 687.67C886.58 678.24 885.79 668.81 884.81 659.42C883.4 645.93 881.74 632.46 880 619.01C877.92 602.93 875.72 586.87 873.4 570.83C871.72 559.22 869.78 547.65 867.96 536.06C866.29 524.67 864.62 513.29 862.94 501.9C862.68 508.88 863.41 515.73 864.37 522.55C865.06 527.4 866.06 532.21 866.92 537.03C866.96 541.03 866.74 545.05 867.08 549.02C868.61 566.66 870.8 584.26 871.82 601.93C873.03 622.82 873.82 643.76 873.8 664.68C873.78 688.43 873.22 712.21 871.87 735.92C870.63 757.72 868.63 779.52 865.88 801.19C862.79 825.64 859.41 850.12 854.5 874.25C847.92 906.54 839.77 938.51 832.23 970.6C829.92 980.43 827.41 990.21 824.99 1000.01C821.32 1000.01 817.66 1000.01 813.99 1000.01C814.15 998.37 814.12 996.67 814.51 995.08C821.72 966.29 829.29 937.58 836.18 908.71C847.8 859.99 855.23 810.55 859.79 760.71C861.65 740.4 862.42 719.96 862.81 699.56C863.16 680.78 862.39 661.97 862 643.18C861.82 634.55 861.53 625.91 861.01 617.29C859.77 596.44 858.55 575.58 856.95 554.75C855.91 541.22 854.56 527.69 852.74 514.24C850.5 497.68 847.63 481.21 845.03 464.71C840.89 438.47 835.17 412.6 826.9 387.33C825.73 383.77 824.18 380.33 822.8 376.84C823.98 390.56 825.81 403.99 827.02 417.48C828.88 438.1 831.17 458.74 831.71 479.42C832.35 504.02 831.86 528.69 830.84 553.28C829.99 573.95 828.34 594.65 825.84 615.19C822.81 640.15 819.28 665.1 814.64 689.81C804.77 742.36 791.62 794.19 774.26 844.73C759.32 888.23 742.15 930.97 725.94 974.03C722.67 982.71 719.29 991.35 715.96 1000C711.96 1000 707.96 1000 703.96 1000C707.29 991.68 710.68 983.38 713.94 975.04C727.46 940.38 741.6 905.94 754.27 870.97C769.78 828.19 782.33 784.46 792.77 740.15C802.5 698.86 810.82 657.31 814.98 615.04C817.22 592.3 820.16 569.53 820.62 546.73C821.21 517.01 820.11 487.22 818.86 457.5C818.03 437.83 815.76 418.21 813.87 398.6C813.27 392.37 811.84 386.21 810.8 380.02C810.74 388.87 811.51 397.59 812.05 406.33C813.39 428.17 815.12 450.01 815.74 471.88C816.1 484.77 815.09 497.76 813.91 510.63C812.38 527.27 810.42 543.88 808.02 560.41C801.86 602.69 788.34 642.71 768.95 680.65C757.84 702.39 745.67 723.62 733.37 744.73C727.38 755 720.87 765.22 713.03 774.08C701.23 787.4 688.04 799.48 675.45 812.11C671.48 816.09 667.56 820.12 663.61 824.12C663.16 823.24 662.55 822.4 662.28 821.46C657.83 805.98 653.43 790.49 649.01 775C650.01 774.47 651.2 774.15 651.99 773.39C671.37 754.67 690.35 735.51 706.04 713.54C718.09 696.68 729.4 679.26 740.36 661.66C745.13 654 748.18 645.26 752.01 637.02C753.07 635.87 754.43 634.88 755.13 633.54C758.58 626.92 762.13 620.33 765.15 613.5C771.18 599.87 777.81 586.4 782.47 572.3C787.85 556 792.42 539.26 795.39 522.37C798.22 506.31 799.06 489.83 799.78 473.49C800.2 464.13 799.18 454.61 797.88 445.29C795.15 425.67 792.54 405.99 788.5 386.62C784.46 367.3 777.65 348.75 768.66 331.05C766.48 326.76 764.63 321.91 764.23 317.19C763.68 310.64 765.25 303.93 764.84 297.36C764.21 287.22 762.7 276.98 754.99 269.41C751.77 266.23 749.21 260.66 742.84 262.94ZM809.76 373.85C809.53 373.88 809.3 373.91 809.07 373.93C809.17 374.63 809.28 375.33 809.38 376.02C809.57 376 809.76 375.97 809.94 375.95C809.88 375.26 809.82 374.56 809.76 373.85Z" fill="#B66754"/>
<path d="M649.04 774.99C653.45 790.48 657.86 805.97 662.31 821.45C662.58 822.39 663.19 823.22 663.64 824.11C664.66 829.76 665.68 835.41 666.69 841.06C665.87 841.17 665.01 841.14 664.25 841.41C653.07 845.31 641.54 846.52 629.77 846.35C628.27 846.33 626.75 848.28 625.24 849.32C626.56 850.55 627.73 852.6 629.23 852.87C642.51 855.21 655.54 854.24 668.11 849.02C668.4 849.77 668.84 850.51 668.95 851.28C671.74 871.16 675.06 890.99 677.11 910.95C679.34 932.68 678.43 954.45 674.85 976.06C661.84 975.85 648.83 975.56 635.81 975.54C634 975.54 632.19 976.87 630.38 977.58C631.39 979.02 632.21 981.53 633.45 981.75C646.57 984.12 659.65 987.41 673.18 985.17C672.46 990.12 671.73 995.06 671.01 1000.01C598.68 1000.01 526.34 1000.01 454.01 1000.01C454.05 999.69 454.12 999.37 454.21 999.05C454.5 998.77 454.78 998.49 455.07 998.2C458.22 995.86 461.71 993.86 464.48 991.12C482.77 972.98 501.82 955.5 518.86 936.24C540.06 912.29 557.55 885.57 571.43 856.53C587.95 821.95 591.04 785.76 580.79 749.65C572.38 720.03 559.36 691.72 548.46 662.8C544.19 651.47 540.12 640.07 535.96 628.7C537.94 630.21 539.91 631.73 541.89 633.23C556.85 644.52 571.72 655.94 586.84 667.01C591.18 670.19 596.24 672.37 600.97 675.01C604.09 680.68 607.2 686.35 610.32 692.02C604.56 692.7 598.78 693.2 593.08 694.19C591.65 694.44 590.48 696.26 589.2 697.35C590.55 698.55 591.89 700.78 593.24 700.79C600.52 700.81 607.8 700.27 615.09 699.92C623.43 717.21 631.76 734.49 640.12 751.77C641.04 753.67 642.12 755.5 643.13 757.36C645.08 763.24 647.06 769.12 649.04 774.99Z" fill="#E8AD66"/>
<path d="M716 1000C719.33 991.34 722.71 982.71 725.98 974.03C742.19 930.96 759.36 888.23 774.3 844.73C791.66 794.18 804.81 742.36 814.68 689.81C819.32 665.1 822.85 640.15 825.88 615.19C828.37 594.65 830.02 573.96 830.88 553.28C831.9 528.68 832.38 504.02 831.75 479.42C831.21 458.75 828.92 438.11 827.06 417.48C825.84 403.99 824.01 390.56 822.84 376.84C824.22 380.34 825.77 383.77 826.94 387.33C835.21 412.6 840.93 438.47 845.07 464.71C847.67 481.22 850.55 497.69 852.78 514.24C854.6 527.69 855.95 541.22 856.99 554.75C858.59 575.58 859.8 596.44 861.05 617.29C861.56 625.91 861.86 634.54 862.04 643.18C862.43 661.97 863.21 680.78 862.85 699.56C862.47 719.96 861.69 740.4 859.83 760.71C855.26 810.55 847.84 859.99 836.22 908.71C829.33 937.58 821.77 966.29 814.55 995.08C814.15 996.67 814.19 998.36 814.03 1000.01C781.33 1000 748.67 1000 716 1000Z" fill="#C64437"/>
<path d="M671 1000C671.72 995.05 672.45 990.11 673.17 985.16C673.72 982.12 674.28 979.08 674.83 976.05C678.41 954.44 679.33 932.67 677.09 910.94C675.04 890.98 671.72 871.15 668.93 851.27C668.82 850.49 668.38 849.76 668.09 849.01C667.62 846.36 667.15 843.71 666.68 841.06C665.66 835.41 664.65 829.76 663.63 824.11C667.57 820.11 671.5 816.08 675.47 812.1C688.06 799.48 701.24 787.39 713.05 774.07C720.89 765.22 727.4 754.99 733.39 744.72C745.69 723.62 757.86 702.39 768.97 680.64C788.36 642.7 801.88 602.68 808.04 560.4C810.45 543.87 812.41 527.25 813.93 510.62C815.11 497.75 816.12 484.76 815.76 471.87C815.14 450 813.42 428.17 812.07 406.32C811.53 397.58 810.76 388.86 810.82 380.01C811.87 386.2 813.29 392.36 813.89 398.59C815.77 418.21 818.04 437.82 818.88 457.49C820.14 487.21 821.24 517 820.64 546.72C820.19 569.52 817.24 592.29 815 615.03C810.84 657.3 802.52 698.85 792.79 740.14C782.35 784.45 769.8 828.18 754.29 870.96C741.61 905.93 727.48 940.37 713.96 975.03C710.7 983.38 707.31 991.67 703.98 999.99C693 1000 682 1000 671 1000Z" fill="#C64437"/>
<path d="M600.96 675.01C596.23 672.37 591.17 670.19 586.83 667.01C571.71 655.93 556.84 644.52 541.88 633.23C539.89 631.73 537.93 630.21 535.95 628.7C532.97 626.46 529.99 624.22 527.01 621.98C520.5 616.66 514.2 611.04 507.43 606.06C488.33 592 468.96 578.3 447.57 567.85C430.99 559.75 413.9 553.06 395.37 550.88C394.23 550.75 393.13 550.32 392.01 550.02C386.89 549.68 381.77 549.38 376.65 548.98C373.3 548.72 372.78 550.35 373.19 553.26C376.83 579.27 381.11 605.21 383.74 631.32C385.87 652.57 386.24 674.01 386.91 695.39C387.37 710.13 387.18 724.89 386.96 739.63C386.78 751.69 387.17 763.64 384.48 775.77C381.99 787 378.53 797.14 372.27 806.82C358.22 828.55 339 843.17 314.52 850.96C290.49 858.61 266.27 865.67 242.3 873.48C218.95 881.09 195.69 889.02 172.59 897.38C152.42 904.68 132.78 913.3 114.55 924.78C97.15 935.74 81.28 948.76 68.9 965.13C60.77 975.87 54.89 988.32 48 1000C44 1000 40 1000 36 1000C48.47 971.21 68.71 948.9 93.88 930.73C96 929.2 97.57 928.21 96.23 924.85C82.21 889.75 73.33 853.29 68.32 815.88C63.19 777.53 60.53 739.04 61.98 700.3C63.66 655.55 71 611.66 80.47 567.97C96.9 492.14 127.8 422.31 167.3 356C180.75 333.43 194.39 310.96 208.68 288.92C214.33 280.21 222.02 272.81 228.78 264.82C228.49 266.06 228.53 267.5 227.88 268.5C213.68 290.14 199.13 311.57 185.2 333.38C167.53 361.05 152.56 390.26 139.57 420.35C123.43 457.73 111.74 496.71 102.09 536.23C92.54 575.31 85.67 614.9 81.96 655C80.29 673.12 78.15 691.22 77.17 709.38C76.38 724.09 76.73 738.87 77.05 753.62C77.43 770.87 77.98 788.14 79.1 805.36C79.91 817.89 80.9 830.52 83.34 842.8C87.39 863.25 92.51 883.49 97.5 903.74C99.11 910.26 101.74 916.53 104.2 923.82C109.99 920.24 114.99 917.13 120 914.03C121.01 913.68 122.01 913.33 123.02 912.98C136.76 907.29 150.52 901.63 164.24 895.88C168.6 894.05 172.85 891.97 177.14 890.01C180.45 888.67 183.76 887.34 187.08 886C189.17 885.62 191.35 885.48 193.35 884.81C214.16 877.89 234.95 870.89 255.74 863.89C267.52 859.93 279.29 855.95 291.06 851.97C294.37 850.67 297.68 849.37 300.99 848.07C301.81 847.95 302.71 848.02 303.43 847.69C316.82 841.64 330.99 837.32 343.1 828.45C350.43 823.08 357.16 817.49 360.99 809.04C361.4 808.76 361.93 808.56 362.19 808.18C373.71 790.85 381.57 772.31 380.97 751C380.99 740.35 381 729.7 381.02 719.05C380.38 685.58 380.23 652.1 378.93 618.66C378.01 594.92 370.86 572.22 364.67 548.92C356.72 550.04 349.46 552.23 343.31 557.53C342.24 558.45 340.65 558.76 339.3 559.36C339.72 557.78 339.64 555.36 340.64 554.75C345.85 551.6 351.28 548.8 356.75 546.11C358.64 545.18 360.85 544.9 363.29 544.22C362.22 537.88 361.06 531.71 360.15 525.51C357.19 505.23 359.06 484.94 360.21 464.67C361.83 436.02 365.51 407.64 373.24 379.94C380.42 354.21 394.89 334.07 419.32 321.98C421.09 321.11 423.04 320.62 424.91 319.96C425.67 320.07 426.44 320.18 427.75 320.37C409.28 329.21 396.66 342.91 387.69 360.45C380.08 375.32 374.87 390.92 371.42 407.19C367.15 427.28 363.46 447.46 364.04 468.11C364.41 481.18 364.92 494.27 366.11 507.29C367.22 519.41 369.31 531.44 371.03 544C377.77 544 383.88 544 390 544C395.99 545.17 402.03 546.15 407.96 547.55C440.27 555.16 468.19 571.73 494.97 590.54C504.05 596.92 512.98 603.53 521.98 610.03L521.97 610.01C522.31 610.35 522.65 610.69 522.98 611.02C525.71 612.99 528.44 614.97 531.17 616.94C531.98 617.98 532.61 619.25 533.62 620.04C550.56 633.31 567.48 646.6 584.57 659.67C587.23 661.71 590.7 662.68 593.8 664.15L593.86 664.13C594.22 664.48 594.57 664.83 594.93 665.18C601.59 667.46 608.11 670.56 614.96 671.79C622.1 673.07 629.14 671.42 634 665C634.99 661.33 635.98 657.66 636.97 653.99C638.15 653.44 639.32 652.88 640.5 652.33C641.25 654.02 642.61 655.71 642.59 657.39C642.56 659.91 641.55 662.41 640.96 664.93C633.08 676.89 621.71 678.79 608.73 676.17C606.17 675.65 603.55 675.39 600.96 675.01Z" fill="#A25441"/>
<path d="M48 1000C54.89 988.32 60.77 975.87 68.9 965.12C81.28 948.75 97.15 935.74 114.55 924.77C132.77 913.29 152.41 904.66 172.59 897.37C195.69 889.02 218.95 881.08 242.3 873.47C266.27 865.66 290.49 858.6 314.52 850.95C339 843.16 358.21 828.53 372.27 806.81C378.53 797.13 381.99 787 384.48 775.76C387.17 763.63 386.79 751.69 386.96 739.62C387.18 724.87 387.37 710.11 386.91 695.38C386.24 674.01 385.88 652.56 383.74 631.31C381.12 605.2 376.83 579.25 373.19 553.25C372.78 550.34 373.31 548.71 376.65 548.97C381.76 549.37 386.89 549.67 392.01 550.01C393.5 559.31 395.17 568.58 396.42 577.91C398.11 590.52 399.83 603.14 400.92 615.81C402.55 634.78 403.63 653.79 404.95 672.78C404.98 673.28 404.99 673.78 405 674.28C405.34 701.07 406.45 727.87 405.76 754.63C405.2 776.63 403.17 798.71 392.16 818.71C388.58 825.21 384.46 830.91 377.85 834.87C372.35 838.17 367.32 842.32 362.33 846.41C345.23 860.41 325.03 867.81 304.26 874.1C286.79 879.39 269.2 884.36 251.93 890.23C221.75 900.49 191.6 910.88 161.76 922.06C132.87 932.88 107.25 949.21 87.02 972.78C79.99 980.97 74.95 990.86 69 999.98C62 1000 55 1000 48 1000Z" fill="#B6604A"/>
<path d="M825 1000C827.42 990.2 829.93 980.42 832.24 970.59C839.78 938.5 847.93 906.53 854.51 874.24C859.43 850.11 862.8 825.63 865.89 801.18C868.63 779.51 870.64 757.71 871.88 735.91C873.23 712.2 873.79 688.42 873.81 664.67C873.83 643.75 873.03 622.81 871.83 601.92C870.81 584.25 868.62 566.65 867.09 549.01C866.74 545.04 866.97 541.02 866.93 537.02C867.28 536.69 867.62 536.37 867.97 536.04C869.79 547.63 871.74 559.2 873.41 570.81C875.72 586.85 877.92 602.92 880.01 618.99C881.75 632.44 883.41 645.91 884.82 659.4C885.8 668.79 886.58 678.22 886.95 687.65C888.09 717.18 889.46 746.72 889.8 776.27C890.02 795.68 888.77 815.11 887.91 834.51C887.12 852.4 886.22 870.29 884.93 888.14C882.46 922.38 876.14 955.81 863.15 987.77C861.54 991.74 860.38 995.9 859.01 999.97C847.67 1000 836.33 1000 825 1000Z" fill="#C64437"/>
<path d="M454.2 999.04C454.11 999.35 454.05 999.67 454 1000C453.67 1000 453.33 1000 453 1000C453.4 999.68 453.8 999.36 454.2 999.04Z" fill="#B7614B"/>
<path d="M640.97 664.93C641.56 662.42 642.57 659.91 642.6 657.39C642.62 655.71 641.26 654.02 640.51 652.33C639.33 652.88 638.16 653.44 636.98 653.99C626.46 656.48 618.94 651.03 612.74 643.84C609.12 639.65 606.78 634.27 604.25 629.24C600.68 622.14 597.73 614.71 594.06 607.67C584.28 588.94 570.22 573.8 553.5 561.13C546.68 555.96 539.99 550.27 530.99 549.01C522.53 541.05 514.01 533.15 505.64 525.09C502.66 522.22 500.24 518.77 497.19 516C496.03 514.95 493.81 515.08 492.07 514.68C492.16 516.32 492.05 518.02 492.43 519.59C492.63 520.44 493.75 521.04 494.32 521.86C496.62 525.19 498.86 528.57 501.13 531.93C496.04 533.12 495.16 535.52 497.24 540.61C503.51 555.91 509.89 571.18 515.63 586.68C518.42 594.22 519.91 602.24 521.99 610.04C512.99 603.54 504.07 596.93 494.98 590.55C468.2 571.74 440.28 555.17 407.97 547.56C402.03 546.16 396 545.19 390.01 544.01C388.9 536.16 387.6 528.34 386.71 520.46C385.02 505.52 382.45 490.57 382.33 475.61C382.21 460.81 384.06 445.9 386.11 431.19C389.18 409.13 394.51 387.63 405.1 367.72C414.03 350.93 426.51 339.01 445.71 334.63C449.66 333.73 454.38 329.92 455.95 326.26C459.04 319.09 463.92 313.81 469.05 308.35C475.98 300.98 484.01 298.12 494.25 297.68C506.07 297.17 520.02 307.96 523.44 319.8C525.05 325.38 529.66 327.33 535.12 325C537.07 324.17 539.15 323.15 541.2 323.11C552.64 322.88 564.04 322.99 575.2 326.42C577.96 327.27 581.74 327.16 584.26 325.9C589.76 323.16 594.43 318.54 600.08 316.36C603.77 314.93 609.64 314.9 612.65 316.98C617.32 320.2 620.8 325.47 624 330.38C627.52 335.77 630.8 341.49 633.06 347.48C639.36 364.22 645.07 381.18 651.02 398.05C644.14 409.07 641.96 421.5 641.14 434.06C639.85 453.85 642.97 473.39 646.24 492.84C646.81 496.22 647.89 499.71 649.63 502.63C650.58 504.23 653.38 504.73 655.35 505.73C656.24 503.93 657.82 502.14 657.87 500.31C658 496.21 657.37 492.08 657.05 487.96C661.29 486.81 663.88 484.33 664.09 479.69C664.39 473.13 664.82 466.57 665.2 460.02C666.1 461.09 667.44 462.01 667.83 463.24C670.54 471.9 672.73 480.73 675.69 489.3C681.25 505.37 684.9 521.69 683.99 538.81C683.71 544.08 683.45 549.36 682.91 554.6C682.75 556.13 681.66 557.56 681 559.03C676.39 559.1 675.19 562.25 675.08 565.98C674.91 571.91 675.07 577.85 675.02 583.78C674.99 587.2 676.49 589.06 679.98 589.13C678.96 596.63 678.37 604.23 676.82 611.62C674 625.02 671.59 638.66 662.99 650.02C661.41 650.59 659.84 651.16 658.26 651.72C659.27 653.21 660.24 654.72 661.29 656.16C661.76 656.8 662.39 657.32 662.96 657.89C655.63 660.23 648.3 662.58 640.97 664.93ZM629.02 596.98C634.09 598.67 636.24 597.45 635.92 592.39C635.35 583.17 631.96 574.88 625.51 568.28C623.93 566.66 620.48 566.45 617.91 566.51C617.25 566.53 616.67 570.03 616.05 571.94C615.21 580.58 617.89 588.19 623.38 594.7C624.55 596.06 627.11 596.25 629.02 596.98ZM445.01 488.99C442.77 487.05 440.57 485.06 438.29 483.16C427.61 474.26 421.24 463.69 425.45 449.22C426.72 444.85 424.83 443.74 421 444C417.18 443.11 415.12 444.96 415 449.53C414.51 469.11 421.63 484.84 438.79 495.08C443.12 497.67 448.11 499.23 452.93 500.83C453.9 501.15 456.46 499.69 456.62 498.77C456.87 497.34 456.14 494.97 455.01 494.21C451.91 492.14 448.38 490.69 445.01 488.99ZM508.04 430C499.36 442.48 500.09 451.25 510.68 462.16C512.18 463.71 513.53 465.39 515 466.96C526.79 479.48 536.93 493.54 551.09 503.83C561.99 511.75 566.48 512.13 577.01 503.99C577.35 504.35 577.74 504.67 578.02 505.07C584.29 514.09 590.29 523.23 593.2 534.04C594.02 537.09 595.79 539.7 599.62 538.85C603.34 538.02 603.16 534.98 603 532.08C602.96 531.42 602.96 530.74 602.82 530.09C600.21 517.62 597.68 505.13 594.94 492.69C592.28 480.62 589.04 468.57 580.39 459.3C573.39 451.8 565.61 444.98 557.76 438.34C540.05 423.35 522.15 408.57 504.18 393.9C499.61 390.17 494.57 387 489.53 383.9C488.55 383.3 486.07 383.74 485.29 384.61C484.47 385.52 484.21 387.85 484.8 388.99C488.85 396.77 493.13 404.44 497.47 412.07C500.89 418.1 504.51 424.02 508.04 430Z" fill="#B56754"/>
<path d="M380.97 751.01C381.57 772.32 373.71 790.86 362.19 808.19C361.93 808.57 361.4 808.77 360.99 809.05C360.48 808.63 359.85 808.29 359.49 807.77C348.07 791 337.2 773.99 328.95 755.29C311.95 716.74 297.34 677.4 287.37 636.45C282.47 616.34 277.87 596.1 274.35 575.71C271.32 558.12 269.72 540.25 268.02 522.46C266.34 504.81 264.33 487.11 264.24 469.42C264.1 439.17 265.18 408.91 266.11 378.66C266.37 370.08 267.9 361.55 268.78 352.99C269.56 345.37 270.25 337.73 270.97 330.1C270.52 330.03 270.06 329.97 269.61 329.9C264.73 357.57 259.54 385.19 255.1 412.93C252.41 429.75 250.64 446.73 248.9 463.69C247.29 479.34 245.49 495.03 245.16 510.74C244.31 551.12 244.45 591.51 249.96 631.65C252.62 650.99 254.7 670.47 258.54 689.59C263.98 716.71 270.07 743.75 277.24 770.46C284.26 796.58 292.99 822.24 300.97 848.1C297.66 849.4 294.35 850.7 291.04 852C282.16 822.26 272.4 792.74 264.64 762.71C257.31 734.35 251.43 705.56 246.14 676.73C242.35 656.09 240.09 635.13 238.07 614.22C236.11 593.93 234.33 573.54 234.27 553.18C234.2 527.8 235.59 502.39 237.09 477.03C238.09 460.19 239.79 443.33 242.21 426.63C246.03 400.27 250.25 373.94 255.19 347.76C259.52 324.83 263.21 301.67 271.53 279.66C271.89 278.71 271.58 277.5 271.58 276.41C271.21 276.12 270.84 275.84 270.46 275.55C268.91 277.18 266.96 278.58 265.88 280.47C262.49 286.38 259.22 292.39 256.27 298.53C248.07 315.63 239.9 332.74 232 349.98C218.64 379.16 207.09 409.05 197.19 439.59C182.07 486.23 170.25 533.64 165 582.46C162.66 604.19 161.03 626.05 160.22 647.89C159.58 664.98 160.52 682.14 161.08 699.26C161.43 709.86 162.05 720.48 163.13 731.03C165.18 751.12 167.31 771.2 170.02 791.21C172.49 809.4 175.55 827.53 178.77 845.6C181.18 859.13 184.27 872.54 187.06 886C183.75 887.34 180.44 888.67 177.12 890.01C173.25 871.03 169.06 852.11 165.6 833.06C162.64 816.79 160.23 800.41 158.09 784.01C156.29 770.23 155.07 756.36 153.9 742.51C152.43 725.02 150.33 707.5 150.23 689.98C150.06 661.58 150.84 633.15 152.13 604.77C152.85 589.1 154.52 573.34 157.39 557.93C162.23 531.9 167.85 505.99 174.07 480.26C182.55 445.19 194.6 411.22 208.07 377.76C211.78 368.54 215.36 359.28 219 350.03C219.24 349.66 219.49 349.29 219.72 348.9C219.73 348.89 219.48 348.73 219.35 348.64C219.21 349.08 219.07 349.53 218.94 349.97C218.11 350.68 216.98 351.23 216.49 352.13C211.91 360.43 207.07 368.61 203.02 377.16C193.85 396.54 184.79 415.98 176.22 435.62C161.32 469.78 149.44 505.03 140.03 541.07C127.58 588.73 118.05 636.95 113.97 686.1C112.27 706.58 110.69 727.1 110.16 747.62C109.39 777.85 109.87 808.1 112.97 838.23C114.44 852.55 116 866.86 117.88 881.13C119.29 891.79 121.27 902.37 123 912.98C121.99 913.33 120.99 913.68 119.98 914.03C119.62 911.75 119.44 909.42 118.86 907.2C115.63 894.86 111.54 882.69 109.17 870.19C104.27 844.39 99.66 818.5 96.08 792.49C93.44 773.35 92.03 753.98 91.17 734.66C90.53 720.25 91.2801 705.74 92.0501 691.31C93.01 673.3 94.07 655.26 96.12 637.35C98.27 618.49 101.2 599.69 104.62 581.01C107.47 565.4 110.91 549.85 115.16 534.57C122.84 506.95 130 479.08 139.83 452.21C149.82 424.88 162.25 398.38 174.61 371.98C182.68 354.75 191.99 338.04 201.73 321.68C212.82 303.04 224.69 284.84 236.81 266.84C243.83 256.42 252.04 246.8 259.58 236.72C259.93 236.25 259.01 234.84 258.69 233.87C263.63 228.27 269.48 224.39 276.83 222.23C284.61 219.94 291.85 215.8 299.65 213.66C311.14 210.5 322.91 208.36 334.58 205.89C336.13 205.56 337.81 205.84 339.43 205.84C339.72 206.26 340.02 206.68 340.31 207.1C339.54 207.42 338.77 207.74 338 208.06C337.4 208.62 336.87 209.33 336.17 209.71C306.92 225.53 298.79 258.94 306.38 288.02C307.07 290.66 306.85 293.84 306.09 296.49C303.62 305.1 299.92 313.42 298.12 322.14C293.95 342.36 290.45 362.73 286.98 383.09C283.89 401.23 283.02 419.56 284.02 437.93C284.79 452.14 285.62 466.37 287.05 480.53C288.71 496.97 290.35 513.47 293.28 529.71C296.77 549.06 301.29 568.25 305.97 587.37C313.69 618.93 325.11 649.2 339.7 678.19C349.69 698.05 360.43 717.54 371.13 737.05C373.86 742.01 377.67 746.37 380.97 751.01ZM271.25 327.16C271.44 327.15 271.63 327.14 271.82 327.14C271.77 326.42 271.73 325.69 271.68 324.97C271.53 324.98 271.39 324.98 271.24 324.99C271.25 325.71 271.25 326.44 271.25 327.16Z" fill="#B66754"/>
<path d="M651.01 398.02C645.07 381.15 639.35 364.19 633.05 347.45C630.79 341.45 627.51 335.73 623.99 330.35C620.78 325.44 617.3 320.17 612.64 316.95C609.63 314.87 603.76 314.91 600.07 316.33C594.42 318.52 589.75 323.13 584.25 325.87C581.73 327.13 577.94 327.24 575.19 326.39C564.03 322.96 552.63 322.85 541.19 323.08C539.15 323.12 537.07 324.14 535.11 324.97C529.65 327.3 525.04 325.35 523.43 319.77C520.01 307.92 506.07 297.14 494.24 297.65C484 298.09 475.97 300.95 469.04 308.32C463.91 313.78 459.02 319.06 455.94 326.23C454.36 329.9 449.64 333.7 445.7 334.6C426.49 338.98 414.01 350.9 405.09 367.69C394.5 387.6 389.17 409.1 386.1 431.16C384.05 445.87 382.2 460.78 382.32 475.58C382.44 490.54 385.01 505.5 386.7 520.43C387.59 528.3 388.89 536.13 390 543.98C383.89 543.98 377.77 543.98 371.03 543.98C369.3 531.42 367.22 519.39 366.11 507.27C364.92 494.26 364.41 481.16 364.04 468.09C363.46 447.44 367.15 427.26 371.42 407.17C374.87 390.9 380.09 375.3 387.69 360.43C396.66 342.89 409.28 329.19 427.75 320.35C426.43 320.16 425.67 320.05 424.91 319.94C429.38 318.94 433.81 317.41 438.33 317.06C445.75 316.48 450.92 312.76 455.05 307.02C457.14 305.14 459.03 302.95 461.36 301.44C467.98 297.14 474.3 291.58 481.6 289.34C494.69 285.31 507.58 287.71 518.88 296.17C521.85 299.27 524.72 302.48 527.85 305.42C528.93 306.44 530.59 307.11 532.09 307.38C544.1 309.6 556.16 311.52 568.13 313.87C573.34 314.89 576.89 311.93 580.89 309.8C586.66 308.39 592.42 306.96 598.2 305.56C606.48 303.56 614.29 303.97 620.98 310.03L620.95 309.99C621.24 310.41 621.52 310.82 621.81 311.24C637.87 339.97 650.78 369.91 658.98 401.93C667.39 434.8 676.59 467.47 685.93 500.09C690.9 517.44 690.94 534.89 689.43 552.57C689.08 556.7 689.12 560.86 688.98 565.01C688.58 566.65 688.17 568.28 687.77 569.92C686.76 581.51 686.43 593.21 684.56 604.66C681.82 621.53 679.06 638.58 668.62 653C666.74 651.99 664.86 650.99 662.98 649.98C671.58 638.62 673.98 624.98 676.81 611.58C678.37 604.19 678.95 596.59 679.97 589.09C680.65 588.03 681.78 587.03 681.93 585.9C682.75 579.69 683.39 573.46 683.95 567.22C684.23 564.09 684.37 560.86 680.99 558.99C681.65 557.52 682.75 556.08 682.9 554.56C683.44 549.31 683.7 544.04 683.98 538.77C684.89 521.65 681.24 505.33 675.68 489.26C672.71 480.69 670.52 471.86 667.82 463.2C667.44 461.97 666.09 461.05 665.19 459.98C664.84 447.05 661.56 434.77 656.95 422.78C657.28 418.55 657.53 414.31 657.95 410.09C658.52 404.49 655.36 398.89 651.01 398.02Z" fill="#B7624C"/>
<path d="M258.71 233.88C259.04 234.85 259.95 236.27 259.6 236.73C252.06 246.81 243.85 256.43 236.83 266.85C224.71 284.85 212.84 303.05 201.75 321.69C192.02 338.05 182.7 354.76 174.63 371.99C162.27 398.39 149.85 424.88 139.85 452.22C130.02 479.09 122.86 506.97 115.18 534.58C110.93 549.86 107.49 565.42 104.64 581.02C101.23 599.7 98.3 618.5 96.14 637.36C94.09 655.27 93.04 673.31 92.07 691.32C91.3 705.75 90.54 720.26 91.19 734.67C92.05 753.99 93.46 773.35 96.1 792.5C99.69 818.51 104.29 844.4 109.19 870.2C111.57 882.7 115.65 894.87 118.88 907.21C119.46 909.43 119.64 911.76 120 914.04C114.99 917.14 109.98 920.25 104.2 923.83C101.73 916.54 99.1 910.27 97.5 903.75C92.51 883.5 87.39 863.26 83.34 842.81C80.91 830.53 79.92 817.9 79.1 805.37C77.98 788.15 77.43 770.89 77.05 753.63C76.73 738.89 76.37 724.1 77.17 709.39C78.15 691.23 80.28 673.13 81.96 655.01C85.67 614.91 92.54 575.31 102.09 536.23C111.74 496.72 123.44 457.73 139.57 420.35C152.56 390.26 167.52 361.05 185.2 333.38C199.13 311.57 213.68 290.14 227.88 268.5C228.53 267.51 228.5 266.06 228.78 264.82V264.86C230.15 263.41 231.52 261.95 232.89 260.5C241.5 251.63 250.1 242.75 258.71 233.88Z" fill="#B6604A"/>
<path d="M649.04 774.99C647.06 769.11 645.08 763.23 643.1 757.36C645.61 755.48 648.21 753.71 650.61 751.7C687.71 720.61 718.41 684.57 737.64 639.57C751.8 606.44 760.15 571.8 765.11 536.24C771.3 491.91 768.95 447.5 765.83 403.16C764.6 385.64 758.14 369.2 750.48 353.39C748.01 348.3 745.6 343.18 743.28 338.03C740.07 330.92 739.85 323.63 743.78 316.88C748.28 309.17 748.72 302.3 743.12 294.76C739.36 289.7 739.12 283.6 742.77 277.9C743.82 278.48 745.33 278.81 745.83 279.7C747.88 283.41 749.7 287.27 751.47 291.13C754.31 297.32 756.83 303.44 755.13 310.65C751.71 325.15 752.65 338.79 761.14 352.05C766.51 360.43 770.66 370.21 772.8 379.92C776.3 395.85 778.49 412.17 779.77 428.44C781.09 445.15 780.29 462.01 781.09 478.77C782.5 508.27 777.08 536.87 770.3 565.28C764.57 589.28 758.14 613.12 752.03 637.03C748.2 645.28 745.15 654.01 740.38 661.67C729.43 679.27 718.11 696.69 706.06 713.55C690.37 735.52 671.39 754.68 652.01 773.4C651.24 774.14 650.04 774.47 649.04 774.99Z" fill="#A15441"/>
<path d="M380.97 751.01C377.67 746.37 373.86 742.01 371.14 737.05C360.45 717.55 349.7 698.06 339.71 678.19C325.13 649.2 313.7 618.92 305.98 587.37C301.31 568.26 296.79 549.07 293.29 529.71C290.36 513.47 288.72 496.97 287.06 480.53C285.63 466.37 284.8 452.14 284.03 437.93C283.03 419.56 283.9 401.24 286.99 383.09C290.46 362.73 293.96 342.37 298.13 322.14C299.93 313.42 303.63 305.1 306.1 296.49C306.86 293.84 307.07 290.65 306.39 288.02C298.8 258.94 306.93 225.53 336.18 209.71C336.88 209.33 337.4 208.62 338.01 208.06C344 216.04 342.96 221.39 334.6 226.52C319.7 235.66 313.9 249.9 312.94 266.5C312.35 276.66 312.7 286.78 317.7 296.2C319.96 300.46 319.2 305.05 316.84 309.15C300.98 336.66 296.95 367.07 294.78 397.98C291.52 444.58 294.8 490.86 302.09 536.86C307.23 569.25 318.15 600.02 331.08 630.05C344.08 660.26 360.12 688.84 378.44 716.14C379.15 717.2 380.15 718.08 381.01 719.04C381 729.71 380.99 740.36 380.97 751.01Z" fill="#B7634D"/>
<path d="M752.03 637.02C758.15 613.11 764.58 589.28 770.3 565.27C777.08 536.87 782.5 508.26 781.09 478.76C780.29 462 781.09 445.14 779.77 428.43C778.48 412.16 776.29 395.84 772.8 379.91C770.67 370.2 766.51 360.42 761.14 352.04C752.64 338.78 751.71 325.14 755.13 310.64C756.83 303.43 754.32 297.3 751.47 291.12C749.7 287.26 747.88 283.4 745.83 279.69C745.34 278.8 743.82 278.48 742.77 277.89C742.83 276.95 742.89 276.01 742.96 275.08C742.51 271.8 742.07 268.53 741.62 265.25C742.02 264.48 742.43 263.71 742.83 262.94C749.2 260.65 751.76 266.22 755 269.4C762.71 276.97 764.23 287.21 764.85 297.35C765.26 303.92 763.69 310.64 764.24 317.18C764.63 321.9 766.49 326.75 768.67 331.04C777.66 348.74 784.48 367.29 788.51 386.61C792.56 405.98 795.16 425.66 797.89 445.28C799.19 454.6 800.21 464.12 799.79 473.48C799.06 489.82 798.23 506.3 795.4 522.36C792.42 539.25 787.86 555.98 782.48 572.29C777.82 586.39 771.19 599.86 765.16 613.49C762.14 620.31 758.6 626.91 755.14 633.53C754.45 634.88 753.09 635.87 752.03 637.02Z" fill="#B6604A"/>
<path d="M518.89 296.17C507.59 287.71 494.71 285.31 481.61 289.34C474.31 291.59 467.98 297.15 461.37 301.44C459.04 302.95 457.15 305.14 455.06 307.02C454.92 292.56 459.38 279.15 465.02 266.17C473.69 246.22 485.92 228.39 499.29 211.34C504.58 204.59 511.28 204.01 515.38 210.14C516.92 212.45 517.37 216.26 516.8 219.08C511.74 244.47 513.16 269.62 518.88 294.68C518.99 295.15 518.89 295.67 518.89 296.17Z" fill="#F0DCA8"/>
<path d="M620.98 310.05C614.29 303.98 606.47 303.57 598.2 305.58C592.43 306.98 586.66 308.4 580.89 309.82C578.57 293.56 576.37 277.27 568.7 262.38C563 251.31 555.7 241.55 545.8 233.84C543.38 231.95 540.5 229.38 542.73 226.51C544.07 224.8 548.11 223.98 550.53 224.53C560.89 226.88 569.17 233.24 576.61 240.38C595.04 258.07 609.52 278.61 619.09 302.41C620.07 304.82 620.37 307.49 620.98 310.05Z" fill="#F0DCA8"/>
<path d="M908.19 764.11C907.79 762.41 907.08 760.72 907.06 759.01C906.94 750.18 907.2 741.34 906.96 732.52C906.41 712.6 906.27 692.65 904.81 672.79C903.23 651.2 900.53 629.69 898.01 608.17C893.06 565.9 885.37 524.08 875.26 482.77C867.03 449.13 857.56 415.79 848.66 382.31C848.32 381.05 848.26 379.71 848.06 378.41C853.28 392.4 859 406.23 863.64 420.42C885.15 486.18 897.9 553.77 904.93 622.51C909.58 667.97 910.81 713.53 908.73 759.18C908.66 760.83 908.38 762.47 908.19 764.11Z" fill="#A55B48"/>
<path d="M687.77 569.93C688.17 568.29 688.58 566.66 688.98 565.02C698.21 576.64 701.72 590.43 702.69 604.74C703.36 614.58 703.38 624.77 701.58 634.41C699.25 646.88 691.77 656.5 678.58 659.16C673.66 660.15 668.19 658.38 662.97 657.87C662.41 657.3 661.77 656.78 661.3 656.14C660.24 654.69 659.27 653.18 658.27 651.7C659.85 651.13 661.42 650.56 663 650C664.88 651.01 666.76 652.01 668.64 653.02C674.14 655.65 679.29 654.42 684.17 651.44C691.45 647 695.67 640.11 696.91 632.03C699.69 613.92 698.6 595.95 692.33 578.56C691.23 575.53 689.31 572.8 687.77 569.93Z" fill="#A75E4B"/>
<path d="M615.07 699.92C607.79 700.27 600.5 700.8 593.22 700.79C591.87 700.79 590.53 698.56 589.18 697.35C590.47 696.25 591.63 694.44 593.06 694.19C598.76 693.2 604.55 692.7 610.3 692.02C611.89 694.66 613.48 697.29 615.07 699.92Z" fill="#F0D9A3"/>
<path d="M741.63 265.25C742.08 268.53 742.52 271.8 742.97 275.08C740.18 272.12 738.8 268.97 741.63 265.25Z" fill="#B66754"/>
<path d="M232.89 260.5C231.52 261.95 230.15 263.41 228.78 264.86C230.15 263.41 231.52 261.96 232.89 260.5Z" fill="#A25441"/>
<path d="M621.81 311.25C621.52 310.83 621.24 310.42 620.95 310C621.24 310.42 621.52 310.84 621.81 311.25Z" fill="#F0DCA8"/>
<path d="M527.01 621.98C529.99 624.22 532.97 626.46 535.95 628.7C540.11 640.07 544.18 651.47 548.45 662.79C559.35 691.71 572.36 720.02 580.78 749.64C591.03 785.74 587.95 821.93 571.42 856.52C557.54 885.56 540.06 912.28 518.85 936.23C501.81 955.48 482.76 972.97 464.47 991.11C461.71 993.85 458.22 995.85 455.06 998.19C455.98 996.69 456.66 994.98 457.84 993.72C470.24 980.54 483.13 967.78 495.1 954.22C516.04 930.48 536.2 906.04 552.43 878.73C561.19 863.99 567.21 847.92 571.89 831.43C574.37 822.69 577.25 813.91 578.26 804.96C579.51 793.85 579.68 782.51 579.11 771.33C578.03 750.2 567.99 731.57 560.9 712.21C551.04 685.28 540 658.78 529.58 632.05C528.34 628.85 527.85 625.35 527.01 621.98Z" fill="#B7614B"/>
<path d="M187.98 948.99C188.07 947.42 188.15 945.85 188.24 944.29C188.65 944.12 189.07 943.94 189.48 943.77C190.48 944.83 191.67 945.76 192.45 946.96C196.73 953.64 204.65 957.44 211.85 949.73C215.86 945.44 217.52 946 221.35 950.48C227.66 957.85 234.65 964.54 244.22 967.52C246.45 968.21 248.99 967.92 251.38 968.12C253.82 968.32 257.42 966.7 257.81 970.7C258.22 974.96 254.43 973.72 252.02 974.08C235.75 975.23 226.54 963.5 216.93 954.64C212.4 956.64 208.72 959.2 204.73 959.83C196.35 961.15 191.94 955.16 187.98 948.99Z" fill="#A1523F"/>
<path d="M187.98 948.99C191.94 955.16 196.35 961.15 204.74 959.82C208.72 959.19 212.4 956.63 216.94 954.63C226.55 963.49 235.75 975.22 252.03 974.07C250.17 975.04 248.3 976.87 246.45 976.86C233.95 976.78 223.16 972.67 215.4 962.49C211.28 963.82 207.32 965.44 203.2 966.34C195.2 968.09 184.76 957.77 186.37 949.89C186.45 949.5 187.42 949.29 187.98 948.99Z" fill="#B6604A"/>
<path d="M482.02 809.98C481.9 806.28 483.45 805.61 486.62 807.25C493.03 810.57 499.57 808.61 506.04 807.4C506.95 807.23 508.1 806.61 508.52 805.86C511.62 800.32 516.83 799.24 522.53 798.11C529.92 796.64 535.16 791.94 538.25 784.82C538.94 783.24 541.19 782.34 542.71 781.12C543.47 782.74 544.22 784.37 544.98 785.99C544.27 787.09 543.55 788.18 542.84 789.28C537.94 796.98 531.6 802.87 522.27 804.28C517.99 804.93 515.25 807.32 512.29 810.03C510.33 811.82 507.59 813.6 505.07 813.79C497.17 814.38 489.08 814.94 482.02 809.98Z" fill="#A1523F"/>
<path d="M482.02 809.98C489.08 814.94 497.17 814.38 505.08 813.79C507.59 813.6 510.34 811.82 512.3 810.03C515.27 807.32 518 804.93 522.28 804.28C531.61 802.87 537.95 796.98 542.85 789.28C543.55 788.18 544.27 787.08 544.99 785.99C545.59 786.76 546.76 787.58 546.69 788.28C545.74 797.17 536.34 808.54 527.66 809.32C522.11 809.82 518.64 812 514.74 815.38C509.26 820.13 491.75 821.45 484.38 814.53C483.19 813.43 482.78 811.52 482.02 809.98Z" fill="#B6604A"/>
<path d="M867.96 536.05C867.61 536.38 867.27 536.7 866.92 537.03C866.06 532.2 865.06 527.4 864.37 522.55C863.41 515.73 862.68 508.88 862.94 501.9C864.61 513.28 866.29 524.66 867.96 536.05Z" fill="#BE5545"/>
<path d="M809.76 373.85C809.82 374.55 809.88 375.25 809.94 375.96C809.75 375.98 809.56 376.01 809.38 376.03C809.28 375.33 809.17 374.63 809.07 373.94C809.3 373.91 809.53 373.88 809.76 373.85Z" fill="#C64437"/>
<path d="M674.84 976.05C674.28 979.09 673.73 982.13 673.18 985.16C659.65 987.4 646.57 984.11 633.45 981.74C632.22 981.52 631.39 979.01 630.38 977.57C632.19 976.86 634 975.53 635.81 975.53C648.81 975.55 661.82 975.84 674.84 976.05Z" fill="#F0D9A3"/>
<path d="M666.69 841.06C667.16 843.71 667.63 846.36 668.1 849.01C655.53 854.24 642.5 855.2 629.22 852.86C627.73 852.6 626.56 850.54 625.23 849.31C626.74 848.27 628.27 846.32 629.76 846.34C641.54 846.51 653.07 845.3 664.24 841.4C665.02 841.14 665.88 841.17 666.69 841.06Z" fill="#F0D9A3"/>
<path d="M187.08 886C184.29 872.54 181.21 859.13 178.79 845.6C175.57 827.52 172.5 809.4 170.04 791.21C167.33 771.21 165.19 751.12 163.15 731.03C162.07 720.48 161.45 709.86 161.1 699.26C160.54 682.14 159.6 664.98 160.24 647.89C161.06 626.05 162.68 604.2 165.02 582.46C170.27 533.64 182.09 486.23 197.21 439.59C207.11 409.05 218.66 379.16 232.02 349.98C239.91 332.74 248.09 315.62 256.29 298.53C259.24 292.38 262.51 286.38 265.9 280.47C266.99 278.58 268.93 277.18 270.48 275.55C270.85 275.84 271.22 276.12 271.6 276.41C271.6 277.5 271.91 278.71 271.55 279.66C263.23 301.67 259.53 324.82 255.21 347.76C250.27 373.94 246.06 400.26 242.23 426.63C239.81 443.33 238.1 460.18 237.11 477.03C235.61 502.38 234.22 527.79 234.29 553.18C234.35 573.53 236.13 593.93 238.09 614.22C240.11 635.13 242.37 656.09 246.16 676.73C251.45 705.56 257.33 734.34 264.66 762.71C272.42 792.74 282.17 822.26 291.06 852C279.29 855.97 267.52 859.96 255.74 863.92C234.95 870.91 214.16 877.91 193.35 884.84C191.34 885.47 189.17 885.61 187.08 886Z" fill="#C64437"/>
<path d="M219.03 350.02C215.39 359.26 211.81 368.53 208.1 377.75C194.63 411.21 182.58 445.17 174.1 480.25C167.88 505.98 162.26 531.89 157.42 557.92C154.55 573.34 152.88 589.09 152.16 604.76C150.86 633.14 150.09 661.57 150.26 689.97C150.36 707.49 152.47 725 153.93 742.5C155.09 756.35 156.32 770.22 158.12 784C160.26 800.4 162.67 816.78 165.63 833.05C169.1 852.1 173.28 871.02 177.15 890C172.85 891.96 168.6 894.04 164.25 895.87C150.53 901.62 136.78 907.28 123.03 912.97C121.3 902.36 119.31 891.77 117.91 881.12C116.03 866.85 114.48 852.54 113 838.22C109.9 808.09 109.42 777.84 110.19 747.61C110.71 727.08 112.3 706.56 114 686.09C118.08 636.93 127.61 588.71 140.06 541.06C149.47 505.02 161.35 469.77 176.25 435.61C184.82 415.96 193.88 396.52 203.05 377.15C207.1 368.6 211.94 360.42 216.52 352.12C217.01 351.22 218.14 350.67 218.97 349.96L219.03 350.02Z" fill="#C64437"/>
<path d="M300.99 848.07C293.01 822.21 284.28 796.55 277.26 770.43C270.08 743.72 264 716.68 258.56 689.56C254.72 670.44 252.64 650.97 249.98 631.62C244.47 591.48 244.33 551.09 245.18 510.71C245.51 495.01 247.31 479.31 248.92 463.66C250.66 446.7 252.43 429.72 255.12 412.9C259.56 385.16 264.75 357.54 269.63 329.87C270.08 329.94 270.54 330 270.99 330.07C270.26 337.7 269.58 345.34 268.8 352.96C267.92 361.52 266.39 370.05 266.13 378.63C265.2 408.88 264.12 439.14 264.26 469.39C264.34 487.08 266.36 504.79 268.04 522.43C269.74 540.23 271.33 558.09 274.37 575.68C277.89 596.07 282.49 616.3 287.39 636.42C297.37 677.37 311.98 716.71 328.97 755.26C337.22 773.97 348.09 790.97 359.51 807.74C359.87 808.26 360.5 808.6 361.01 809.02C357.18 817.46 350.45 823.06 343.12 828.43C331.01 837.3 316.84 841.61 303.45 847.67C302.71 848.02 301.81 847.95 300.99 848.07Z" fill="#C64437"/>
<path d="M593.81 664.15C590.71 662.68 587.24 661.7 584.58 659.67C567.49 646.6 550.56 633.31 533.63 620.04C532.62 619.25 531.99 617.98 531.18 616.94C531 615.46 531.06 613.9 530.6 612.51C525.09 595.61 519.75 578.65 513.86 561.88C510.29 551.73 505.84 541.89 501.78 531.91C509.02 538.23 516.26 544.57 523.51 550.88C529.26 555.89 535.05 560.86 540.81 565.85C542.9 570.24 544.98 574.63 547.07 579.02C542 579.72 536.88 580.18 531.89 581.25C530.11 581.63 528.64 583.47 527.03 584.64C528.49 585.86 529.92 588.06 531.41 588.11C538 588.33 544.6 587.92 551.2 587.74C551.56 588.65 551.81 589.62 552.29 590.47C563.59 610.24 574.96 629.98 586.22 649.77C588.91 654.48 591.29 659.35 593.81 664.15Z" fill="#E8AD67"/>
<path d="M634.01 665C627.67 662.88 621.32 660.75 614.98 658.63C613.56 656.17 612.4 653.51 610.67 651.3C608.05 647.95 604.36 645.29 602.35 641.66C598.5 634.72 594.98 627.5 592.26 620.05C584.14 597.86 570.86 579.92 551.31 566.4C544.02 561.36 537.74 554.85 531 549C539.99 550.26 546.69 555.95 553.51 561.12C570.23 573.8 584.29 588.93 594.07 607.66C597.75 614.7 600.7 622.12 604.26 629.23C606.79 634.27 609.13 639.64 612.75 643.83C618.95 651.02 626.47 656.46 636.99 653.98C635.99 657.66 635 661.33 634.01 665Z" fill="#B6604B"/>
<path d="M501.78 531.91C505.84 541.89 510.29 551.73 513.86 561.88C519.75 578.65 525.1 595.61 530.6 612.51C531.05 613.9 531 615.46 531.18 616.94C528.45 614.97 525.72 612.99 522.99 611.02C522.65 610.68 522.31 610.34 521.98 610.01L521.99 610.03C519.91 602.23 518.42 594.21 515.63 586.67C509.88 571.17 503.51 555.9 497.24 540.6C495.15 535.51 496.04 533.11 501.13 531.93L501.46 531.94L501.78 531.91Z" fill="#B7614B"/>
<path d="M521.98 610C522.32 610.34 522.66 610.68 522.99 611.01C522.66 610.68 522.32 610.34 521.98 610Z" fill="#B56754"/>
<path d="M593.87 664.13C594.23 664.48 594.58 664.83 594.94 665.18C594.59 664.83 594.23 664.48 593.87 664.13Z" fill="#E8AD67"/>
<path d="M508.04 430C504.51 424.03 500.89 418.11 497.46 412.07C493.12 404.44 488.85 396.77 484.79 388.99C484.2 387.85 484.45 385.52 485.28 384.61C486.07 383.74 488.55 383.3 489.52 383.9C494.55 387 499.6 390.17 504.17 393.9C522.14 408.58 540.04 423.35 557.75 438.34C565.59 444.98 573.38 451.8 580.38 459.3C589.03 468.57 592.27 480.62 594.93 492.69C597.67 505.13 600.2 517.62 602.81 530.09C602.95 530.74 602.95 531.41 602.99 532.08C603.15 534.99 603.32 538.03 599.61 538.85C595.79 539.7 594.01 537.09 593.19 534.04C590.28 523.23 584.28 514.09 578.01 505.07C577.73 504.67 577.34 504.35 577 504C576.17 502.4 575.44 500.75 574.49 499.22C560.44 476.48 541.27 458.32 521.67 440.59C517.42 436.72 512.6 433.5 508.04 430Z" fill="#C64538"/>
<path d="M508.04 430C512.6 433.51 517.42 436.73 521.67 440.57C541.27 458.3 560.44 476.46 574.49 499.2C575.43 500.73 576.17 502.39 577 503.98C566.47 512.12 561.98 511.75 551.08 503.82C536.92 493.53 526.78 479.47 514.99 466.95C513.51 465.38 512.16 463.69 510.67 462.15C500.09 451.24 499.36 442.48 508.04 430Z" fill="#E7AB65"/>
<path d="M651.01 398.02C655.36 398.89 658.52 404.49 657.95 410.09C657.53 414.31 657.28 418.55 656.95 422.78C656.63 424.68 656.11 426.57 656.02 428.48C655.72 435.26 655.25 442.04 655.42 448.81C655.75 461.85 656.48 474.88 657.04 487.92C657.36 492.04 657.99 496.16 657.86 500.27C657.8 502.1 656.22 503.88 655.34 505.69C653.37 504.69 650.57 504.19 649.62 502.59C647.89 499.68 646.8 496.19 646.23 492.8C642.96 473.35 639.85 453.82 641.13 434.02C641.95 421.47 644.14 409.04 651.01 398.02Z" fill="#C64638"/>
<path d="M501.78 531.91L501.45 531.93L501.12 531.92C498.86 528.56 496.61 525.19 494.31 521.85C493.75 521.04 492.63 520.44 492.42 519.58C492.04 518 492.15 516.31 492.06 514.67C493.8 515.08 496.02 514.94 497.18 515.99C500.23 518.76 502.66 522.21 505.63 525.08C514 533.14 522.52 541.04 530.98 549C537.72 554.84 544 561.36 551.29 566.4C570.85 579.91 584.12 597.86 592.24 620.05C594.97 627.5 598.48 634.72 602.33 641.66C604.34 645.29 608.04 647.95 610.65 651.3C612.38 653.51 613.54 656.17 614.96 658.63C606.63 654.42 602.2 646.83 597.94 639.07C591.24 626.85 585.61 613.85 577.47 602.67C568.64 590.54 557.55 580.04 547.23 569.04C545.7 567.41 542.97 566.89 540.8 565.85C535.03 560.86 529.25 555.89 523.5 550.88C516.26 544.57 509.03 538.23 501.78 531.91Z" fill="#A45744"/>
<path d="M657.05 487.93C656.49 474.89 655.76 461.86 655.43 448.82C655.26 442.05 655.73 435.26 656.03 428.49C656.12 426.58 656.64 424.69 656.96 422.79C661.57 434.78 664.85 447.06 665.2 459.99C664.82 466.55 664.39 473.1 664.09 479.66C663.87 484.3 661.28 486.78 657.05 487.93Z" fill="#E6A864"/>
<path d="M445.01 488.99C448.38 490.69 451.91 492.14 455.02 494.22C456.15 494.97 456.87 497.34 456.63 498.78C456.47 499.7 453.91 501.16 452.94 500.84C448.11 499.24 443.12 497.68 438.8 495.09C421.65 484.84 414.52 469.11 415.01 449.54C415.12 444.98 417.18 443.13 421.01 444.01C420.01 449.14 417.87 454.36 418.24 459.39C419.33 474.11 428 484.13 440.47 491.19C442.92 492.58 444.59 491.98 445.01 488.99Z" fill="#B6604A"/>
<path d="M445.01 488.99C444.58 491.98 442.92 492.58 440.46 491.18C427.99 484.12 419.32 474.11 418.23 459.38C417.86 454.35 420 449.13 421 444C424.83 443.74 426.72 444.85 425.45 449.22C421.24 463.69 427.61 474.26 438.29 483.16C440.57 485.06 442.77 487.05 445.01 488.99Z" fill="#A1523F"/>
<path d="M616.06 571.93C616.68 570.03 617.26 566.52 617.92 566.5C620.49 566.44 623.94 566.65 625.52 568.27C631.97 574.88 635.36 583.17 635.93 592.38C636.24 597.44 634.1 598.66 629.03 596.97C628.34 594.61 627.71 592.22 626.95 589.88C624.74 583.05 623.5 575.61 616.06 571.93Z" fill="#C64638"/>
<path d="M681 559C684.38 560.88 684.24 564.1 683.96 567.23C683.4 573.47 682.75 579.7 681.94 585.91C681.79 587.04 680.66 588.04 679.98 589.1C676.48 589.02 674.99 587.16 675.02 583.75C675.08 577.82 674.91 571.88 675.08 565.95C675.19 562.22 676.39 559.07 681 559Z" fill="#C64638"/>
<path d="M616.06 571.93C623.49 575.61 624.73 583.05 626.94 589.89C627.7 592.23 628.33 594.61 629.02 596.98C627.11 596.25 624.55 596.06 623.39 594.69C617.91 588.18 615.23 580.57 616.06 571.93Z" fill="#B6604A"/>
<path d="M271.25 327.16C271.25 326.43 271.25 325.71 271.25 324.98C271.4 324.97 271.54 324.97 271.69 324.96C271.74 325.68 271.78 326.41 271.83 327.13C271.63 327.15 271.44 327.15 271.25 327.16Z" fill="#C64437"/>
<path d="M218.96 349.96C219.1 349.52 219.24 349.07 219.37 348.63C219.5 348.72 219.75 348.88 219.74 348.89C219.52 349.27 219.27 349.65 219.02 350.02C219.03 350.02 218.96 349.96 218.96 349.96Z" fill="#C64437"/>
<path d="M547.08 579.02C548.46 581.93 549.83 584.84 551.21 587.75C544.61 587.93 538.01 588.33 531.42 588.12C529.92 588.07 528.5 585.86 527.04 584.65C528.65 583.48 530.12 581.64 531.9 581.26C536.89 580.18 542.01 579.72 547.08 579.02Z" fill="#F0D9A3"/>
</g>
<defs>
<clipPath id="clip0">
<rect width="1000" height="1000" fill="white"/>
</clipPath>
</defs>
</svg>
