<?xml version="1.0" encoding="utf-8"?>
<!-- Generator: Adobe Illustrator 24.3.0, SVG Export Plug-In . SVG Version: 6.00 Build 0)  -->
<svg version="1.1" xmlns="http://www.w3.org/2000/svg" xmlns:xlink="http://www.w3.org/1999/xlink" x="0px" y="0px"
	 viewBox="0 0 1000 1000" style="enable-background:new 0 0 1000 1000;" xml:space="preserve">
<style type="text/css">
	.st0{fill:#483318;}
	.st1{fill:url(#SVGID_1_);}
	.st2{fill:url(#SVGID_2_);}
	.st3{fill:#413000;}
	.st4{fill:url(#SVGID_3_);stroke:#C2B59B;stroke-width:5;stroke-miterlimit:10;}
	.st5{fill:none;stroke:#C2B59B;stroke-width:5;stroke-miterlimit:10;}
	.st6{fill:url(#SVGID_4_);stroke:#939598;stroke-width:5;stroke-miterlimit:10;}
	.st7{fill:url(#SVGID_5_);stroke:#939598;stroke-width:5;stroke-miterlimit:10;}
	.st8{fill:url(#SVGID_6_);stroke:#939598;stroke-width:5;stroke-miterlimit:10;}
	.st9{fill:url(#SVGID_7_);stroke:#939598;stroke-width:5;stroke-miterlimit:10;}
	.st10{fill:url(#SVGID_8_);stroke:#939598;stroke-width:5;stroke-miterlimit:10;}
	.st11{fill:#F0DAAC;}
	.st12{fill:url(#SVGID_9_);}
	.st13{fill:url(#SVGID_10_);}
	.st14{fill:url(#SVGID_11_);}
	.st15{fill:url(#SVGID_12_);stroke:#C2B59B;stroke-width:5;stroke-miterlimit:10;}
	.st16{fill:url(#SVGID_13_);stroke:#C2B59B;stroke-width:5;stroke-miterlimit:10;}
	.st17{fill:url(#SVGID_14_);stroke:#C2B59B;stroke-width:5;stroke-miterlimit:10;}
	.st18{fill:url(#SVGID_15_);stroke:#C2B59B;stroke-width:5;stroke-miterlimit:10;}
	.st19{fill:#726658;}
	.st20{fill:url(#SVGID_16_);stroke:#C2B59B;stroke-width:5;stroke-miterlimit:10;}
	.st21{fill:url(#SVGID_17_);}
	.st22{fill:url(#SVGID_18_);}
	.st23{fill:url(#SVGID_19_);}
	.st24{fill:url(#SVGID_20_);}
	.st25{fill:url(#SVGID_21_);}
	.st26{fill:url(#SVGID_22_);}
	.st27{display:none;fill:#F8F8F9;}
	.st28{fill:#F8F8F9;}
	.st29{fill:#FFFFFF;}
	.st30{fill:#FFFBFD;}
</style>
<g id="Layer_1">
</g>
<g id="Layer_9">
</g>
<g id="Layer_7">
	<path class="st0" d="M141.87,463.02l58.38-230.78c0.76-3.01,3.53-5.07,6.63-4.94l130.29,5.63c2.67,0.12,5.01,1.85,5.9,4.37
		l12.79,36.34c3.06,5.24,5.16-44.6,5.16-44.6c0.16-3.5,93.38,3.55,93.38,3.55c0.27,0.03,0.54,0.04,0.81,0.03l76.4-1.21
		c2.69-0.08,7.86,0.87,8.71,3.42l7.55,18.37c1.77,5.32,8.06,6.79,10.21,2.31c0.3-0.62,0.43-1.3,0.49-1.99l1.45-17
		c0.05-0.62,0.18-1.23,0.41-1.81c0.86-2.16,2.44-3.68,4.86-3.63l74.13,1.47c2.32,0.05,4.5-1.14,5.71-3.12l9.41-15.34
		c1.19-1.94,3.3-3.12,5.58-3.12h37.06c4.34,0-3.06,18.35-4.24,22.53v5.59c-1.19,4.24,8.82,2.12,13.22,2.01l186.6-4.69
		c3.68-0.09,6.71,2.87,6.71,6.55v126.41c0,3.62-2.93,6.55-6.55,6.55h-41.06c-3.62,0-6.55,2.93-6.55,6.55V492.2
		c0,3.45,2.68,6.31,6.13,6.54l31.51,2.03c8.93,0.58,17.6,3.23,25.33,7.76l56.55,33.15c2.01,1.18,3.24,3.33,3.24,5.65l-2.15,105.04
		l2.15,111.96c0,2.05-0.96,3.98-2.59,5.22l-66.13,50.22c-1.21,0.92-2.7,1.39-4.22,1.33l-69.9-2.72c-0.25-0.01-0.51-0.03-0.76-0.07
		l-73.29-11.49c-2.36-0.37-4.33-2-5.15-4.24l-14.25-39.44c-2.4-6.63-12.14-5.31-12.69,1.71l-2.43,30.96
		c-0.22,2.8-2.2,5.15-4.92,5.84l-71.05,17.96c-4.14,1.05-8.15-2.08-8.15-6.35v-5.11c0-3.49-2.74-6.37-6.24-6.54l-41.8-2.01
		c-3.06-0.15-5.6-2.39-6.14-5.4l-3.07-17.4c-0.56-3.16-3.32-5.45-6.53-5.41l-25.93,0.33c-3.11,0.04-5.77,2.27-6.35,5.33l-4.88,25.65
		c-0.54,2.82-2.85,4.96-5.7,5.28l-67.1,7.53c-4.06,0.46-7.54-2.87-7.27-6.95l1.5-22.34c0.25-3.78-2.74-6.99-6.53-6.99l-195.19-0.1
		c-1.77,0-3.46-0.72-4.69-1.99l-13.56-13.96c-3.41-3.51-9.33-2.17-10.9,2.47l-6,17.77c-0.43,1.28-1.24,2.39-2.33,3.18l-69.19,50.78
		c-1.56,1.14-3.54,1.54-5.42,1.09L42.3,814.98c-3.16-0.76-5.28-3.73-4.98-6.96c3.18-34.67,24.45-218.05-0.65-315.26
		c-0.98-3.79-4.26-10.45-0.39-10.99l100.13-13.87C139.06,467.53,141.22,465.6,141.87,463.02z"/>
	<linearGradient id="SVGID_1_" gradientUnits="userSpaceOnUse" x1="29.5194" y1="506.2161" x2="970.4807" y2="506.2161">
		<stop  offset="5.618000e-03" style="stop-color:#886441"/>
		<stop  offset="0.1404" style="stop-color:#634522"/>
		<stop  offset="0.309" style="stop-color:#735229"/>
		<stop  offset="0.6517" style="stop-color:#603B0F"/>
		<stop  offset="0.8034" style="stop-color:#886441"/>
		<stop  offset="1" style="stop-color:#603B0F"/>
		<stop  offset="1" style="stop-color:#5F4421"/>
	</linearGradient>
	<path class="st1" d="M141.16,447.06l59.95-236.99c0.26-1.03,1.21-1.74,2.27-1.69l136.7,5.91c0.92,0.04,1.72,0.63,2.02,1.5
		l13.75,39.08c3.06,5.24,5.16-44.6,5.16-44.6c0.16-3.5,93.38,3.55,93.38,3.55c0.27,0.03,0.54,0.04,0.81,0.03l76.4-1.21
		c2.69-0.08,7.86,0.87,8.71,3.42l7.55,18.37c1.88,5.64,8.85,6.96,10.55,1.42c0.03-0.16,0.06-0.33,0.09-0.49l1.55-18.11
		c0.01-0.16,0.04-0.32,0.09-0.47c0.76-2.58,2.42-4.5,5.14-4.45l76.59,1.52c0.8,0.02,1.54-0.39,1.96-1.07l11.96-19.5
		c0.41-0.66,1.13-1.07,1.91-1.07h45.16c1.49,0,2.56,1.42,2.16,2.85l-6.9,24.58c-0.41,1.45,0.71,2.89,2.22,2.85l196.85-4.95
		c1.26-0.03,2.3,0.98,2.3,2.24V354.9c0,1.24-1,2.24-2.24,2.24h-49.67c-1.24,0-2.24,1-2.24,2.24v118.09c0,1.18,0.92,2.16,2.1,2.24
		l37.09,2.39c7.86,0.51,15.49,2.83,22.3,6.79c0.09,0.05,0.18,0.11,0.26,0.17l62.52,47.73c0.56,0.43,0.89,1.1,0.88,1.81l-4.64,102.13
		c-0.07,1.62-0.09,3.25-0.06,4.87l2.31,102.1c-0.01,0.69-0.34,1.34-0.89,1.76l-69.07,52.45c-0.41,0.31-0.92,0.48-1.44,0.46
		L825,799.59c-0.09,0-0.17-0.01-0.26-0.03l-76.05-11.92c-0.81-0.13-1.48-0.68-1.76-1.45l-21.9-60.6c-0.82-2.27-4.16-1.82-4.35,0.59
		l-4.24,53.92c-0.08,0.96-0.75,1.76-1.69,2l-79.41,20.08c-1.42,0.36-2.79-0.71-2.79-2.17v-14.75c0-1.2-0.94-2.18-2.14-2.24
		l-49.34-2.37c-1.05-0.05-1.92-0.82-2.1-1.85l-4.3-24.39c-0.19-1.08-1.14-1.87-2.24-1.85l-33.11,0.42
		c-1.07,0.01-1.98,0.78-2.18,1.82l-6.13,32.23c-0.18,0.97-0.98,1.7-1.95,1.81l-75.38,8.46c-1.39,0.16-2.58-0.98-2.49-2.38
		l2.15-32.08c0.09-1.29-0.94-2.39-2.24-2.39l-201.61-0.1c-0.61,0-1.19-0.25-1.61-0.68l-19.74-20.32c-1.17-1.2-3.2-0.74-3.73,0.85
		l-8.69,25.74c-0.15,0.44-0.43,0.82-0.8,1.09l-71.9,52.77c-0.53,0.39-1.21,0.53-1.86,0.37l-102.5-24.83
		c-1.08-0.26-1.81-1.28-1.71-2.39c2.1-22,20.64-226.46-7.37-326.44c-0.37-1.31,0.5-2.65,1.85-2.84l107.84-14.94
		C140.2,448.61,140.93,447.95,141.16,447.06z"/>
	<linearGradient id="SVGID_2_" gradientUnits="userSpaceOnUse" x1="460.7874" y1="477.116" x2="460.7874" y2="477.116">
		<stop  offset="5.618000e-03" style="stop-color:#886441"/>
		<stop  offset="0.1404" style="stop-color:#634522"/>
		<stop  offset="0.309" style="stop-color:#735229"/>
		<stop  offset="0.6517" style="stop-color:#603B0F"/>
		<stop  offset="0.8034" style="stop-color:#886441"/>
		<stop  offset="1" style="stop-color:#603B0F"/>
		<stop  offset="1" style="stop-color:#5F4421"/>
	</linearGradient>
	<path class="st2" d="M460.79,477.12"/>
</g>
<g id="Layer_6">
	<path class="st3" d="M416.62,520.11H242.22c-10.17,0-18.41,8.16-18.41,18.22v163.37c0,4.72,1.85,9.25,5.15,12.65l33.85,34.76
		c3.47,3.56,8.26,5.58,13.26,5.58h174.4c10.17,0,18.41-8.16,18.41-18.22V573.1c0-4.72-1.85-9.25-5.15-12.65l-33.85-34.76
		C426.4,522.13,421.62,520.11,416.62,520.11z"/>
	<path class="st3" d="M647.66,769.46l-12.09-65.1c0-0.02-0.01-0.04-0.02-0.06l-38.22-208.08c-0.71-3.84-4.84-6.02-8.45-4.47
		l-6.09,2.62c-0.14,0.05-0.27,0.11-0.41,0.16l-64.43,22.35c-2.1,0.73-3.64,2.53-4.01,4.7l-31.3,182.76c0,0.02-0.01,0.04-0.02,0.06
		l-13.67,78.89c-0.56,3.26,2.22,6.12,5.53,5.68l48.45-6.41c2.15-0.28,3.86-1.92,4.22-4.04l5.72-33.46c0.4-2.36,2.46-4.08,4.87-4.08
		h47.34c2.4,0,4.45,1.7,4.87,4.04l4.21,23.6c0.4,2.23,2.29,3.9,4.58,4.04l43.78,2.58C645.71,775.42,648.24,772.58,647.66,769.46z
		 M568.41,626.2l12.78,68.16c0.7,3.72-2.19,7.16-6.01,7.16h-29.94c0,0,0,0,0,0h-2.05c-0.92,0-1.61-0.83-1.43-1.72l14.65-73.67
		C557.7,619.59,567.17,619.64,568.41,626.2z"/>
	<path class="st3" d="M830.37,788.29c10.25-96.74,11.05-194.21,0.48-293.03c0.61-0.05,1.09-0.11,1.57-0.11
		c10.48-0.03,20.97-0.03,31.45-0.09c9.79-0.05,31.25,0.02,32.11,0.5c17.76,9.87,69.28,48.41,69.18,53.96
		c-0.44,24.03-1.74,88.05-1.89,93.33c-0.3,10,1.57,91.93,1.33,101.7c-0.04,1.5-10.03,8.37-14.41,11.34
		c-8.59,5.81-17.17,11.62-25.76,17.43c-8.27,5.6-16.54,11.2-24.83,16.75c-0.65,0.44-1.43,0.57-2.15,0.59
		c-1.28,0.02-2.55-0.2-3.83-0.24c-7.92-0.22-15.84-0.42-23.76-0.64c-4.77-0.14-9.54-0.31-14.31-0.47c-4.53-0.15-9.05-0.3-13.58-0.46
		c-3.49-0.12-6.98-0.27-10.47-0.41C831.2,788.43,830.91,788.36,830.37,788.29z M883.23,719.02c7.57-3.36,15.09-6.69,22.62-10.04
		c5.28-2.34,8.81-8.49,8.83-15.39c0.12-32.17,0.34-64.22,0.31-96.24c-0.01-6.86-3.49-13-8.73-15.39c-8.9-4.06-17.75-8.1-26.65-12.16
		c-0.03,0.82-0.09,1.42-0.08,2.02c0.06,2.4,0.17,4.8,0.23,7.21c0.21,8.38,0.4,16.75,0.61,25.13c0.19,7.68,0.39,15.35,0.57,23.03
		c0.21,8.38,0.4,16.75,0.61,25.13c0.19,7.75,0.39,15.51,0.57,23.26c0.22,9.39,0.43,18.77,0.65,28.16c0.11,4.65,0.21,9.31,0.32,13.96
		C883.1,718.06,883.16,718.43,883.23,719.02z"/>
	<path class="st3" d="M55.04,477.69c-0.18-3.24,1.86-6.06,4.63-6.39c10.53-1.26,34.26-4.01,36.91-4.32
		c5.79-0.67,39.21-4.47,44.58-5.13c2.28-0.28,64.82,40.25,64.91,42.47c0.46,11.44,4.56,53.01,4.18,60.84
		c-0.14,2.95-13.52,43.25-17,51.26c-0.7,1.61-0.75,3.49-0.12,5.15c3.09,8.21,11.9,31.5,15.63,41.26c0.66,1.73,7.56,45.75,7.79,51.65
		c0.32,8.29-9.03,49.26-10.48,50.24c-6.07,4.1-14.04,12.67-24.39,21.52c-10.94,7.33-21.87,14.65-32.8,22
		c-0.8,0.54-45.59-8.66-50.92-9.78c-4.27-0.9-26.84-5.72-36.54-7.86c-2.55-0.56-4.34-3.23-4.2-6.25
		c1.17-24.78,6.3-129.61,6.19-144.76C63.31,624.42,56.58,505.48,55.04,477.69z M114.2,708.04c0,3.49-2.99,46.33,0,46.1
		c9.67-0.75,28.76,5.14,31.14,4.94c0,0,0.4-88.08,0-93.86c-0.15-2.12-13.77-1.88-24.32-6.03c-3.35-1.32-6.82,1.6-6.82,5.73V708.04z
		 M142.19,587.28c0.72-10.05,1.5-71.46-1.4-71.67c-8.18-0.58-17.39,0.47-25.57,0c-2.93-0.17,0.08,54.21,0,64.49
		C115.19,583.38,141.96,590.48,142.19,587.28z"/>
	<path class="st3" d="M767.99,648.66l36.43-38.38c0.7-0.73,0.95-1.77,0.69-2.74c-1.28-4.81-4.29-23.17,0.36-81.69
		c0.08-1.05-0.41-2.07-1.31-2.65c-7.05-4.52-38.15-24.46-56.41-36.09c-0.25-0.16-0.51-0.27-0.8-0.35
		c-4.86-1.27-49.57-12.09-93.79,8.43c-0.01,0-0.02,0.01-0.02,0.01c-1.33,0.6-1.99,2.09-1.55,3.48
		c5.15,16.26,32.92,116.18-0.03,291.2c-0.24,1.3,0.94,2.42,2.21,2.08l55.95-14.73c1.15-0.3,2-1.27,2.15-2.44l10.36-82.38
		c0.37-2.91,4.39-3.46,5.54-0.76l36.27,85.3c0.37,0.88,1.17,1.52,2.11,1.7l58.15,11.23c1.42,0.27,2.56-1.16,1.98-2.48l-58.84-135.61
		C766.98,650.73,767.2,649.5,767.99,648.66z M719.61,608.55l-4.3-78.64c-0.07-1.27,1.17-2.21,2.37-1.8l29.65,10.2
		c1.22,0.42,2.01,1.58,1.96,2.85l-2.46,60.8c-0.05,1.28-0.95,2.37-2.2,2.67l-22.81,5.56C720.74,610.47,719.67,609.68,719.61,608.55z
		"/>
	<path class="st3" d="M652.87,421.16c-2.23-93.42,2.04-191,2.04-191l0,0c-0.01-2.64-0.07-4.12-0.22-4.12h-73.88
		c-1.4,0-2.53,1.15-2.5,2.55l2.06,89.99c0.06,2.78-3.78,3.57-4.82,0.99l-36.92-91.96c-0.38-0.95-1.3-1.57-2.32-1.57h-52.95
		l4.87,275.2h53.46c1.38,0,2.5-1.12,2.5-2.5v-48.8c0-2.35,2.95-3.4,4.44-1.57l42.25,51.94c0.47,0.58,1.19,0.92,1.94,0.92h61.86
		c1.43,0,2.57-1.2,2.49-2.63L652.87,421.16z"/>
	<path class="st3" d="M316.56,494.27l62-15.64c1.6-0.4,2.59-2.05,2.25-3.72l-51.77-248.08c-0.3-1.45-1.54-2.48-2.96-2.48H219.58
		c-1.39,0-2.6,0.98-2.94,2.38l-60.67,251.65c-0.43,1.78,0.7,3.56,2.44,3.86l70.32,12.15c1.69,0.29,3.27-0.92,3.5-2.68l4.48-34.05
		c0.2-1.56,1.49-2.72,3-2.72h58.12c1.28,0,2.42,0.83,2.85,2.07L313,492.29C313.52,493.8,315.06,494.65,316.56,494.27z M245.29,407
		l19.78-36.63c1.27-2.35,4.61-2.07,5.49,0.47l12.8,36.63c0.72,2.05-0.75,4.21-2.85,4.21h-32.58
		C245.61,411.68,244.15,409.1,245.29,407z"/>
	<path class="st3" d="M389.64,221.41l70.64,4.84c2.71,0.19,4.83,2.44,4.91,5.21l3.51,127.37l4.67,128.26
		c0.11,2.91-2.08,5.38-4.93,5.56l-33.8,2.16l-37.33,4.29c-3.12,0.36-5.85-2.13-5.85-5.34V322.41c0-0.14-0.01-0.29-0.02-0.43
		l-7.41-94.79C383.78,223.93,386.43,221.19,389.64,221.41z"/>
	<path class="st3" d="M675.12,200.97l-13.14,49.35c-0.4,1.52,1.5,2.57,2.61,1.44l22.58-22.96c0.16-0.16,0.28-0.36,0.36-0.58
		l8.94-26.39c0.33-0.99-0.41-2-1.47-2h-18.38C675.92,199.83,675.3,200.3,675.12,200.97z"/>
	<path class="st3" d="M692.95,257.06v80.48c0,3.91,3.19,7.08,7.12,7.08h44.68c3.93,0,7.12,3.17,7.12,7.08v150.43
		c0,3.71,2.88,6.79,6.6,7.06l69.69,5.06c4.13,0.3,7.64-2.95,7.64-7.06V353.14c0-3.97,3.29-7.17,7.28-7.08l41.39,0.94
		c4,0.09,7.28-3.11,7.28-7.08v-88.79c0-4-3.33-7.21-7.35-7.08l-184.58,5.92C696,250.11,692.95,253.24,692.95,257.06z"/>
	<linearGradient id="SVGID_3_" gradientUnits="userSpaceOnUse" x1="218.3083" y1="631.8516" x2="460.8611" y2="631.8516">
		<stop  offset="5.617999e-03" style="stop-color:#F6E8D7"/>
		<stop  offset="1" style="stop-color:#D8CDBB"/>
	</linearGradient>
	<path class="st4" d="M409.14,514.56H236.53c-10.06,0-18.22,8.16-18.22,18.22v163.37c0,4.72,1.83,9.25,5.1,12.65l33.5,34.76
		c3.43,3.56,8.17,5.58,13.12,5.58h172.61c10.06,0,18.22-8.16,18.22-18.22V567.55c0-4.72-1.83-9.25-5.1-12.65l-33.5-34.76
		C418.82,516.58,414.09,514.56,409.14,514.56z"/>
	<path class="st5" d="M218.31,688.9V531.02c0-9.09,7.37-16.46,16.46-16.46h168.15c7.72,0,13.97,6.26,13.97,13.97v162.14
		c0,7.09-5.75,12.83-12.83,12.83H232.92C224.85,703.51,218.31,696.97,218.31,688.9z"/>
	<path class="st5" d="M458.22,743.68l-37.37-35.64c-2.3-2.89-5.46-4.53-8.77-4.53H257.11"/>
	<linearGradient id="SVGID_4_" gradientUnits="userSpaceOnUse" x1="562.4981" y1="228.3038" x2="562.4981" y2="491.8307">
		<stop  offset="5.025126e-03" style="stop-color:#F3F4F4"/>
		<stop  offset="0.2888" style="stop-color:#D7D5D6"/>
		<stop  offset="0.4926" style="stop-color:#CECCCD"/>
		<stop  offset="0.4972" style="stop-color:#C8C6C7"/>
		<stop  offset="0.5032" style="stop-color:#C3C2C2"/>
		<stop  offset="0.5117" style="stop-color:#C2C1C0"/>
		<stop  offset="0.5352" style="stop-color:#C2C1C0"/>
		<stop  offset="0.5755" style="stop-color:#C9C8C8"/>
		<stop  offset="0.6761" style="stop-color:#D5D5D5"/>
		<stop  offset="0.7982" style="stop-color:#DDDDDD"/>
		<stop  offset="1" style="stop-color:#DFDFE0"/>
	</linearGradient>
	<path class="st6" d="M644.21,415.15c-2.21-89.46,2.02-182.9,2.02-182.9l0,0c0-2.52-0.07-3.95-0.21-3.95h-73.1
		c-1.39,0-2.5,1.1-2.47,2.44l2.04,86.17c0.06,2.66-3.74,3.41-4.77,0.94L531.2,229.8c-0.38-0.91-1.28-1.5-2.29-1.5h-52.38
		l4.81,263.53h52.89c1.37,0,2.47-1.07,2.47-2.39v-46.73c0-2.25,2.92-3.25,4.39-1.51l41.8,49.74c0.47,0.56,1.17,0.88,1.92,0.88H646
		c1.42,0,2.55-1.15,2.47-2.52L644.21,415.15z"/>
	<linearGradient id="SVGID_5_" gradientUnits="userSpaceOnUse" x1="259.9081" y1="228.3039" x2="259.9081" y2="485.9835">
		<stop  offset="5.025126e-03" style="stop-color:#F3F4F4"/>
		<stop  offset="0.2888" style="stop-color:#D7D5D6"/>
		<stop  offset="0.4926" style="stop-color:#CECCCD"/>
		<stop  offset="0.4972" style="stop-color:#C8C6C7"/>
		<stop  offset="0.5032" style="stop-color:#C3C2C2"/>
		<stop  offset="0.5117" style="stop-color:#C2C1C0"/>
		<stop  offset="0.5352" style="stop-color:#C2C1C0"/>
		<stop  offset="0.5755" style="stop-color:#C9C8C8"/>
		<stop  offset="0.6761" style="stop-color:#D5D5D5"/>
		<stop  offset="0.7982" style="stop-color:#DDDDDD"/>
		<stop  offset="1" style="stop-color:#DFDFE0"/>
	</linearGradient>
	<path class="st7" d="M307.58,485.81l61.34-14.92c1.58-0.38,2.57-1.96,2.22-3.55l-51.22-236.68c-0.3-1.38-1.52-2.36-2.93-2.36
		H211.63c-1.38,0-2.58,0.94-2.91,2.27L148.7,470.66c-0.42,1.7,0.69,3.4,2.42,3.69l69.57,11.59c1.67,0.28,3.24-0.88,3.46-2.55
		l4.43-32.48c0.2-1.49,1.47-2.59,2.97-2.59h57.5c1.26,0,2.39,0.79,2.82,1.98l12.19,33.63C304.57,485.36,306.09,486.18,307.58,485.81
		z M237.06,402.56l19.57-34.95c1.25-2.24,4.56-1.97,5.44,0.44L274.73,403c0.71,1.96-0.74,4.02-2.82,4.02h-32.23
		C237.39,407.02,235.94,404.56,237.06,402.56z"/>
	<linearGradient id="SVGID_6_" gradientUnits="userSpaceOnUse" x1="419.3601" y1="222.5589" x2="419.3601" y2="491.7284">
		<stop  offset="5.025126e-03" style="stop-color:#F3F4F4"/>
		<stop  offset="0.2888" style="stop-color:#D7D5D6"/>
		<stop  offset="0.4926" style="stop-color:#CECCCD"/>
		<stop  offset="0.4972" style="stop-color:#C8C6C7"/>
		<stop  offset="0.5032" style="stop-color:#C3C2C2"/>
		<stop  offset="0.5117" style="stop-color:#C2C1C0"/>
		<stop  offset="0.5352" style="stop-color:#C2C1C0"/>
		<stop  offset="0.5755" style="stop-color:#C9C8C8"/>
		<stop  offset="0.6761" style="stop-color:#D5D5D5"/>
		<stop  offset="0.7982" style="stop-color:#DDDDDD"/>
		<stop  offset="1" style="stop-color:#DFDFE0"/>
	</linearGradient>
	<path class="st8" d="M380.71,222.57l69.89,4.69c2.68,0.18,4.78,2.37,4.86,5.05l3.48,123.44l4.63,124.3
		c0.11,2.82-2.06,5.22-4.88,5.39l-33.44,2.09l-36.93,4.16c-3.09,0.35-5.79-2.07-5.79-5.18V320.46c0-0.14-0.01-0.28-0.02-0.41
		l-7.33-91.86C374.92,225.01,377.54,222.36,380.71,222.57z"/>
	<linearGradient id="SVGID_7_" gradientUnits="userSpaceOnUse" x1="671.7974" y1="202.4291" x2="671.7974" y2="249.6378">
		<stop  offset="5.025126e-03" style="stop-color:#F3F4F4"/>
		<stop  offset="0.2888" style="stop-color:#D7D5D6"/>
		<stop  offset="0.4926" style="stop-color:#CECCCD"/>
		<stop  offset="0.4972" style="stop-color:#C8C6C7"/>
		<stop  offset="0.5032" style="stop-color:#C3C2C2"/>
		<stop  offset="0.5117" style="stop-color:#C2C1C0"/>
		<stop  offset="0.5352" style="stop-color:#C2C1C0"/>
		<stop  offset="0.5755" style="stop-color:#C9C8C8"/>
		<stop  offset="0.6761" style="stop-color:#D5D5D5"/>
		<stop  offset="0.7982" style="stop-color:#DDDDDD"/>
		<stop  offset="1" style="stop-color:#DFDFE0"/>
	</linearGradient>
	<path class="st9" d="M668.15,203.45l-11.64,44.46c-0.36,1.37,1.33,2.32,2.31,1.3l20.01-20.68c0.14-0.15,0.25-0.33,0.32-0.52
		l7.92-23.77c0.3-0.89-0.37-1.81-1.3-1.81h-16.29C668.85,202.43,668.31,202.85,668.15,203.45z"/>
	<linearGradient id="SVGID_8_" gradientUnits="userSpaceOnUse" x1="785.4892" y1="236.3574" x2="785.4892" y2="505.1733">
		<stop  offset="5.025126e-03" style="stop-color:#F3F4F4"/>
		<stop  offset="0.2888" style="stop-color:#D7D5D6"/>
		<stop  offset="0.4926" style="stop-color:#CECCCD"/>
		<stop  offset="0.4972" style="stop-color:#C8C6C7"/>
		<stop  offset="0.5032" style="stop-color:#C3C2C2"/>
		<stop  offset="0.5117" style="stop-color:#C2C1C0"/>
		<stop  offset="0.5352" style="stop-color:#C2C1C0"/>
		<stop  offset="0.5755" style="stop-color:#C9C8C8"/>
		<stop  offset="0.6761" style="stop-color:#D5D5D5"/>
		<stop  offset="0.7982" style="stop-color:#DDDDDD"/>
		<stop  offset="1" style="stop-color:#DFDFE0"/>
	</linearGradient>
	<path class="st10" d="M687.14,249.29v80.06c0,3.89,3.15,7.05,7.05,7.05h44.21c3.89,0,7.05,3.15,7.05,7.05V493.1
		c0,3.69,2.85,6.76,6.53,7.03l68.95,5.03c4.08,0.3,7.56-2.93,7.56-7.03V344.88c0-3.95,3.25-7.13,7.21-7.04l40.95,0.94
		c3.95,0.09,7.21-3.09,7.21-7.04V243.4c0-3.98-3.29-7.17-7.27-7.04l-182.61,5.89C690.16,242.38,687.14,245.49,687.14,249.29z"/>
	<path class="st11" d="M41.4,522.07"/>
	<linearGradient id="SVGID_9_" gradientUnits="userSpaceOnUse" x1="338.9376" y1="717.3032" x2="338.9376" y2="738.4097">
		<stop  offset="0.0318" style="stop-color:#D3D1D3"/>
		<stop  offset="0.2629" style="stop-color:#CAC8CB"/>
		<stop  offset="0.6229" style="stop-color:#B4B1B5"/>
		<stop  offset="1" style="stop-color:#989498"/>
	</linearGradient>
	<ellipse class="st12" cx="338.94" cy="727.86" rx="18.73" ry="10.55"/>
	<linearGradient id="SVGID_10_" gradientUnits="userSpaceOnUse" x1="426.7207" y1="584.2791" x2="451.0226" y2="584.2791">
		<stop  offset="0" style="stop-color:#D3D1D3"/>
		<stop  offset="0.2387" style="stop-color:#CAC8CB"/>
		<stop  offset="0.6105" style="stop-color:#B4B1B5"/>
		<stop  offset="1" style="stop-color:#989498"/>
	</linearGradient>
	<ellipse class="st13" cx="438.87" cy="584.28" rx="12.15" ry="16.7"/>
	<linearGradient id="SVGID_11_" gradientUnits="userSpaceOnUse" x1="426.7207" y1="668.5943" x2="451.0226" y2="668.5943">
		<stop  offset="0" style="stop-color:#D3D1D3"/>
		<stop  offset="0.2387" style="stop-color:#CAC8CB"/>
		<stop  offset="0.6105" style="stop-color:#B4B1B5"/>
		<stop  offset="1" style="stop-color:#989498"/>
	</linearGradient>
	<ellipse class="st14" cx="438.87" cy="668.59" rx="12.15" ry="16.7"/>
	<linearGradient id="SVGID_12_" gradientUnits="userSpaceOnUse" x1="551.5821" y1="488.5182" x2="551.5821" y2="786.2875">
		<stop  offset="5.617999e-03" style="stop-color:#F6E8D7"/>
		<stop  offset="0.4576" style="stop-color:#F3E6D5"/>
		<stop  offset="0.7035" style="stop-color:#ECE0CF"/>
		<stop  offset="0.8992" style="stop-color:#E2D7C6"/>
		<stop  offset="1" style="stop-color:#DCD1BF"/>
	</linearGradient>
	<path class="st15" d="M640.08,766.74l-11.98-65.1c0-0.02-0.01-0.04-0.02-0.06l-37.86-208.08c-0.7-3.84-4.79-6.02-8.37-4.47
		l-6.03,2.62c-0.14,0.05-0.27,0.11-0.41,0.16l-63.82,22.35c-2.08,0.73-3.6,2.53-3.97,4.7l-31,182.76c0,0.02-0.01,0.04-0.02,0.06
		l-13.54,78.89c-0.56,3.26,2.2,6.12,5.47,5.68l47.99-6.41c2.13-0.28,3.82-1.92,4.18-4.04l5.66-33.46c0.4-2.36,2.44-4.08,4.83-4.08
		h46.89c2.38,0,4.41,1.7,4.82,4.04l4.17,23.6c0.39,2.23,2.27,3.9,4.53,4.04l43.36,2.58C638.15,772.7,640.66,769.86,640.08,766.74z
		 M561.58,623.48l12.65,68.16c0.69,3.72-2.17,7.16-5.95,7.16h-29.65c0,0,0,0,0,0h-2.03c-0.91,0-1.59-0.83-1.42-1.72l14.51-73.67
		C550.97,616.87,560.36,616.92,561.58,623.48z"/>
	<linearGradient id="SVGID_13_" gradientUnits="userSpaceOnUse" x1="892.2607" y1="491.8307" x2="892.2607" y2="787.4397">
		<stop  offset="5.617999e-03" style="stop-color:#F6E8D7"/>
		<stop  offset="0.4576" style="stop-color:#F3E6D5"/>
		<stop  offset="0.7035" style="stop-color:#ECE0CF"/>
		<stop  offset="0.8992" style="stop-color:#E2D7C6"/>
		<stop  offset="1" style="stop-color:#DCD1BF"/>
	</linearGradient>
	<path class="st16" d="M824.87,785.08c10.25-96.74,11.05-194.21,0.48-293.03c0.61-0.05,1.09-0.11,1.57-0.11
		c10.48-0.03,20.97-0.03,31.45-0.09c9.79-0.05,31.25,0.02,32.11,0.5c17.76,9.87,69.28,48.41,69.18,53.96
		c-0.44,24.03-1.74,88.05-1.89,93.33c-0.3,10,1.57,91.93,1.33,101.7c-0.04,1.5-10.03,8.37-14.41,11.34
		c-8.59,5.81-17.17,11.62-25.76,17.43c-8.27,5.6-16.54,11.2-24.83,16.75c-0.65,0.44-1.43,0.57-2.15,0.59
		c-1.28,0.02-2.55-0.2-3.83-0.24c-7.92-0.22-15.84-0.42-23.76-0.64c-4.77-0.14-9.54-0.31-14.31-0.47c-4.53-0.15-9.05-0.3-13.58-0.46
		c-3.49-0.12-6.98-0.27-10.47-0.41C825.7,785.22,825.41,785.15,824.87,785.08z M877.73,715.81c7.57-3.36,15.09-6.69,22.62-10.04
		c5.28-2.34,8.81-8.49,8.83-15.39c0.12-32.17,0.34-64.22,0.31-96.24c-0.01-6.86-3.49-13-8.73-15.39c-8.9-4.06-17.75-8.1-26.65-12.16
		c-0.03,0.82-0.09,1.42-0.08,2.02c0.06,2.4,0.17,4.8,0.23,7.21c0.21,8.38,0.4,16.75,0.61,25.13c0.19,7.68,0.39,15.35,0.57,23.03
		c0.21,8.38,0.4,16.75,0.61,25.13c0.19,7.75,0.39,15.51,0.57,23.26c0.22,9.39,0.43,18.77,0.65,28.16c0.11,4.65,0.21,9.31,0.32,13.96
		C877.59,714.85,877.66,715.22,877.73,715.81z"/>
	<linearGradient id="SVGID_14_" gradientUnits="userSpaceOnUse" x1="128.0535" y1="460.984" x2="128.0535" y2="807.4048">
		<stop  offset="5.617999e-03" style="stop-color:#F6E8D7"/>
		<stop  offset="0.4576" style="stop-color:#F3E6D5"/>
		<stop  offset="0.7035" style="stop-color:#ECE0CF"/>
		<stop  offset="0.8992" style="stop-color:#E2D7C6"/>
		<stop  offset="1" style="stop-color:#DCD1BF"/>
	</linearGradient>
	<path class="st17" d="M48.03,476.82c-0.18-3.24,1.84-6.06,4.59-6.39c10.43-1.26,33.95-4.01,36.57-4.32
		c5.74-0.67,38.86-4.47,44.18-5.13c2.26-0.28,64.23,40.25,64.32,42.47c0.45,11.44,4.51,53.01,4.15,60.84
		c-0.14,2.95-13.4,43.25-16.85,51.26c-0.69,1.61-0.74,3.49-0.12,5.15c3.06,8.21,11.79,31.5,15.49,41.26
		c0.66,1.73,7.49,45.75,7.71,51.65c0.31,8.29-8.95,49.26-10.38,50.24c-6.01,4.1-13.91,12.67-24.17,21.52
		c-10.84,7.33-21.67,14.65-32.5,22c-0.79,0.54-45.18-8.66-50.46-9.78c-4.23-0.9-26.6-5.72-36.21-7.86c-2.53-0.56-4.3-3.23-4.16-6.25
		c1.16-24.78,6.24-129.61,6.14-144.76C56.23,623.55,49.56,504.61,48.03,476.82z M106.66,707.17c0,3.49-2.96,46.33,0,46.1
		c9.58-0.75,28.5,5.14,30.86,4.94c0,0,0.4-88.08,0-93.86c-0.15-2.12-13.65-1.88-24.1-6.03c-3.32-1.32-6.76,1.6-6.76,5.73V707.17z
		 M134.39,586.41c0.72-10.05,1.49-71.46-1.39-71.67c-8.1-0.58-17.23,0.47-25.34,0c-2.91-0.17,0.08,54.21,0,64.49
		C107.64,582.52,134.17,589.61,134.39,586.41z"/>
	<linearGradient id="SVGID_15_" gradientUnits="userSpaceOnUse" x1="731.6519" y1="479.5776" x2="731.6519" y2="788.8113">
		<stop  offset="5.617999e-03" style="stop-color:#F6E8D7"/>
		<stop  offset="0.4576" style="stop-color:#F3E6D5"/>
		<stop  offset="0.7035" style="stop-color:#ECE0CF"/>
		<stop  offset="0.8992" style="stop-color:#E2D7C6"/>
		<stop  offset="1" style="stop-color:#DCD1BF"/>
	</linearGradient>
	<path class="st18" d="M760.44,645.45l36.1-38.38c0.69-0.73,0.94-1.77,0.69-2.74c-1.27-4.81-4.25-23.17,0.35-81.69
		c0.08-1.05-0.41-2.07-1.3-2.65c-6.98-4.52-37.81-24.46-55.9-36.09c-0.25-0.16-0.51-0.27-0.79-0.35
		c-4.81-1.27-49.13-12.09-92.95,8.43c-0.01,0-0.02,0.01-0.02,0.01c-1.32,0.6-1.97,2.09-1.53,3.48
		c5.11,16.26,32.63,116.18-0.03,291.2c-0.24,1.3,0.93,2.42,2.19,2.08l55.45-14.73c1.14-0.3,1.98-1.27,2.13-2.44l10.27-82.38
		c0.36-2.91,4.35-3.46,5.49-0.76l35.95,85.3c0.37,0.88,1.15,1.52,2.09,1.7l57.63,11.23c1.4,0.27,2.54-1.16,1.97-2.48l-58.32-135.61
		C759.43,647.52,759.65,646.29,760.44,645.45z M712.49,605.34l-4.26-78.64c-0.07-1.27,1.16-2.21,2.35-1.8l29.39,10.2
		c1.21,0.42,1.99,1.58,1.94,2.85l-2.44,60.8c-0.05,1.28-0.94,2.37-2.18,2.67l-22.61,5.56C713.6,607.26,712.55,606.47,712.49,605.34z
		"/>
	<path class="st19" d="M743.61,506.19"/>
	<path class="st5" d="M416.88,703.51"/>
	<path class="st5" d="M460.86,749.14"/>
	<linearGradient id="SVGID_16_" gradientUnits="userSpaceOnUse" x1="317.4028" y1="516.8004" x2="317.4028" y2="701.271">
		<stop  offset="5.617999e-03" style="stop-color:#F6E8D7"/>
		<stop  offset="0.4576" style="stop-color:#F3E6D5"/>
		<stop  offset="0.7035" style="stop-color:#ECE0CF"/>
		<stop  offset="0.8992" style="stop-color:#E2D7C6"/>
		<stop  offset="1" style="stop-color:#DCD1BF"/>
	</linearGradient>
	<path class="st20" d="M232.32,516.8h170.17c6.54,0,11.85,5.3,11.85,11.85v160.77c0,6.54-5.3,11.85-11.85,11.85H232.32
		c-6.54,0-11.85-5.3-11.85-11.85V528.65C220.47,522.1,225.77,516.8,232.32,516.8z"/>
	<radialGradient id="SVGID_17_" cx="364.3406" cy="565.9261" r="19.8147" gradientUnits="userSpaceOnUse">
		<stop  offset="0.0318" style="stop-color:#D3D1D3"/>
		<stop  offset="0.4423" style="stop-color:#CECECF"/>
		<stop  offset="0.7934" style="stop-color:#C1C3C5"/>
		<stop  offset="1" style="stop-color:#B4B9BB"/>
	</radialGradient>
	<circle class="st21" cx="364.34" cy="565.93" r="19.81"/>
	<radialGradient id="SVGID_18_" cx="268.3787" cy="659.9385" r="19.8147" gradientUnits="userSpaceOnUse">
		<stop  offset="0.0318" style="stop-color:#D3D1D3"/>
		<stop  offset="0.4423" style="stop-color:#CECECF"/>
		<stop  offset="0.7934" style="stop-color:#C1C3C5"/>
		<stop  offset="1" style="stop-color:#B4B9BB"/>
	</radialGradient>
	<circle class="st22" cx="268.38" cy="659.94" r="19.81"/>
	<radialGradient id="SVGID_19_" cx="314.7718" cy="609.0357" r="19.8147" gradientUnits="userSpaceOnUse">
		<stop  offset="0.0318" style="stop-color:#D3D1D3"/>
		<stop  offset="0.4423" style="stop-color:#CECECF"/>
		<stop  offset="0.7934" style="stop-color:#C1C3C5"/>
		<stop  offset="1" style="stop-color:#B4B9BB"/>
	</radialGradient>
	<circle class="st23" cx="314.77" cy="609.04" r="19.81"/>
	<radialGradient id="SVGID_20_" cx="364.3406" cy="659.9385" r="19.8147" gradientUnits="userSpaceOnUse">
		<stop  offset="0.0318" style="stop-color:#D3D1D3"/>
		<stop  offset="0.4423" style="stop-color:#CECECF"/>
		<stop  offset="0.7934" style="stop-color:#C1C3C5"/>
		<stop  offset="1" style="stop-color:#B4B9BB"/>
	</radialGradient>
	<circle class="st24" cx="364.34" cy="659.94" r="19.81"/>
	<radialGradient id="SVGID_21_" cx="268.3787" cy="565.9261" r="19.8147" gradientUnits="userSpaceOnUse">
		<stop  offset="0.0318" style="stop-color:#D3D1D3"/>
		<stop  offset="0.4423" style="stop-color:#CECECF"/>
		<stop  offset="0.7934" style="stop-color:#C1C3C5"/>
		<stop  offset="1" style="stop-color:#B4B9BB"/>
	</radialGradient>
	<circle class="st25" cx="268.38" cy="565.93" r="19.81"/>
	<radialGradient id="SVGID_22_" cx="-68.5294" cy="434.4118" r="0" gradientUnits="userSpaceOnUse">
		<stop  offset="0.0318" style="stop-color:#D3D1D3"/>
		<stop  offset="0.4423" style="stop-color:#CECECF"/>
		<stop  offset="0.7934" style="stop-color:#C1C3C5"/>
		<stop  offset="1" style="stop-color:#B4B9BB"/>
	</radialGradient>
	<path class="st26" d="M-68.53,434.41"/>
</g>
<g id="Layer_5">
	<polygon class="st27" points="210.29,164.41 231.47,156.65 211.71,156.65 	"/>
	<polygon class="st28" points="291.14,230.76 310.9,232.17 357.14,414.29 317.61,230.76 	"/>
	<path class="st28" d="M273.05,409.23l-34.72,0.44l43.95,3.14l-7.98-23.54l-14.38-38.51l-25.71,51.41l24.02-37.7
		c0.71-1.02,2.28-0.82,2.71,0.35l9.63,26.33l4.94,13.37C276.56,406.92,275.66,409.19,273.05,409.23z"/>
	<path class="st28" d="M383.14,289.47l-2.35-61.17h50.35l-49.5-3.27c-2.18-0.14-3.98,1.69-3.79,3.87L383.14,289.47z"/>
	<path class="st28" d="M385.02,477.12v9.56c0,2.25,2.01,3.96,4.23,3.61l14.12-3.17C403.38,487.12,390.32,487.35,385.02,477.12z"/>
	<path class="st28" d="M452.32,230.76l4.24,252.18l0,0c2.96,0.41,5.57-1.95,5.45-4.94L452.32,230.76z"/>
	<polyline class="st28" points="481.02,300.29 485.26,236.36 526.2,236.36 567.14,322.53 529.73,230.76 479.61,230.76 	"/>
	<path class="st29" d="M625.96,230.76c0,0,15.58,1.07,17.41,5.59v-5.59H625.96z"/>
	<polygon class="st29" points="483.38,457 489.92,489.47 483.38,489.47 	"/>
	<path class="st28" d="M643.38,249.64c0,0-11.73,157.91,1.57,238.88C644.95,488.52,640.08,298.75,643.38,249.64z"/>
	<path class="st29" d="M533.96,488.52l-3.53-66.81l51.88,64.28l-41.18-46.89c-1.82-2.07-5.24-0.86-5.35,1.9L533.96,488.52z"/>
	<polygon class="st29" points="670.12,204.76 681.85,212.49 684.67,204.76 	"/>
	<path class="st29" d="M689.96,276.65l8.86-26.74l178.9-9.84l-181.17,3.48c-3.66,0.07-6.59,3.06-6.59,6.72V276.65z"/>
	<path class="st29" d="M881.29,321.35c-0.74,3.77-4.62,13.08-10.18,14.74l4.36,0.36c3.32,0.27,6.14-2.39,6.05-5.71
		C881.52,330.74,881.58,319.88,881.29,321.35z"/>
	<path class="st29" d="M692.79,333.47l52.57-2.2c3.45-0.14,6.3,2.66,6.22,6.11L748.2,481l-0.68-140.04
		c-0.02-3.39-2.72-6.15-6.11-6.24L692.79,333.47z"/>
	<path class="st30" d="M50.96,483.91L50.96,483.91c2.53-5.64,7.74-9.63,13.85-10.6l47.21-7.49l-56.26,5.64
		c-3.21,0.18-5.61,3-5.29,6.19L50.96,483.91z"/>
	<path class="st30" d="M165.85,483.91l30.19,30.65l-0.54-9.92C195.49,504.65,168.67,484.17,165.85,483.91z"/>
	<path class="st30" d="M137.28,537.85l2.5,54.09c0.06,1.13-1.04,1.97-2.11,1.61l-23.22-7.25l17.55,3.28
		c2.46,0.59,4.84-1.25,4.88-3.78L137.28,537.85z"/>
	<path class="st30" d="M197.96,546.11l1.18,18.42c0,0-15.29,49.41-16.71,50.82L197.96,546.11z"/>
	<polygon class="st30" points="192.25,647.01 205.58,713.6 199.14,664.53 	"/>
	<path class="st30" d="M103.73,662.41l-2.4,93.22c-0.04,1.45,1.07,2.67,2.52,2.78l36.17,2.54c-0.58-0.82-18-5.43-32-5.42
		c-1.49,0-2.7-1.17-2.72-2.66L103.73,662.41z"/>
	<path class="st30" d="M53.26,771.82l2.22,9.54c0.32,1.36,1.1,2.57,2.21,3.42l5.45,4.16l-5.53-0.88c-3.18,0-5.66-2.74-5.36-5.9
		L53.26,771.82z"/>
	<path class="st30" d="M223.14,609.04l5.27-78.66c0.21-3.16,2.79-5.63,5.95-5.72l169.01-5.24l-170.23,0
		c-5.52-0.02-10.01,4.45-10.01,9.97V609.04z"/>
	<path class="st30" d="M222.91,682.76l3.58,8.27c0.66,1.51,1.73,2.81,3.1,3.73l5.79,3.89h-3.82c-4.78,0-8.65-3.87-8.65-8.65V682.76z
		"/>
	<path class="st30" d="M410.55,548.65l-3.9,148.72l0,0c3.39-0.87,5.74-3.95,5.69-7.44L410.55,548.65z"/>
	<path class="st30" d="M242.2,591.12"/>
	<path class="st30" d="M465.96,780.53l48.7-254.91c0.75-3.95,3.15-7.4,6.59-9.49l10.59-6.43l-17.99,6.17
		c-1.67,0.57-2.9,2.02-3.2,3.76L465.96,780.53z"/>
	<path class="st30" d="M533.96,735.59l50.72-3.18c0.98-0.06,1.83,0.66,1.92,1.64l3.01,31.78l-3.99-23.85
		c-0.62-3.69-3.81-6.39-7.55-6.39H533.96z"/>
	<path class="st30" d="M636.76,762.73l-0.33,2.4c-0.19,1.39-0.63,2.73-1.31,3.95l-0.48,0.88h0.52c1.56,0,2.73-1.42,2.43-2.95
		L636.76,762.73z"/>
	<path class="st30" d="M535.15,701.27l42.19,2.09c1.51,0.07,2.68-1.29,2.38-2.77l-12.58-61.71l9.22,54.31
		c0.72,4.23-2.54,8.08-6.83,8.08H535.15z"/>
	<path class="st30" d="M589.61,505.17c0,0,25.94,179.87,45.03,243.97L589.61,505.17z"/>
	<path class="st30" d="M651.85,509.7v-7.82c0-2.95,1.63-5.65,4.25-7.01c9.11-4.74,33.52-13.7,79.45-6.6
		c0.97,0.15,1.92,0.49,2.77,0.98l56.12,32.67l-56-36.29c0,0-47.53-12.88-91.29,8.53L651.85,509.7z"/>
	<path class="st30" d="M794.43,529.88c0,0-7.24,45.53,0,75.18C794.43,605.06,790.91,565.88,794.43,529.88z"/>
	<polygon class="st30" points="758.96,643.17 793.69,601.71 794.43,605.06 	"/>
	<path class="st30" d="M714.2,609.7l30.82-5.65v-72.94l-27.29-6.31l22.59,7.15c1.95,0.62,3.26,2.45,3.21,4.5l-1.53,62.26
		c-0.04,1.79-1.24,3.34-2.96,3.83L714.2,609.7z"/>
	<path class="st30" d="M663.49,622.44c0,0,0.86,113.53-10.1,155.22c-0.37,1.4,0.81,2.71,2.24,2.48l31.86-5.15l-37.9,10.64
		c-1.05,0.3-2.04-0.63-1.81-1.69C650.55,771.06,663.49,706.5,663.49,622.44z"/>
	<path class="st30" d="M733.14,710.76l27.76,59.21l25.06,8.06l-26.72-4.43c-0.91-0.15-1.66-0.76-2-1.62L733.14,710.76z"/>
	<path class="st30" d="M828.32,780.53c0,0,27.85-102.21,0.16-282.4C828.48,498.13,843.14,653,828.32,780.53z"/>
	<path class="st30" d="M889.38,494.76l61.07,50.67c2.02,1.67,3.26,4.1,3.44,6.72l2.19,32.25l1.33-35.81
		c0.05-1.46-0.55-2.87-1.64-3.85C946.81,536.78,905.39,500.41,889.38,494.76z"/>
	<path class="st30" d="M876.67,719.41l30.28-12.91c3.46-1.48,5.7-4.89,5.67-8.65l-0.66-77.45l-0.76,72.58
		c-0.07,6.44-3.84,12.27-9.69,14.97L876.67,719.41z"/>
	<path class="st30" d="M956.51,722.23c0,0-1.63,19.86-7.04,24.09l7.15-5.74L956.51,722.23z"/>
</g>
</svg>
