<svg xmlns="http://www.w3.org/2000/svg" viewBox="0 0 450.47 200.8"><g id="ac378205-85bd-4898-acd6-6445125359d8" data-name="character 1"><path d="M374.54,220.72l42.24-52.81a3.21,3.21,0,0,1,6.28,1,3.09,3.09,0,0,1-.33,1.39h0l0,0a3.07,3.07,0,0,1-.78,1L382.6,221.22a2.79,2.79,0,0,1-2.19,1.07H375.3A1,1,0,0,1,374.54,220.72Z" transform="translate(-8.82 -24.87)" fill="#351a0c"/><path d="M432.87,222.32l-42.24-52.81a3.21,3.21,0,1,0-5.95,2.34h0l0,0a3,3,0,0,0,.79,1l39.31,49.92a2.81,2.81,0,0,0,2.19,1.07h5.12A1,1,0,0,0,432.87,222.32Z" transform="translate(-8.82 -24.87)" fill="#351a0c"/><path d="M406.34,223.55l42.24-59.14a3.27,3.27,0,0,1,3.06-2.54,3.44,3.44,0,0,1,3.22,3.61,4,4,0,0,1-.33,1.56h0l0,.05a3.49,3.49,0,0,1-.79,1.13L414.4,224.11a2.7,2.7,0,0,1-2.19,1.19h-5.12A1.1,1.1,0,0,1,406.34,223.55Z" transform="translate(-8.82 -24.87)" fill="#552a11"/><path d="M459.29,106l-6.56,51A25.3,25.3,0,0,1,448,168.9a48.93,48.93,0,0,1-7.69,8.1c-11,9.22-26.42,11.62-39.36,5.41-6.64-3.18-12.78-8.65-14.08-18,0,0,6.45,4.94,17.93,5.17,0,0,10.54.16,25.06-11a52,52,0,0,0,14.58-17.76A307.59,307.59,0,0,0,459.29,106Z" transform="translate(-8.82 -24.87)" fill="#9a4c23"/><path d="M446.52,101.54s11.13,1.64,12.77,4.47c0,0-8.23,27.76-19.76,43.76,0,0-12.24,18.12-34.78,19.76,0,0-11.57.24-17.93-5.17Z" transform="translate(-8.82 -24.87)" fill="#d3732f"/><path d="M452.55,224.12l-42.23-52.34c-1.6-1.84-1.62-2.24-3.06-2.24a4,4,0,0,0-2.51,1,2.61,2.61,0,0,0-.47,3.32,8.65,8.65,0,0,0,.9,1.34l39.31,49.47a2.8,2.8,0,0,0,2.19,1.06h5.12A1,1,0,0,0,452.55,224.12Z" transform="translate(-8.82 -24.87)" fill="#552a11"/><path d="M408.61,138.62s1.24,22.22-4.76,27.69c0,0-8.23-.47-13.59-4.82,0,0-9.14-4.56-10.38-6,0,0,0,52.92,3.69,65.07a1.37,1.37,0,0,1-1.43,1.75c-6.21-.47-23.68-2.21-31.43-7.3a4.12,4.12,0,0,1-1.77-4,629.76,629.76,0,0,1,15.72-74.46,6.61,6.61,0,0,1,4.9-4.69l3.85-.87s7.61-2,27.1,4.38Z" transform="translate(-8.82 -24.87)" fill="#634735"/><path d="M390.71,45.18s-2.12,21.41,0,25.65c0,0,.23,3.06,6.82,3.65,0,0,2.6-.28,2.47,3.88l.13,7.76s.11,4.12,4.22.59V78.48l9.26-1.89s-3.23-1.83-.07-4.21h0s5.52.1,6-6.61h0S420.82,62,416.47,61h0s-4.94-2.12-6.59,5.53h0a2,2,0,0,1-2.7-.24h0s-.71-6.23-4-8.71h0s-10.36-21.64-12.47-12.35" transform="translate(-8.82 -24.87)" fill="#f7cda8"/><polygon points="391.18 53.49 383.74 56.05 388.31 65.41 387.09 80.43 389.03 75.93 391.31 61.25 391.18 53.49" fill="#e6e6e6"/><path d="M396.92,74.41a4.37,4.37,0,0,1,2.39,1.1,1.64,1.64,0,0,1,.42,1.06l.28,2.1s3.83.53,10.2-5.08h0A51.71,51.71,0,0,1,396.92,74.41Z" transform="translate(-8.82 -24.87)" fill="#d8a17c"/><path d="M349.3,214s-4.84,2.15-14.29.54a4.73,4.73,0,0,0-5.09,2.93,6,6,0,0,0-.2,4.86s1.27,2.17,3.18,2.2h37.24s1.27-1.42,0-4Z" transform="translate(-8.82 -24.87)" fill="#1d1f28"/><path d="M346.86,215.7s-4.78,1.94-14.09.49a4.76,4.76,0,0,0-5,2.63,5,5,0,0,0-.19,4.36,4.4,4.4,0,0,0,3.13,2H367.4s1.25-1.27,0-3.63Z" transform="translate(-8.82 -24.87)" fill="#444551"/><path d="M327.56,223.18s1.93,2,3.13,2H367.4a2.86,2.86,0,0,0,.56-2.87S350,222.83,327.56,223.18Z" transform="translate(-8.82 -24.87)" fill="#1d1f28"/><path d="M405.17,141.49s1.24,22.22-4.76,27.69c0,0-8.23-.47-13.59-4.82,0,0-9.14-4.56-10.38-6,0,0,0,52.92,3.69,65.07a1.37,1.37,0,0,1-1.43,1.75c-6.21-.47-23.68-2.21-31.43-7.31a4.11,4.11,0,0,1-1.78-4,632.8,632.8,0,0,1,15.73-74.46,6.61,6.61,0,0,1,4.9-4.69l3.85-.87s7.61-2,27.1,4.38Z" transform="translate(-8.82 -24.87)" fill="#966948"/><path d="M396.35,122.35s1.22,9.11-1.54,11.22c0,0-1.3,5.28,10.36,7.92V112.65Z" transform="translate(-8.82 -24.87)" fill="#9a4c23"/><path d="M400.13,86.12s.11,3.65,4.22.59l-6.23,12.34Z" transform="translate(-8.82 -24.87)" fill="#9a4c23"/><path d="M394.73,99.85s-9.62,12.44-51.23,27.4c0,0-15.05-3-15.81,1.48s1.2,12.92,1.2,12.92,1.53,3.67,6.87-1.16c0,0,9.32-1,11.64-4.87,0,0,48.75-9.87,57.46-23.7C404.86,111.92,404.32,107.35,394.73,99.85Z" transform="translate(-8.82 -24.87)" fill="#d8a17c"/><path d="M401.88,122.06l2,1.42s2-1.23,1-4.5Z" transform="translate(-8.82 -24.87)" fill="#919191"/><path d="M396.62,89.22s-1.68,6.39-9.8,17.22l3.77,4,5.26-4.47,1.29-15.73Z" transform="translate(-8.82 -24.87)" fill="#919191"/><path d="M414.61,75.27l1.15,3.38c4.66,2.65,14.17,8,20.16,24.76a53.86,53.86,0,0,1,2.89,13.22c.75,8.12,1.76,22.48.72,33.14,0,0-15.47,22.24-39.12,19.41,0,0,4.8-7.24,4.34-24.8,0,0-.21-19-.86-20.9,0,0,12.35-3.36,19.17-17.47a22,22,0,0,0-1.65-15.89s-5.09-8.64-12.69-7.06a62.79,62.79,0,0,0-6.17,7.22l1.61-12.16Z" transform="translate(-8.82 -24.87)" fill="#e6e6e6"/><path d="M403.89,123.48s11-.8,19.17-17.47c0,0,4.18-6.27-1.65-15.89,0,0-5.27-8.82-12.69-7.06,0,0-5.4-.35-12.81,22.24C395.91,105.3,408.69,117.21,403.89,123.48Z" transform="translate(-8.82 -24.87)" fill="#c4c4c4"/><path d="M390,53.06s-7.29-19.29,13.18-21.29a27.08,27.08,0,0,1,17.64,5.06s7.77-5.88,17.53,0c0,0,4.83,2.12,5.77,10l2.82,64.23a17.47,17.47,0,0,1-.82,6.59s-2.24,4.24-6.36,4.71c0,0,.83-14.12-10.47-32.47l-.11-19.18s-7.3,9.53-16.83,5.41a2.14,2.14,0,0,1-.17-.17,2.21,2.21,0,0,1,1.36-3.57,6.59,6.59,0,0,0,6-6.61A4.74,4.74,0,0,0,416.47,61s-4.23-2-6.59,5.53c0,0-1.41,4.11-2.7-.24a41.42,41.42,0,0,0-4-8.71s-10.77-16.17-12.47-12.35Z" transform="translate(-8.82 -24.87)" fill="#292a41"/><path d="M391.58,82.14a.45.45,0,0,0,.09.64L394,83.94l-1.48-3Z" transform="translate(-8.82 -24.87)" fill="#919191"/><path d="M395.91,105.3s-10.73,12.13-53.56,23.76c0,0-14.7-4.58-15.88,0s0,13.69,0,13.69,1.18,4,6.94-.54c0,0,9.38-.09,12-4,0,0,49.47-5.59,59.42-19.26C404.87,119,404.76,114.12,395.91,105.3Z" transform="translate(-8.82 -24.87)" fill="#f7cda8"/><path d="M386.82,234.83" transform="translate(-8.82 -24.87)" fill="#919191"/><path d="M52.41,179.32" transform="translate(-8.82 -24.87)" fill="#966948"/></g><g id="f2401d92-9778-466b-84ba-5be4d886cec6" data-name="character 2"><path d="M318.7,87.55s3.71,52.16-3.52,67.16H297.71Z" transform="translate(-8.82 -24.87)" fill="#9a4c23"/><path d="M308.88,85.36h7.75a2.07,2.07,0,0,1,2.07,2.19c-.6,10.1-3.46,52-9.82,58.45l-17.49.58,1.38-52.69Z" transform="translate(-8.82 -24.87)" fill="#d3732f"/><path d="M258.29,41.39s-1.79,10.53-3.38,14.06a55.79,55.79,0,0,1-8.73,8.82s-6.09,5.38-1.24,11.91h23.4l.25-2.73s3.09-3.31-2.65-4.59C265.94,68.86,256.17,66.36,258.29,41.39Z" transform="translate(-8.82 -24.87)" fill="#292a41"/><path d="M259.32,36.39s-7,32.2,6.1,32.43c0,0,4.17.1,3.17,4.63,0,0,3.09,4.32,7.59.53a28.79,28.79,0,0,0,0-26.92s-4.68-4.94-8.39-6.44C267.79,40.62,260.65,38,259.32,36.39Z" transform="translate(-8.82 -24.87)" fill="#f7cda8"/><path d="M307.24,83.42a83.25,83.25,0,0,1-15.71,8.29L290,93.43l-17-10.5a42.08,42.08,0,0,1,4.9-9.4s-7.41,2.58-9.35-.08c0,0-1.7,2.26-3.62,2.44a9.57,9.57,0,0,1-3.38-.07s-3.69-.66-7.78-1.12c-5.55-.62-8.87,1.41-13,7.43,0,0-14.55,24.79-16.44,44.91-1.12,12,14.23,3.27,14.23,3.27,4.93-3.47,8.94-6.23,12.21-8.41,0,3.39-.19,12.39-.67,14.11l12.34,4.11h36c1.69,1.23,1.69-6.67,1.48-12.46l3.77-1.5a8,8,0,0,0,3.85-4.74C315,93.83,307.24,83.42,307.24,83.42ZM250.79,95.51c-1.45,4.42-3.2,10.63-2.09,12l7.47-5.19,6.45,10.29h0l-6.45-10.29-10.3,7.16Z" transform="translate(-8.82 -24.87)" fill="#f1ae7e"/><polyline points="257.88 115.25 291.53 102.59 266.24 115.13 257.88 115.25" fill="#c9885b"/><path d="M256.24,103l-16.36,10.21a17.1,17.1,0,0,0-2.35,3l17.71-11.07Z" transform="translate(-8.82 -24.87)" fill="#c9885b"/><polygon points="243.59 64.78 244.19 67.2 237.34 84.58 234.24 86.77 243.59 64.78" fill="#c9885b"/><polygon points="241.29 66.02 240.96 68.52 241.55 72.01 242.37 69.31 241.29 66.02" fill="#c9885b"/><path d="M296.71,110.91,294,113.55,255.24,133.1l1.51.69,35.91-17.91a6.65,6.65,0,0,0,2.86-2.77Z" transform="translate(-8.82 -24.87)" fill="#c9885b"/><polygon points="283.95 72.84 285.2 74.91 285.68 88.04 284.35 89.42 283.95 72.84" fill="#c9885b"/><path d="M250.84,121.72a82.94,82.94,0,0,0,11.78-9.07s-4.71,9.41-11.94,14.41Z" transform="translate(-8.82 -24.87)" fill="#c9885b"/><path d="M268.67,72.65a8,8,0,0,1-3.59,3h0c-.68,1,4.91,2.29,7.53,2l5.33-.52V72.76S270.94,75.9,268.67,72.65Z" transform="translate(-8.82 -24.87)" fill="#ffede1"/><path d="M258.29,41.39s-4.77-3,0-10.21c0,0,10.18-10.82,29.71-4.12,0,0,6.59,2.89,6.82,9.33a50.16,50.16,0,0,0,1.3,10.32s.82,5.62,4.76,9.25c0,0,12,11.46,12.41,16.28,0,0,2.24,7.06-4.41,13.12,0,0-13.7,12.7-28.53,10.47,0,0-6.53-1.41-8.7-5.12,0,0-5.53-6.76,2.47-13.59,0,0,4.45-4.41,5.43-15.76,0,0,.69-12.65-9.08-18.88A38.51,38.51,0,0,0,263.59,39s-4.24-1.77-4.27-2.56Z" transform="translate(-8.82 -24.87)" fill="#292a41"/><path d="M256.24,103s.79,6.61,6.38,9.62c0,0-.91,3.23-3.68,3.23,0,0-6.83-4.51-6.54-10.45A3.76,3.76,0,0,1,256.24,103Z" transform="translate(-8.82 -24.87)" fill="#ffede1"/><path d="M255.24,133.1s5.76,2.28,7.22,7h4.35a1.16,1.16,0,0,0,1.08-1.58c-.8-1.93-2.85-5.27-7.93-7.91C260,130.63,256.17,130.63,255.24,133.1Z" transform="translate(-8.82 -24.87)" fill="#ffede1"/><path d="M256.65,94.6l.87.61a2.17,2.17,0,0,1,1,1.76v4.62L262,100.4l-.85-4.21a2.58,2.58,0,0,1,.16-1.55L262,93Z" transform="translate(-8.82 -24.87)" fill="#9a4c23"/><path d="M256.24,103,262,98a1.23,1.23,0,0,1,1.94.45l3.69,8.91a2.5,2.5,0,0,1-1.12,3.16l-3.9,2.13S257.48,111.36,256.24,103Z" transform="translate(-8.82 -24.87)" fill="#f7cda8"/><path d="M255.24,133.1l-1.66.93a20.08,20.08,0,0,1-6.3,2.31l-4.38,1.06-1.52.41a7.56,7.56,0,0,0-4.44,2.87h25.68S261.88,135.25,255.24,133.1Z" transform="translate(-8.82 -24.87)" fill="#f7cda8"/><path d="M265.94,68.86s3.39.73,2.73,3.79c0,0,4.79,2.81,10.06-5.83C278.73,66.82,273.94,69.77,265.94,68.86Z" transform="translate(-8.82 -24.87)" fill="#d8a17c"/></g><g id="b4081e4a-4940-4787-98ed-2593c42ab96a" data-name="character 3"><path d="M21.73,183.57s14.15,2.42,19.73,2.68l-4-9s1.86-3.36,6.28-1.54l6,10.42s83,2.26,99.51-2.57c0,0,12,20.46,0,40.69,0,0-58.5-3.52-67.8-.91,0,0-13.38-1.27-21.57-.53,0,0-31.84-.54-38.16,1.44S7.9,195.91,21.73,183.57Z" transform="translate(-8.82 -24.87)" fill="#492616"/><path d="M55.81,186.29l41.72.46S65.21,212.25,55.81,186.29Z" transform="translate(-8.82 -24.87)" fill="#21140e"/><ellipse cx="10.68" cy="178.79" rx="10.68" ry="20.6" fill="#351a0c"/><polygon points="87.26 133.01 101.33 124.9 81.44 124.9 62.79 141.21 87.26 133.01" fill="#634735"/><path d="M120.27,166.79S119.14,179.3,135.72,215l8.35-2.73-9.49-65.45Z" transform="translate(-8.82 -24.87)" fill="#d8a17c"/><path d="M99.1,149.6s13.49-2.18,22-3.19a10.8,10.8,0,0,1,11.73,7.6,14.92,14.92,0,0,1,.27,6.85L112.49,218l-12.28,1.78,11.14-44-.8,3.14c-4.46,3.69-7.44,4.77-12.64,6.94h0S82.89,175.17,99.1,149.6Z" transform="translate(-8.82 -24.87)" fill="#f7cda8"/><path d="M81.67,153.34,51.16,171.66s-2.86,35,47.35,14c0,0-14.51-10.28,1.7-35.85Z" transform="translate(-8.82 -24.87)" fill="#966948"/><path d="M99,127.26l1,17.27,24.26-1.11,15.76-8.8a4,4,0,0,1,2.09-.49l2.64.13a3.87,3.87,0,0,0,2-.45l15.67-8.36A1.69,1.69,0,0,0,163,123L154.6,118a2.64,2.64,0,0,0-2.5-.11l-6.67,4a.38.38,0,0,1-.57-.38l.72-5.23a1.93,1.93,0,0,0-.22-1.45h0a.86.86,0,0,0-1.39-.16h0a5.59,5.59,0,0,0-1.17,1.93l-2.76,7.6a2.91,2.91,0,0,1-1.63,1.7l-24.75,10.19a1.45,1.45,0,0,1-1.93-1l-3.62-11.69Z" transform="translate(-8.82 -24.87)" fill="#d8a17c"/><path d="M79,95.22a58.65,58.65,0,0,0-15.31,7.59,25.22,25.22,0,0,0-8.09,10c-3.84,8.49-10.16,28-4.58,56.14a36.25,36.25,0,0,1,0,10.28s2.07,1.78,20.61-13.18a64,64,0,0,1,23.06-10.37s4.86-2.36,5.53-7.5c0,0-1.31-42.71-6.32-48.31" transform="translate(-8.82 -24.87)" fill="#c4c4c4"/><path d="M92.14,99.16l7.87,3a7.41,7.41,0,0,1,4.61,4.64l5.49,18.63a1.25,1.25,0,0,1-1.31,1.5l-9.78.35s-2.66-23.33-6.88-28.1h0" transform="translate(-8.82 -24.87)" fill="#919191"/><path d="M97,155.38l27.63-3.89h4.42l3.28,1.11s.82.7.82,2.78c0,0-4.15-3.39-12.89-1.94l-23.91,3.3Z" transform="translate(-8.82 -24.87)" fill="#e09b6c"/><path d="M84.17,126l5,17A2.74,2.74,0,0,0,92,144.91l32.92-1.52a4.22,4.22,0,0,0,2-.61l6.55-4a14.25,14.25,0,0,1,6-2h0a1,1,0,0,1,1.07,1.35h0a6.77,6.77,0,0,1-2.84,3.6l-3.86,2.39,7.22.12a9.37,9.37,0,0,0,5.46-1.63l6.09-4.17a2.31,2.31,0,0,1,2.86.2l1.54,1.42a1.34,1.34,0,0,1,.13,1.84l-7.18,8.78a5.88,5.88,0,0,1-4.12,2.14l-11.6.83a7.56,7.56,0,0,1-3.16-.44l-4.24-1.56a4.41,4.41,0,0,0-2.13-.23l-42.33,6A3.16,3.16,0,0,1,79,155.62L67.6,129.9A44.39,44.39,0,0,1,84.17,126Z" transform="translate(-8.82 -24.87)" fill="#f7cda8"/><path d="M68.75,132.13a32.43,32.43,0,0,1,16-4.55,1,1,0,0,0,1-1.16,57.47,57.47,0,0,0-3.23-13.32,16.19,16.19,0,0,0-7.9-8.68,8.15,8.15,0,0,0-7-.48c-5.43,2.52-7.1,14.21-.41,27.77A1,1,0,0,0,68.75,132.13Z" transform="translate(-8.82 -24.87)" fill="#919191"/><path d="M84.75,83.32s.89-8.2-3.88-8.92a6.65,6.65,0,0,0-6.53,1.86,6.11,6.11,0,0,0-1.42,4.62c.31,3,1.52,7.05,7.7,6.7A14.64,14.64,0,0,1,78.74,96s-.71,7.31,8.48,11.33c0,0,4.93,1.29,5.35-3.7s3.34-4.5,3.34-4.5,5.6,1.45,10.28-4.74a40.11,40.11,0,0,0,7.36-20.45,49.08,49.08,0,0,1-13.29-5.77s-8.94-2.73-11.78,10.3Z" transform="translate(-8.82 -24.87)" fill="#f7cda8"/><path d="M84.75,83.32s1.17-7.13-3.88-8.92c0,0-6.24-1.29-8,4.46,0,0-.73,9.77,7.73,8.72a9,9,0,0,1-.88,6.08S67.25,90.93,65.14,72c0,0-3.12-24.66,24.51-25.2,0,0,13-1.39,23.9,10.61,0,0,2.59,2.48,4.41,4.35a7.92,7.92,0,0,0,5.41,2.44h.07a.91.91,0,0,1,.84,1.19c-.88,2.62-3.66,8.54-10.73,8.54a22.2,22.2,0,0,1-14.43-5s-6-3.54-9.92,9.65a30.31,30.31,0,0,1-2.67,5C85.19,85.36,84.75,83.32,84.75,83.32Z" transform="translate(-8.82 -24.87)" fill="#292a41"/><path d="M110.55,178.93a84.14,84.14,0,0,1,6.08-16.56s-5.1,5.4-7.58,17.75Z" transform="translate(-8.82 -24.87)" fill="#d8a17c"/><path d="M102.46,210.89s3.25,6.59,12.31.67c0,0,7.43,5.67,15,8.23,0,0,3.18,1.58,1.37,4.18a3.26,3.26,0,0,1-2.8,1.33l-28-1.18a2.81,2.81,0,0,1-2.48-1.77C97.12,220.5,97.26,217,102.46,210.89Z" transform="translate(-8.82 -24.87)" fill="#444551"/><path d="M134.18,211.68s2.69,2.68,9.69-.73l17.46,5.55a5,5,0,0,1,3,2.55,2.56,2.56,0,0,1-.24,2.9,3.11,3.11,0,0,1-2.43,1.06H135.32a3.34,3.34,0,0,1-3.31-2.79C131.75,218.54,132.14,215.89,134.18,211.68Z" transform="translate(-8.82 -24.87)" fill="#444551"/><path d="M114.77,211.56a12.1,12.1,0,0,1-2.81.55.82.82,0,0,0-.48,1.46,30,30,0,0,0,12.27,5.88,14.43,14.43,0,0,0,3.53.28l2-.08S118.72,214.18,114.77,211.56Z" transform="translate(-8.82 -24.87)" fill="#1d1f28"/><path d="M143.87,211l17.46,5.55-2.58.27a13.28,13.28,0,0,1-3.93-.17c-3.62-.71-11.11-2.33-14.12-4.15a.59.59,0,0,1,.22-1.08Z" transform="translate(-8.82 -24.87)" fill="#1d1f28"/><path d="M97.54,220.29s-.18,3.7,2.78,3.83l28,1.18a2.86,2.86,0,0,0,2.8-1.33s.89-1.15.51-2C131.6,222,124.94,225.16,97.54,220.29Z" transform="translate(-8.82 -24.87)" fill="#1d1f28"/><path d="M132,220.22s.57,3.26,3.31,3.26h26.34a3.5,3.5,0,0,0,3-2.68S134.9,222,132,220.22Z" transform="translate(-8.82 -24.87)" fill="#1d1f28"/><path d="M95.91,99.08a2.3,2.3,0,0,0-2,.82,11.35,11.35,0,0,0-1.14,2.45s-3.75,4-10.87-11.82C81.88,90.53,88.42,98.45,95.91,99.08Z" transform="translate(-8.82 -24.87)" fill="#d8a17c"/><path d="M27,212.67a44,44,0,0,0,18.37,2c10.23-1.06-5.65,1.94-5.65,1.94h-14Z" transform="translate(-8.82 -24.87)" fill="#705143"/><ellipse cx="10.58" cy="179.19" rx="9.52" ry="19.12" fill="#705143"/><ellipse cx="10.29" cy="179.6" rx="7" ry="16.24" fill="#492616"/><ellipse cx="10.24" cy="179.88" rx="4.47" ry="12.43" fill="#705143"/><ellipse cx="10.24" cy="179.88" rx="2.84" ry="8.16" fill="#492616"/><ellipse cx="10.24" cy="179.88" rx="1.15" ry="4.91" fill="#705143"/></g><g id="f762905f-5870-44ba-80bb-b912b290b472" data-name="table"><rect x="160.59" y="124.9" width="136.94" height="74.12" fill="#492616"/><polygon points="172.12 115.25 160.59 124.9 297.53 124.9 309.06 115.25 172.12 115.25" fill="#5b321d"/><polygon points="309.06 115.25 297.53 124.9 297.29 199.01 308.82 189.37 309.06 115.25" fill="#351a0c"/><polygon points="180.3 116.11 171.24 123.84 286.23 123.84 298.41 115.81 180.3 116.11" fill="#c4c6c8" stroke="#8f9194" stroke-miterlimit="10"/><path d="M191.91,145.71c0-.41,1.85-.78,5.66-1.12,3.22-.29,7.3-.51,10.89-.71,2.29-.13,4.44-.25,6-.36a57.5,57.5,0,0,0,7.33-.8c.19-.06.28-.11.28-.16s-1.2-.33-3.78-.47c-.76,0-1.32,0-2,0-3.74,0-9.43.34-11.64.51-1,.07-2.76.08-4,0l-6.54-.29a3.09,3.09,0,0,1-1.1-.14s.19-.07.6-.1c.1,0,2.5-.19,6.06-.37,5.27-.27,10.47-.42,15.45-.45,4.69,0,9,.07,12.59.26,5.44.29,8.32.66,8.32,1.07,0,.1-.19.21-.56.32A70.31,70.31,0,0,1,225.37,144c-2.2.16-4.81.31-7.33.45-6.51.36-12.14.67-12.14,1.23,0,0,0,.06.06.1.35.31,1.86.56,4.36.71,1.89.11,4.22.16,6.91.15,3,0,6-.09,8.17-.24,2.58-.17,3.95-.4,3.95-.67a.14.14,0,0,0,0-.06.68.68,0,0,1-.12-.37c0-.79,1.7-1.5,5-2.1a129.91,129.91,0,0,1,13.79-1.42c4.58-.28,9.75-.44,15.36-.48,4.17,0,8.54,0,12.62.13,5,.14,8.13.4,9.85.59,2,.23,3.26.49,3.35.73a.09.09,0,0,1,0,.05c0,.56-3,1-5.55,1.38-3.56.45-7.55.81-12.17,1.1-5.34.34-8.29.66-8.29.92,0,.08.26.15.76.21,1.56.19,5.46.3,9.69.28a63,63,0,0,0,7.42-.39,6.4,6.4,0,0,0,2-.45,15.45,15.45,0,0,1,3-.16l8.28,0a10.8,10.8,0,0,1,2.63.17h0s-.48.36-3.06.71c-1.64.22-3.8.41-6.41.55-3.55.2-7.81.31-12.67.33-10,.06-19.4-.24-23.47-.73-1.44-.18-2.17-.37-2.17-.57s.32-.27,1-.41a100.94,100.94,0,0,1,11.07-1.07c3.6-.23,6.77-.52,9.71-.89,1.94-.25,4.25-.62,4.25-1v0c-.09-.22-2.71-.52-5.2-.59-4.22-.12-8-.06-11.85.18a97.16,97.16,0,0,0-10.64,1.11c-2.89.52-4.36,1.14-4.36,1.84a.65.65,0,0,0,.11.34.16.16,0,0,1,0,.09c0,.59-4,1-7.3,1.2-4.69.32-11.29.51-18.1.53-6.41,0-12.49-.11-17.12-.37-5.18-.29-8.23-.73-8.82-1.26a.2.2,0,0,1-.09-.15Z" transform="translate(-8.82 -24.87)" fill="#1e3f1a"/><path d="M217.9,141.89c1.2-.15,2.81-.28,4.28-.42-2.08-.06-4.35-.08-6.72-.07-3.32,0-6.81.1-10.4.25,1.51.13,3.26.26,5,.38,2-.08,4.09-.14,6.05-.15Z" transform="translate(-8.82 -24.87)" fill="#75ba75"/><path d="M230.05,142.24l2.18-.07c-1.16-.2-3.29-.39-6.34-.56l-3.12-.13c-1.46.14-3.06.28-4.26.42l1.77.07a32.51,32.51,0,0,1,4.31.4Z" transform="translate(-8.82 -24.87)" fill="#507750"/><path d="M230.51,143.25a18.11,18.11,0,0,0,2.27-.4c.77-.23.65-.44-.34-.64l-3.17.09-4.54.11c.36.1.33.22-.08.34A12.94,12.94,0,0,1,223,143C225.63,143.09,228.18,143.16,230.51,143.25Z" transform="translate(-8.82 -24.87)" fill="#7ca081"/><path d="M207.93,144.26l5.15.27,3-.17,5.5-.32c-1.53-.12-2.93-.24-4.68-.35l-.64,0c-1.65.12-3.7.23-5.86.35l-3.69.21Z" transform="translate(-8.82 -24.87)" fill="#e5993e"/><path d="M205,145.16c1.75-.24,4.58-.43,7.75-.61l-5.38-.28-.94,0c-3.21.19-6.36.41-8.57.68l2,.06Z" transform="translate(-8.82 -24.87)" fill="#7ca081"/><path d="M203.41,146a.72.72,0,0,1-.25-.14c-.27-.25.36-.45,1.6-.63l-5.57-.2-1.6-.05c-1.71.22-2.79.47-2.79.77a.19.19,0,0,0,.08.14,1.66,1.66,0,0,0,.54.27C198.08,146.07,200.69,146,203.41,146Z" transform="translate(-8.82 -24.87)" fill="#75ba75"/><path d="M233.93,146.85c1.2-.08,2.47-.18,3.57-.31l-.91,0-4-.13-2.41-.07c-1.95.23-5.06.39-8.49.47.74.15,1.61.31,2.51.46C227.86,147.17,231.24,147,233.93,146.85Z" transform="translate(-8.82 -24.87)" fill="#75ba75"/><path d="M240.49,145.68a.88.88,0,0,1-.09-.2l-8.29,0a.76.76,0,0,0,.09.18c.15.23-.55.42-1.82.59l2.8.08,4.56.14C239.46,146.3,240.71,146,240.49,145.68Z" transform="translate(-8.82 -24.87)" fill="#507750"/><path d="M240.93,144.62l-8.2-.09c-.5.3-.7.62-.61.95l8.29,0C240.34,145.16,240.52,144.88,240.93,144.62Z" transform="translate(-8.82 -24.87)" fill="#7ca081"/><path d="M235.52,143.58a10.33,10.33,0,0,0-2.73.92l8.19.08a8.81,8.81,0,0,1,2.16-.78C240.54,143.74,238.05,143.66,235.52,143.58Z" transform="translate(-8.82 -24.87)" fill="#e5993e"/><path d="M248.7,142.89l-7.93-.15c-1.42.17-2.68.35-3.77.54l-1.34.27c2.52.08,5,.16,7.61.22.48-.11,1-.23,1.62-.33C246,143.24,247.25,143.06,248.7,142.89Z" transform="translate(-8.82 -24.87)" fill="#507750"/><path d="M279.25,142.32l4.57-.14-.42-.05c-1.52-.17-4.24-.4-8.55-.52-2.07-.06-4.22-.1-6.36-.11a3,3,0,0,0-.91.48c1.23,0,2.47,0,3.73.07,2.11.06,4,.2,5.2.36Z" transform="translate(-8.82 -24.87)" fill="#507750"/><path d="M280.82,143.22l4.9.08c.49-.17.77-.34.7-.52s-.9-.38-2.33-.57l-4.44.14-2.88.1a3.09,3.09,0,0,1,1.36.34c.05.14-.14.27-.5.39Z" transform="translate(-8.82 -24.87)" fill="#7ca081"/><path d="M277.61,144l3.21.14.33,0a31.45,31.45,0,0,0,4.47-.81l-4.84-.07-3.24,0a24.22,24.22,0,0,1-3.5.66Z" transform="translate(-8.82 -24.87)" fill="#75ba75"/><path d="M273.21,144.93c2.67-.21,5.11-.45,7.38-.72l-.46,0-3.48-.16-2.83-.13-.2,0c-2.61.33-5.41.6-8.54.82Z" transform="translate(-8.82 -24.87)" fill="#507750"/><path d="M262.16,145.81c1.49-.19,3.95-.4,7.31-.61l3.41-.24-8.17-.18-1.3.08q-5.32.34-8.16.67Z" transform="translate(-8.82 -24.87)" fill="#7ca081"/><path d="M282.42,146.55l6.9.27q1.14-.1,2.07-.24a7.9,7.9,0,0,0,2.84-.65l-8.28,0a6.47,6.47,0,0,1-2.19.5Z" transform="translate(-8.82 -24.87)" fill="#75ba75"/><path d="M274.68,147.37c4.21,0,7.9-.12,11-.29,1.25-.07,2.38-.15,3.38-.24-2.34-.08-4.61-.17-6.89-.27-2.08.19-4.78.3-8.18.31h-.83a.13.13,0,0,0-.08.12c0,.08-.05.15-.18.23a2.24,2.24,0,0,1-.27.13Z" transform="translate(-8.82 -24.87)" fill="#7ca081"/><path d="M272.28,147.22a.38.38,0,0,0,.17-.25.09.09,0,0,1,.06-.08c-4.28,0-8.16-.12-10.3-.3-.66,0-1.3,0-1.94.06l-4,.12-1.41,0c3.49.33,10,.54,17.1.55C272.08,147.32,272.2,147.27,272.28,147.22Z" transform="translate(-8.82 -24.87)" fill="#e5993e"/><path d="M256.12,146.73l4.16-.13,1.58,0-.39,0c-1.55-.19-1.35-.42.48-.67l-6.93-.28a19.78,19.78,0,0,0-2,.31c-1.44.3-1.09.6,1,.85l.54.06Z" transform="translate(-8.82 -24.87)" fill="#75ba75"/><path d="M267,142a2.79,2.79,0,0,1,.9-.49c-1.38,0-2.75,0-4.09,0-4.54,0-8.78.16-12.63.38l.58,0,2.77.24,1.37.12.3,0C259.58,142.05,263.2,142,267,142Z" transform="translate(-8.82 -24.87)" fill="#e5993e"/><path d="M254.32,142.2l-2.7-.24-.85-.07-.62,0c-3.54.22-6.6.48-9.14.78l7.94.16c1.89-.22,4.08-.4,6.55-.56Z" transform="translate(-8.82 -24.87)" fill="#7ca081"/><path d="M223.66,147.26c-.9-.15-1.78-.31-2.52-.46-1.22,0-2.48,0-3.73,0-2,0-4.78,0-7.43-.12l-1,.07-3.35.21-1.3.08c4,.18,8.79.26,13.47.25C219.81,147.32,221.77,147.3,223.66,147.26Z" transform="translate(-8.82 -24.87)" fill="#e5993e"/><path d="M205.31,147c1.23-.07,2.4-.15,3.48-.23l.66-.05-1.11-.06a20.9,20.9,0,0,1-4.84-.63c-2.71,0-5.31.1-8,.15a44.4,44.4,0,0,0,8.32.9Z" transform="translate(-8.82 -24.87)" fill="#507750"/><path d="M222,144l1.22-.08q4.58-.33,7.1-.65c-2.33-.09-4.89-.16-7.49-.21-1.39.17-3.44.36-6.07.55h-.09l1,.06C219.28,143.79,220.59,143.91,222,144Z" transform="translate(-8.82 -24.87)" fill="#75ba75"/><path d="M209.67,142.05c-1.76-.12-3.52-.25-5-.39l-3,.15c-3.36.17-5.6.34-5.7.34l6.55.3C203.62,142.37,206.44,142.19,209.67,142.05Z" transform="translate(-8.82 -24.87)" fill="#e5993e"/></g></svg>