<svg width="1000" height="1000" viewBox="0 0 1000 1000" fill="none" xmlns="http://www.w3.org/2000/svg">
<g clip-path="url(#clip0)">
<g clip-path="url(#clip1)">
<path d="M535 175.14C538.72 176.52 540.22 179.25 540.1 183.39C535.86 183.6 531.79 183.6 527.78 184.06C522.78 184.63 517.78 185.35 515.98 191.29C514.18 197.23 515.7 202.03 520.65 205.76C517 207.07 513.16 208.03 509.78 209.84C508.24 210.67 507.6 213.19 506.55 214.94C508.74 215.36 511.05 216.43 513.11 216.06C521.26 214.61 528.91 214.65 536.94 217.86C552.28 223.98 561.53 236.86 572.18 248.08C585.98 262.62 598.93 277.97 612.34 292.89C617.89 299.07 623.82 304.89 629.34 311.1C641.34 324.58 653.273 338.143 665.14 351.79C673.6 361.55 682.14 371.28 690.06 381.45C699.06 392.92 707.36 404.88 715.98 416.61C731.74 438.07 745.98 460.4 756.91 484.77C758.43 488.16 760.63 491.23 762.52 494.45L754.52 506.14C752.02 512.03 749.36 517.87 747.09 523.84C746.39 525.66 746.74 527.84 746.61 529.9L746.34 532.17C746.34 537.117 746.34 542.067 746.34 547.02C746.42 548.11 746.5 549.2 746.59 550.29C747.07 553.557 747.557 556.827 748.05 560.1C740.05 569.19 732.32 578.51 724.05 587.32C714.61 597.32 705.05 607.32 694.86 616.57C687.74 623.07 681.03 629.34 680.55 639.77C693.55 647.89 696.55 658.77 688.86 671.13C686.56 674.776 683.943 678.213 681.04 681.4C677.41 685.45 673.23 689.01 669.66 693.11C668.66 694.24 669.05 696.55 668.8 698.33C670.55 698.57 672.45 699.33 674 698.91C675.8 698.39 677.36 696.91 678.89 695.63C682.3 692.85 685.63 689.97 689.51 686.69C694.12 697.18 698.67 706.96 702.75 716.93C713.277 742.57 723.693 768.263 734 794.01C746.457 824.597 756.794 856.004 764.94 888.01C771.08 912.57 776.42 937.33 781.82 962.01C784.57 974.6 786.66 987.34 789.05 1000.01H562C562.392 998.754 562.867 997.524 563.42 996.33C568.52 987 574.05 977.89 578.74 968.33C586.8 951.923 594.567 935.37 602.04 918.67C606.19 909.45 609.92 900 613.21 890.44C617.76 877.18 616.44 863.25 616.87 849.54C616.87 849.01 616.23 848.46 615.87 847.91C616.19 846.81 616.43 845.67 616.87 844.59C631.55 805.29 642.13 764.82 649.94 723.67C654.51 699.57 657.72 675.2 661.54 650.95C670.72 644.12 672.8 633.03 677.85 623.73C677.892 623.566 677.892 623.394 677.85 623.23C676.39 606.23 673.34 589.45 667.55 573.3C666.87 571.41 665.46 569.77 664.38 568.01C663.89 561.06 663.51 554.1 662.87 547.16C661.47 531.94 660.07 516.66 653.96 502.42C648.15 488.85 641.89 475.48 635.83 462.03C637.83 464.67 640.35 467.08 641.9 470.03C647.08 479.76 651.9 489.68 656.9 499.53C656.802 494.184 656.131 488.863 654.9 483.66C652.23 472.94 650.99 461.35 645.9 451.84C632.9 427.45 615.8 405.71 596.32 386.1C582.75 372.44 568.4 359.55 554.04 346.7C535.88 330.45 517.58 314.35 498.92 298.7C488.82 290.22 477.92 282.62 467.19 274.95C462.36 271.51 457.8 274.5 456.83 280.45C456.061 285.995 454.617 291.425 452.53 296.62C444.76 314.62 430.1 327.03 415.78 339.27C398.04 354.42 379.15 368.27 360.78 382.69C347.73 393.09 334.21 403.09 321.79 414.21C313.383 421.736 305.912 430.248 299.54 439.56C289.08 454.95 283.39 472.63 279.38 490.72C278.27 495.72 278.38 500.95 277.97 506.08C273.52 521.78 270.53 537.66 271.97 554.08C270.66 555.46 268.6 556.64 268.18 558.26C264.6 572 260.66 585.71 258.18 599.67C256.37 609.87 256.77 620.44 255.9 630.82C255.614 633.306 255.864 635.824 256.631 638.206C257.399 640.588 258.667 642.778 260.35 644.63C270.62 655.93 281.09 667.04 291.64 678.08C293.01 679.51 295.33 680.08 297.22 681C298.93 686.53 300.75 692 302.32 697.6C303.74 702.68 304.88 707.85 306.15 712.97C305.75 713.66 305.02 714.34 305.01 715.04C304.91 720.78 305.01 726.52 304.94 732.26C304.536 753.142 306.268 774.01 310.11 794.54C313.87 814.54 317.7 834.62 323.75 853.97C332.66 882.46 343.75 910.26 353.54 938.49C358.98 954.21 362.32 970.49 361.92 987.22C361.82 991.51 361.29 995.79 360.92 1000.08H126C135.84 968.39 145.47 936.63 155.6 905.08C163.153 881.527 171.057 858.087 179.31 834.76C191.23 801.07 203.77 767.57 221.18 736.26C228.18 723.58 236.99 711.76 245.76 700.14C250.86 693.39 251.48 694.14 259.15 697.61C263.395 699.438 267.788 700.903 272.28 701.99C273.22 702.24 274.61 700.77 275.79 700.09C274.92 699.09 274.22 697.55 273.15 697.24C261.62 693.91 252.37 687.08 244.08 678.71C238.67 673.24 233.87 656.89 239.15 649.25C240.37 649.97 241.65 650.66 242.87 651.44C246.24 653.6 249.87 655.66 252.94 651.49C255.76 647.7 253.39 644.72 250.47 642.08C242.72 635.08 234.92 628.08 227.32 620.91C209.45 604.02 196.02 583.59 182.24 563.48C175.17 553.16 171.15 541.69 173.24 529.1C176.08 512.36 183.03 497.1 191.9 482.7C210.9 451.85 235.4 425.46 259.69 398.91C267.8 390.09 276 381.33 284 372.5C300.66 354.23 316.73 335.39 334.06 317.78C352.82 298.73 372.3 280.32 392.3 262.57C405.89 250.51 420.71 239.77 435.4 229.02C444.26 222.54 453.85 217.32 465.65 217.93C471.01 218.22 473.35 214.93 475.18 209.65C476.45 206.01 478.47 202.02 481.36 199.65C495.75 188.09 511 178.16 530.66 179.09C533.49 179.23 535.21 178.28 535 175.14Z" fill="#738085"/>
<path d="M306.19 712.98C304.92 707.86 303.78 702.69 302.36 697.61C300.79 692.04 298.97 686.54 297.26 681.01C292.32 660.15 286.79 639.4 282.61 618.38C278.38 597.09 275.48 575.53 272 554.09C270.53 537.66 273.52 521.78 278 506.09C279.69 501.83 281.29 497.54 283.07 493.33C290.38 476.02 299.14 459.54 311.23 445.01C311.81 448.89 312.76 452.76 312.92 456.66C313.7 475.98 320.33 493.66 329.1 510.4C335.69 523 343.7 534.85 351.1 547.03C350.23 547.15 349.25 547.58 348.5 547.33C339.39 544.33 330.34 541.2 321.19 538.33C319.4 537.78 316.51 537.61 315.49 538.63C314.47 539.65 314.63 542.63 315.26 544.32C319.68 556.47 327.15 566.73 335.1 576.83C354.49 601.44 379.59 614.26 410.87 615.06C417.68 620 424.14 625.54 431.36 629.78C462.15 647.89 490.98 641.87 516.24 616.06C519.03 615.74 521.81 615.3 524.6 615.06C543.442 614.028 561.451 606.955 575.96 594.89C591.47 582.18 599.8 564.97 607.57 547.33C608.44 545.33 607.35 541.63 605.85 539.79C604.85 538.57 601.49 538.94 599.25 539.21C597.33 539.43 595.52 540.56 593.64 541.21C584.1 544.503 574.55 547.777 564.99 551.03C574.22 531.94 584.14 513.15 592.44 493.66C598.89 478.5 603.67 462.58 608.44 446.77C610.55 439.77 610.82 432.21 611.92 424.9L635.92 462.09C641.98 475.54 648.24 488.91 654.05 502.48C660.16 516.72 661.56 532 662.96 547.22C663.6 554.16 663.96 561.12 664.47 568.07C664.6 573.54 665.04 579.01 664.8 584.46C663.8 606.65 662.68 628.83 661.6 651.01C657.78 675.26 654.6 699.63 650 723.73C642.19 764.88 631.61 805.35 616.93 844.65C616.52 845.73 616.28 846.87 615.93 847.97C615.356 848.973 614.838 850.008 614.38 851.07C596.218 900.836 574.84 949.368 550.38 996.36C549.833 997.569 549.372 998.816 549 1000.09H376C376.85 994.67 377.58 989.22 378.57 983.82C382.64 961.57 385.43 939.08 379.66 916.93C374.22 896.04 367.66 875.36 360.15 855.11C342.89 808.45 321.99 763.11 307.85 715.32C307.424 714.457 306.863 713.667 306.19 712.98V712.98ZM393 942.76C393 946.63 393.05 949.63 393 952.62C392.94 955.4 393 958.34 396.39 958.91C400.27 959.55 401.31 956.22 401.6 953.54C402.36 946.47 403.7 939.19 402.74 932.29C401.35 922.21 398.2 912.38 395.67 902.47C394.85 899.26 391.92 897.99 389.5 899.47C387.74 900.47 386.86 903.47 386.25 905.83C385.93 907.05 386.97 908.66 387.49 910.06C391.515 920.476 393.39 931.6 393 942.76V942.76Z" fill="#FFF2CD"/>
<path d="M861.6 598.5C863.26 606.5 860.17 613.18 855.51 620.56C857.602 622.086 859.583 623.756 861.44 625.56C875.06 640.51 875.38 659.68 861.98 675.34C856.25 682.03 849.84 688.14 843.73 694.51C842.58 695.71 841.29 696.79 840.2 698.04C835.73 703.16 835.88 705.21 839.55 710.82C846.47 721.4 853.3 732.05 859.79 742.89C870.79 761.25 873.19 781.26 870.52 802.17C864.966 846.799 862.823 891.786 864.11 936.74C864.55 953.74 865.26 970.67 865.69 987.64C865.79 991.79 865.25 995.95 865 1000.1H806C805.88 980.1 806.5 960.1 805.44 940.17C804.03 913.53 803.54 886.99 806.12 860.41C808.06 840.41 809.33 820.27 811.3 800.23C812.22 790.98 812.96 781.88 807.98 773.53C800.58 761.12 792.98 748.83 785.39 736.53C781.91 730.87 777.76 725.53 774.91 719.59C766.45 701.97 770.97 681.96 785.83 669.33C788.48 667.07 791.38 665.08 794.15 662.95C801.54 657.28 801.3 654.48 794.67 648.2C789.18 643 783.67 637.43 779.81 631.02C774.46 622.13 776.22 607.93 781.91 601.87C784.58 603.53 787.08 605.62 789.96 606.8C814.09 616.69 836.88 613.53 858.46 599.38C859.458 598.934 860.516 598.637 861.6 598.5V598.5ZM858.12 840.01C860.58 837.11 862.31 826.29 860.52 823.79C860 823.05 857.43 822.79 856.73 823.34C854.91 824.88 856.05 837.43 858.12 840.01ZM852.12 848.01C854.56 844.52 856.06 836.01 854.76 833.11C854.328 832.268 853.586 831.626 852.69 831.32C852.293 831.321 851.902 831.411 851.546 831.584C851.189 831.757 850.876 832.009 850.63 832.32C849.07 834.15 850 845.44 852.13 848.09L852.12 848.01ZM820.12 986.66L821.91 987.22C822.6 986.02 823.75 984.87 823.91 983.61C824.245 980.646 824.245 977.654 823.91 974.69C823.76 973.45 822.26 972.37 821.38 971.22C820.6 972.48 819.15 973.74 819.16 974.99C819.18 978.91 819.76 982.8 820.13 986.69L820.12 986.66ZM861.04 657.24C865.5 655.13 867.69 645.77 865.21 643.13C864.73 642.62 863.51 642.13 863.11 642.36C862.25 642.91 861.18 643.91 861.11 644.78C860.94 648.73 861.05 652.66 861.05 657.27L861.04 657.24ZM826.37 991.94L829.75 991.73C829.75 988.47 829.87 985.21 829.65 981.97C829.475 981.541 829.191 981.165 828.826 980.88C828.461 980.594 828.028 980.408 827.57 980.34C826.65 980.55 825.21 981.65 825.24 982.34C825.39 985.53 826 988.73 826.37 991.94Z" fill="#B58565"/>
<path d="M535 175.14C535.21 178.28 533.49 179.23 530.66 179.14C511 178.2 495.75 188.14 481.4 199.72C478.51 202.06 476.49 206.05 475.22 209.72C473.39 214.97 471.05 218.29 465.69 218C453.89 217.39 444.3 222.61 435.44 229.09C420.75 239.84 405.93 250.58 392.34 262.64C372.34 280.39 352.86 298.8 334.1 317.85C316.77 335.46 300.7 354.3 284.04 372.57C276 381.33 267.8 390.09 259.73 398.87C235.44 425.42 210.93 451.81 191.94 482.66C183.07 497.07 176.12 512.32 173.28 529.06C171.15 541.65 175.17 553.12 182.28 563.44C196.06 583.55 209.49 603.98 227.36 620.87C234.96 628.05 242.76 635.02 250.51 642.04C253.43 644.68 255.8 647.66 252.98 651.45C249.87 655.62 246.28 653.56 242.91 651.4C241.69 650.62 240.41 649.93 239.19 649.21C233.91 656.85 238.71 673.21 244.12 678.67C252.41 687.04 261.66 693.87 273.19 697.2C274.26 697.51 274.96 699.07 275.83 700.05C274.65 700.73 273.26 702.2 272.32 701.95C267.828 700.863 263.435 699.398 259.19 697.57C251.52 694.07 250.9 693.35 245.8 700.1C237.03 711.72 228.27 723.54 221.22 736.22C203.81 767.53 191.22 801.03 179.35 834.72C171.103 858.053 163.2 881.493 155.64 905.04C145.51 936.64 135.88 968.4 126.04 1000.04H114C122.34 972.71 130.58 945.36 139 918.04C154.7 867.38 171.16 817.04 191.87 768.11C202.22 743.71 213.62 719.86 229.73 698.6C232.94 694.36 236.49 690.38 240.25 685.84C229.69 673.75 223.88 660.27 231.35 644.9C222.07 635.9 212.05 627.9 204.22 618.21C191.22 602.04 179.09 585.05 167.48 567.81C156.81 551.99 155.4 534.39 160.65 516.11C168.22 489.73 181.53 466.31 199.19 445.68C227.01 413.19 255.7 381.43 284.19 349.53C296.957 335.243 309.973 321.187 323.24 307.36C348.17 281.42 373.04 255.36 401.61 233.3C416.61 221.75 432.14 210.81 450.22 204.23C452.22 203.5 453.84 201.45 455.4 199.79C469.16 185.14 485.21 174.1 505.08 169.9C511.61 168.52 518.69 168.78 525.37 169.55C528.78 170.02 531.82 173.22 535 175.14Z" fill="#6D7A7E"/>
<path d="M306.19 712.98C306.863 713.668 307.424 714.457 307.85 715.32C321.99 763.15 342.85 808.45 360.15 855.11C367.64 875.36 374.22 896.04 379.66 916.93C385.43 939.08 382.66 961.57 378.57 983.82C377.57 989.22 376.85 994.67 376 1000.09H361C361.33 995.8 361.86 991.52 362 987.23C362.4 970.45 359.06 954.23 353.62 938.5C343.85 910.27 332.74 882.5 323.83 853.98C317.78 834.63 313.95 814.52 310.19 794.55C306.341 774.021 304.602 753.153 305 732.27C305.1 726.53 305 720.79 305.07 715.05C305.06 714.35 305.79 713.67 306.19 712.98Z" fill="#6C7A7E"/>
<path d="M752 573.09C748.11 578.02 744.45 583.16 740.28 587.86C726.28 603.63 710.04 616.91 693.36 629.7C692.07 630.7 690.91 631.86 690.06 632.61C693.4 637.33 696.96 641.5 699.53 646.21C701.5 649.719 702.603 653.648 702.747 657.669C702.892 661.691 702.073 665.689 700.36 669.33C698.79 672.87 698.98 675.71 700.49 679.2C722.26 729.76 743.49 780.53 761.25 832.69C775.46 874.45 785.05 917.41 793.93 960.55C796.643 973.723 799.333 986.903 802 1000.09H789C786.61 987.42 784.52 974.68 781.77 962.09C776.37 937.36 771.03 912.6 764.89 888.09C756.744 856.084 746.407 824.677 733.95 794.09C723.617 768.37 713.23 742.677 702.79 717.01C698.71 707.01 694.16 697.26 689.55 686.77C685.67 690.05 682.34 692.93 678.93 695.71C677.4 696.96 675.84 698.47 674.04 698.99C672.49 699.44 670.59 698.65 668.84 698.41C669.09 696.63 668.72 694.32 669.7 693.19C673.27 689.09 677.45 685.53 681.08 681.48C683.989 678.255 686.606 674.778 688.9 671.09C696.62 658.7 693.62 647.85 680.59 639.73C681.07 629.3 687.78 623.03 694.9 616.53C705.06 607.24 714.65 597.31 724.09 587.28C732.38 578.47 740.09 569.15 748.09 560.06H748.68L750.16 565.44L751.71 568.04L752.13 569.56L752 573.09Z" fill="#6D7B7F"/>
<path d="M549 1000.09C549.358 998.834 549.802 997.604 550.33 996.41C574.79 949.418 596.168 900.886 614.33 851.12C614.788 850.059 615.306 849.024 615.88 848.02C616.23 848.57 616.88 849.12 616.88 849.65C616.45 863.36 617.77 877.29 613.22 890.55C609.93 900.11 606.22 909.55 602.05 918.78C594.557 935.447 586.79 952 578.75 968.44C574.06 977.97 568.53 987.08 563.43 996.44C562.875 997.624 562.397 998.844 562 1000.09H549Z" fill="#6D7B7E"/>
<path d="M750.18 565.48C749.693 563.68 749.2 561.887 748.7 560.1C748.02 556.83 747.33 553.56 746.65 550.29C746.56 549.2 746.48 548.11 746.4 547.02C746.4 542.073 746.4 537.123 746.4 532.17L746.67 529.9C749.337 521.98 751.973 514.06 754.58 506.14C757.247 502.24 759.897 498.343 762.53 494.45C765.91 492.62 769.03 490.58 768.96 486.1C773.3 483.9 777.61 481.65 781.96 479.53C791.25 475.02 800.74 471.1 811.31 471.11C817.46 471.11 823.82 470.4 829.71 471.72C841.39 474.35 852.01 479.14 861.3 487.52C873.12 498.2 881.18 510.69 884.37 526.07C889.01 548.47 883.13 568.41 868.62 585.9C866.22 588.8 863.48 591.42 860.89 594.17C858.64 594.98 856.19 595.46 854.16 596.66C833.36 608.95 811.98 612 789.45 601.47C787.34 600.47 784.45 601.14 781.94 601.03C771.76 594.1 762.15 586.63 756.37 575.28C755.82 574.18 754 573.72 752.77 572.97C752.56 571.85 752.34 570.72 752.13 569.6L751.71 568.08C751.22 567.21 750.7 566.34 750.18 565.48ZM872 538.74C870.61 532.15 869.41 525.51 867.7 519.01C867.32 517.54 865.19 516.53 863.87 515.31C863.417 516.944 863.133 518.619 863.02 520.31C863.02 521.75 863.88 523.15 864.28 524.59C868.71 540.51 865.72 554.7 854.56 567.09C853.62 568.14 853.56 569.97 853.09 571.44C854.63 570.9 856.63 570.79 857.65 569.74C865.92 561.21 872.37 551.74 872 538.74Z" fill="#E5E5E4"/>
<path d="M769 486.09C769.07 490.57 765.95 492.61 762.57 494.44C760.69 491.22 758.49 488.15 756.97 484.76C746 460.4 731.75 438.09 716 416.61C707.38 404.88 699 392.92 690.08 381.45C682.14 371.28 673.62 361.55 665.16 351.79C653.333 338.13 641.4 324.567 629.36 311.1C623.83 304.9 617.9 299.1 612.36 292.89C598.93 277.97 586 262.62 572.18 248.09C561.53 236.87 552.28 223.99 536.94 217.87C528.94 214.66 521.26 214.62 513.11 216.07C511.05 216.44 508.74 215.37 506.55 214.95C507.6 213.2 508.24 210.68 509.78 209.85C513.16 208.04 517 207.08 520.65 205.77C522.95 206.08 525.24 206.5 527.55 206.67C541.74 207.67 552.55 215.67 562.46 224.57C574.85 235.68 586.93 247.24 598.22 259.46C625.34 288.82 652.68 318.04 678.52 348.52C705.22 380.02 730.36 412.89 750.84 448.94C757.63 460.89 763 473.69 769 486.09Z" fill="#6D7B7F"/>
<path d="M782 601.03C784.52 601.14 787.4 600.48 789.51 601.47C812.04 612 833.42 608.95 854.22 596.66C856.22 595.46 858.7 594.98 860.95 594.17L861.64 598.5C860.557 598.631 859.499 598.92 858.5 599.36C836.92 613.51 814.13 616.67 790 606.78C787.12 605.6 784.62 603.51 781.95 601.85C781.932 601.576 781.948 601.3 782 601.03Z" fill="#D5CBC9"/>
<path d="M635.84 462.14L611.84 424.95L608.02 419.95C602.673 413.657 597.333 407.37 592 401.09L591 399.97L566.79 376.14L566 375.09C565.459 374.272 564.843 373.505 564.16 372.8C536.74 349.067 509.3 325.367 481.84 301.7C477.9 298.31 473.47 295.49 469.15 292.32C458.87 315.02 456.53 318.72 438.33 336.25C428.76 345.47 418.55 354.02 408.63 362.87C398.757 370.47 388.89 378.067 379.03 385.66C366.923 394.993 354.83 404.37 342.75 413.79L312.05 444.09L311.2 444.98C299.11 459.51 290.35 475.98 283.04 493.3C281.26 497.51 279.66 501.8 277.97 506.06C278.41 500.93 278.27 495.68 279.38 490.7C283.38 472.61 289.08 454.93 299.54 439.54C305.912 430.228 313.383 421.716 321.79 414.19C334.21 403.09 347.73 393.09 360.86 382.74C379.2 368.28 398.09 354.47 415.86 339.32C430.18 327.08 444.86 314.63 452.61 296.67C454.697 291.475 456.141 286.045 456.91 280.5C457.91 274.5 462.44 271.56 467.27 275C478.03 282.67 488.9 290.27 499 298.75C517.66 314.42 536 330.52 554.12 346.75C568.48 359.6 582.83 372.49 596.4 386.15C615.85 405.78 633 427.52 646 451.91C651.06 461.42 652.3 473.01 655 483.73C656.231 488.933 656.902 494.254 657 499.6C652 489.75 647.16 479.83 642 470.1C640.36 467.19 637.89 464.78 635.84 462.14Z" fill="#6D7A7E"/>
<path d="M272 554.09C275.48 575.53 278.38 597.09 282.61 618.38C286.79 639.38 292.32 660.15 297.26 681.01C295.37 680.06 293.05 679.52 291.68 678.09C281.13 667.09 270.68 655.94 260.39 644.64C258.707 642.788 257.438 640.598 256.671 638.216C255.903 635.835 255.654 633.316 255.94 630.83C256.81 620.45 256.41 609.83 258.22 599.68C260.69 585.68 264.63 572.01 268.22 558.27C268.63 556.65 270.69 555.47 272 554.09Z" fill="#6C7A7E"/>
<path d="M661.52 651.09C662.6 628.91 663.76 606.73 664.72 584.54C664.96 579.09 664.52 573.62 664.39 568.15C665.47 569.91 666.88 571.55 667.56 573.44C673.35 589.59 676.4 606.32 677.86 623.37C677.902 623.534 677.902 623.706 677.86 623.87C672.78 633.14 670.7 644.23 661.52 651.09Z" fill="#6D7B7E"/>
<path d="M754.57 506.14C751.937 514.06 749.3 521.98 746.66 529.9C746.79 527.9 746.44 525.66 747.14 523.84C749.41 517.87 752.07 512.03 754.57 506.14Z" fill="#6D7B7F"/>
<path d="M746.39 532.17C746.39 537.117 746.39 542.067 746.39 547.02C746.397 542.073 746.397 537.123 746.39 532.17Z" fill="#6D7B7F"/>
<path d="M746.65 550.29C747.33 553.56 748.02 556.83 748.7 560.1H748.11C747.623 556.833 747.137 553.563 746.65 550.29Z" fill="#6D7B7F"/>
<path d="M516.19 616.09C490.93 641.9 462.1 647.92 431.31 629.81C424.09 625.57 417.63 620.03 410.82 615.09C424.12 614.41 437.28 612.8 449.77 607.93C452.15 607 454 604.72 456.09 603.06L467.65 602.96C469.02 604.11 470.474 605.156 472 606.09C485.581 613.286 500.834 616.738 516.19 616.09Z" fill="#F8B88B"/>
<path d="M516.19 616.09C500.834 616.738 485.581 613.286 472 606.09C470.463 605.151 468.999 604.098 467.62 602.94C469.62 601.94 471.62 600.94 473.62 600.01C475.17 600.59 476.72 601.14 478.25 601.76C484.25 604.2 490.03 607.37 496.25 608.97C507.05 611.77 517.97 609.8 528.79 608.07C554.96 603.91 575.79 591.6 589.23 568.19C592.95 561.71 596.17 554.94 599.61 548.3C589.81 550.48 581.27 553.44 572.68 556.3C556.06 561.82 539.03 563.66 521.68 560.92C516.29 560.07 511.14 557.67 505.87 555.99C507.49 551.76 510.52 551.19 514.59 552.16C528.59 555.48 542.74 556.44 556.93 553.1L564.87 551.1C574.417 547.833 583.967 544.56 593.52 541.28C595.4 540.64 597.21 539.51 599.13 539.28C601.37 539.01 604.75 538.64 605.73 539.86C607.23 541.7 608.32 545.42 607.45 547.4C599.68 565.04 591.35 582.25 575.84 594.96C561.345 606.997 543.363 614.054 524.55 615.09C521.76 615.31 519 615.75 516.19 616.09Z" fill="#F8E6B9"/>
<path d="M456.09 603.09C454 604.75 452.15 607.03 449.77 607.96C437.28 612.83 424.12 614.44 410.82 615.12C379.54 614.32 354.44 601.5 335.05 576.89C327.1 566.79 319.63 556.53 315.21 544.38C314.58 542.65 314.43 539.7 315.44 538.69C316.45 537.68 319.35 537.84 321.14 538.39C330.29 541.24 339.34 544.39 348.45 547.39C349.2 547.64 350.18 547.21 351.05 547.09L359.98 549.09L402.18 547.9L407.18 554.02C406.136 554.502 405.038 554.858 403.91 555.08C397.47 555.53 391.03 556.15 384.59 556.15C374.23 556.15 363.79 556.43 353.54 555.23C344.26 554.14 335.19 551.23 326.02 549.13L325.6 548.9L326.02 549.13C326.68 550.96 327.02 553.02 328.07 554.58C332.73 561.39 337.13 568.47 342.5 574.69C351.5 585.13 361.5 594.56 374.5 600.16C392.5 607.9 411.2 609.37 430.26 605.97C437.26 604.71 444.1 602.13 451.01 600.15L456.09 603.09Z" fill="#F8E6B9"/>
<path d="M564.94 551.09L557 553.09C557.581 551.563 558.249 550.071 559 548.62C565.73 537.21 573.18 526.17 579.17 514.38C594.28 484.63 603.32 452.9 608.04 419.92L611.86 424.92C610.76 432.23 610.49 439.79 608.38 446.79C603.6 462.6 598.82 478.52 592.38 493.68C584.09 513.2 574.17 531.99 564.94 551.09Z" fill="#F8BA8D"/>
<path d="M393 942.76C393.392 931.586 391.514 920.448 387.48 910.02C386.96 908.62 385.92 907.02 386.24 905.79C386.85 903.48 387.73 900.47 389.49 899.43C391.91 897.99 394.84 899.26 395.66 902.43C398.19 912.34 401.34 922.17 402.73 932.25C403.73 939.15 402.35 946.43 401.59 953.5C401.3 956.18 400.26 959.5 396.38 958.87C392.96 958.3 392.93 955.36 392.99 952.58C393.05 949.63 393 946.63 393 942.76Z" fill="#F8E7BA"/>
<path d="M360 549.09L351.07 547.09C343.69 534.91 335.68 523.09 329.07 510.46C320.3 493.68 313.67 476.04 312.89 456.72C312.73 452.82 311.78 448.95 311.2 445.07L312.05 444.18C313.32 445.52 315.35 446.67 315.74 448.18C317.74 456.18 319.47 464.25 321.01 472.35C323.95 487.69 327.55 502.85 336.42 516.01C344 527.21 352.1 538.09 360 549.09Z" fill="#F8B98D"/>
<path d="M858.12 840.01C856.05 837.43 854.91 824.88 856.73 823.34C857.43 822.75 860 823.05 860.52 823.79C862.31 826.29 860.58 837.09 858.12 840.01Z" fill="#BAA082"/>
<path d="M852.13 848.09C850.04 845.49 849.07 834.2 850.64 832.35C850.886 832.039 851.199 831.787 851.555 831.614C851.912 831.441 852.303 831.351 852.7 831.35C853.596 831.656 854.338 832.298 854.77 833.14C856.07 836.09 854.57 844.55 852.13 848.09Z" fill="#BAA183"/>
<path d="M820.13 986.69C819.76 982.8 819.13 978.91 819.13 975.02C819.13 973.77 820.57 972.51 821.35 971.25C822.23 972.4 823.73 973.48 823.88 974.72C824.215 977.684 824.215 980.676 823.88 983.64C823.75 984.9 822.6 986.05 821.88 987.25L820.13 986.69Z" fill="#BAA082"/>
<path d="M861.05 657.27C861.05 652.66 860.94 648.73 861.14 644.81C861.19 643.94 862.26 642.94 863.14 642.39C863.54 642.14 864.76 642.65 865.24 643.16C867.7 645.8 865.51 655.16 861.05 657.27Z" fill="#BAA183"/>
<path d="M826.37 991.94C825.95 988.73 825.37 985.53 825.24 982.31C825.24 981.65 826.65 980.55 827.57 980.31C828.028 980.378 828.461 980.564 828.826 980.85C829.19 981.136 829.475 981.511 829.65 981.94C829.87 985.18 829.75 988.44 829.75 991.7L826.37 991.94Z" fill="#BAA082"/>
<path d="M752.15 569.6C752.36 570.72 752.58 571.85 752.79 572.97C752.524 572.999 752.261 573.042 752 573.1L752.15 569.6Z" fill="#6D7B7F"/>
<path d="M750.18 565.48C750.7 566.34 751.18 567.21 751.73 568.08C751.21 567.21 750.7 566.34 750.18 565.48Z" fill="#6D7B7F"/>
<path d="M872 538.74C872.36 551.74 865.91 561.21 857.65 569.79C856.65 570.79 854.65 570.95 853.09 571.49C853.56 570.02 853.62 568.19 854.56 567.14C865.72 554.75 868.71 540.56 864.28 524.64C863.88 523.2 863.06 521.8 863.02 520.36C863.133 518.669 863.417 516.994 863.87 515.36C865.19 516.58 867.32 517.59 867.7 519.06C869.42 525.51 870.62 532.15 872 538.74Z" fill="#D8D2D2"/>
<path d="M360 549.09C352.12 538.09 344 527.25 336.44 516.02C327.55 502.82 324 487.66 321 472.32C319.46 464.22 317.73 456.15 315.73 448.15C315.34 446.6 313.31 445.45 312.04 444.15L342.73 413.86C348.92 420.16 356.11 423.86 365.03 420.86C370.2 419.13 375.03 416.41 380.03 414.22C396.41 407.05 413.8 404.87 431.44 404.16C441.68 403.75 448.38 398.35 449.44 389.16C450.26 381.87 446.22 374.72 439.18 370.68C429.7 365.24 419.25 363.68 408.61 362.89C418.53 354.04 428.74 345.49 438.31 336.27C456.51 318.74 458.85 315.04 469.13 292.34C473.45 295.51 477.88 298.34 481.82 301.72C509.32 325.34 536.76 349.04 564.14 372.82C564.829 373.518 565.451 374.278 566 375.09C565.172 375.179 564.334 375.135 563.52 374.96C550.289 369.59 536.273 366.406 522.02 365.53C512.02 364.97 502.16 365.23 493.15 370.47C485.89 374.69 481.66 384.21 483.07 393.22C484.22 400.6 491.58 408.04 499.78 409C509.23 410.1 518.88 409.74 528.24 411.25C537.24 412.71 546.16 415.48 554.96 418.18C559.96 419.72 564.59 422.65 569.6 424.28C579.03 427.35 590.42 420.28 591.85 410.53C592.3 407.44 591.96 404.22 591.98 401.06C597.353 407.327 602.717 413.6 608.07 419.88C603.35 452.88 594.31 484.59 579.2 514.34C573.2 526.13 565.76 537.17 559.03 548.58C558.279 550.031 557.611 551.523 557.03 553.05C542.84 556.39 528.72 555.43 514.69 552.11C510.62 551.11 507.59 551.71 505.98 555.94L491.25 572.77C489.6 573.48 487.76 573.92 486.35 574.94C481.25 578.64 476.28 582.5 471.3 586.35C465.16 591.09 464.55 591.19 459 585.52C448.867 575.2 438.827 564.797 428.88 554.31C425.74 551.01 422.94 547.38 419.97 543.89C420.482 543.262 421.026 542.661 421.6 542.09C440.32 526.26 448.32 505.56 448.98 481.6C449.13 476.29 445.9 473.04 441.36 473.1C437.09 473.16 434.7 476.44 433.88 481.38C432.664 489.36 430.961 497.258 428.78 505.03C425.33 516.76 417.78 525.74 407.9 532.76C401.37 537.4 400.32 539.86 402.18 547.87L360 549.09ZM543.88 467.09H543.8C543.8 462.43 544.06 457.76 543.8 453.09C543.02 441.69 534.36 433.04 523.67 432.66C518.523 432.511 513.513 434.337 509.67 437.764C505.826 441.191 503.44 445.959 503 451.09C502.08 461.843 502.2 472.66 503.36 483.39C504.62 494.76 514.36 501.79 525.14 500.95C535.57 500.14 543.38 491.7 543.88 480.48C544 476.01 543.86 471.52 543.86 467.03L543.88 467.09ZM377.21 468.66H377.13C377.13 472.98 377.04 477.31 377.13 481.66C377.42 493.51 385.13 502.26 395.99 503.06C406.99 503.87 416.57 496.63 417.82 484.93C418.915 474.524 419.025 464.037 418.15 453.61C417.781 448.389 415.411 443.511 411.534 439.994C407.657 436.476 402.573 434.591 397.34 434.73C386.46 435.17 377.85 444.06 377.24 455.73C377 459.94 377.19 464.28 377.19 468.6L377.21 468.66Z" fill="#F8BF98"/>
<path d="M592 401.09C592 404.25 592.32 407.47 591.87 410.56C590.44 420.27 579.05 427.38 569.62 424.31C564.62 422.68 560.01 419.75 554.98 418.21C546.18 415.51 537.31 412.74 528.26 411.28C518.9 409.77 509.26 410.13 499.8 409.03C491.6 408.03 484.24 400.63 483.09 393.25C481.68 384.25 485.91 374.72 493.17 370.5C502.17 365.26 512.01 365 522.04 365.56C536.293 366.436 550.309 369.62 563.54 374.99C564.35 375.153 565.18 375.187 566 375.09V375.09L566.87 376.17L591.08 400L592.08 401.12L592 401.09Z" fill="#FFF1CD"/>
<path d="M408.62 362.9C419.26 363.74 429.71 365.25 439.19 370.69C446.19 374.69 450.27 381.88 449.45 389.17C448.45 398.33 441.72 403.73 431.45 404.17C413.81 404.88 396.45 407.06 380.04 414.23C375.04 416.42 370.18 419.14 365.04 420.87C356.12 423.87 348.93 420.15 342.74 413.87C354.833 404.47 366.92 395.077 379 385.69C388.867 378.083 398.74 370.487 408.62 362.9Z" fill="#FFF1CC"/>
<path d="M592 401.09L591 399.97L592 401.09Z" fill="#F8BF98"/>
<path d="M566.84 376.17L566 375.09L566.84 376.17Z" fill="#F8BF98"/>
<path d="M402.18 547.86C400.32 539.86 401.37 537.39 407.9 532.75C417.78 525.75 425.33 516.75 428.78 505.02C430.961 497.248 432.664 489.35 433.88 481.37C434.7 476.43 437.09 473.15 441.36 473.09C445.9 473.03 449.13 476.28 448.98 481.59C448.32 505.59 440.32 526.25 421.6 542.08C421.014 542.663 420.46 543.277 419.94 543.92C422.94 547.41 425.71 551.04 428.85 554.34C438.81 564.84 448.86 575.243 459 585.55C464.55 591.22 465.16 591.12 471.3 586.38C476.3 582.53 481.3 578.67 486.35 574.97C487.76 573.97 489.6 573.51 491.25 572.8C492.11 573.99 493.94 575.5 493.67 576.3C492.67 579.3 491.5 582.63 489.4 584.91C484.48 590.23 478.98 595.01 473.71 600.01C471.71 601.01 469.71 602.01 467.71 602.94L456.15 603.04L451 600.09C448.92 597.95 446.83 595.82 444.76 593.68L413.22 560.96L409 556.03C408.38 555.35 407.76 554.66 407.13 553.98L402.18 547.86Z" fill="#E9A26F"/>
<path d="M473.68 600.01C478.95 595.01 484.45 590.23 489.37 584.91C491.47 582.63 492.63 579.33 493.64 576.3C493.91 575.5 492.08 573.99 491.22 572.8L506 555.97C511.26 557.65 516.41 560.05 521.8 560.9C539.11 563.64 556.14 561.8 572.8 556.28C581.39 553.44 589.93 550.48 599.73 548.28C596.29 554.92 593.07 561.69 589.35 568.17C575.84 591.6 555 603.91 528.82 608.09C518 609.82 507.08 611.79 496.28 608.99C490.09 607.39 484.28 604.22 478.28 601.78C476.78 601.14 475.23 600.59 473.68 600.01Z" fill="#FFF2CD"/>
<path d="M407.16 553.98C407.79 554.66 408.41 555.35 409.03 556.03C408.93 558.94 410.03 560.84 413.21 560.98L444.75 593.7C446.82 595.84 448.91 597.97 450.99 600.11C444.08 602.11 437.28 604.67 430.24 605.93C411.18 609.33 392.49 607.86 374.48 600.12C361.48 594.52 351.48 585.12 342.48 574.65C337.11 568.43 332.71 561.35 328.05 554.54C326.99 552.98 326.66 550.92 326 549.09C335.17 551.19 344.24 554.09 353.52 555.19C363.77 556.39 374.21 556.11 384.57 556.11C391.01 556.11 397.45 555.49 403.89 555.04C405.018 554.818 406.116 554.462 407.16 553.98V553.98Z" fill="#FFF2CD"/>
<path d="M326 549.09L325.58 548.86L326 549.09Z" fill="#FFF2CD"/>
<path d="M543.86 467.03C543.86 471.52 544.03 476.03 543.86 480.49C543.36 491.71 535.55 500.15 525.12 500.96C514.31 501.8 504.6 494.77 503.34 483.4C502.186 472.666 502.072 461.846 503 451.09C503.432 445.957 505.813 441.185 509.653 437.752C513.493 434.319 518.501 432.487 523.65 432.63C534.34 433.01 543 441.63 543.78 453.06C544.09 457.69 543.78 462.36 543.78 467.06L543.86 467.03Z" fill="#292522"/>
<path d="M377.19 468.6C377.19 464.28 377 459.94 377.19 455.6C377.8 443.94 386.41 435.05 397.29 434.6C402.523 434.461 407.607 436.346 411.484 439.863C415.361 443.381 417.731 448.258 418.1 453.48C418.975 463.907 418.865 474.394 417.77 484.8C416.52 496.5 406.94 503.74 395.94 502.93C385.12 502.13 377.37 493.38 377.08 481.53C376.98 477.21 377.08 472.88 377.08 468.53L377.19 468.6Z" fill="#292522"/>
<path d="M413.21 560.98C410.04 560.84 408.93 558.98 409.03 556.03L413.21 560.98Z" fill="#F8E6B9"/>
</g>
</g>
<defs>
<clipPath id="clip0">
<rect width="1000" height="1000" fill="white"/>
</clipPath>
<clipPath id="clip1">
<rect width="771.94" height="831.09" fill="white" transform="translate(114 169)"/>
</clipPath>
</defs>
</svg>
